<svg width="48" height="48" viewBox="0 0 48 48" fill="none" xmlns="http://www.w3.org/2000/svg">
<circle cx="24" cy="24" r="23.5" fill="#FEF4EC" stroke="#FBD3B1"/>
<path d="M33.75 13H30.5V11.75C30.5 11.5511 30.421 11.3603 30.2803 11.2197C30.1397 11.079 29.9489 11 29.75 11C29.5511 11 29.3603 11.079 29.2197 11.2197C29.079 11.3603 29 11.5511 29 11.75V13H18.5V11.75C18.5 11.5511 18.421 11.3603 18.2803 11.2197C18.1397 11.079 17.9489 11 17.75 11C17.5511 11 17.3603 11.079 17.2197 11.2197C17.079 11.3603 17 11.5511 17 11.75V13H13.75C13.2859 13 12.8408 13.1844 12.5126 13.5126C12.1844 13.8408 12 14.2859 12 14.75V34.75C12 35.2141 12.1844 35.6592 12.5126 35.9874C12.8408 36.3156 13.2859 36.5 13.75 36.5H33.75C34.2141 36.5 34.6592 36.3156 34.9874 35.9874C35.3156 35.6592 35.5 35.2141 35.5 34.75V14.75C35.5 14.2859 35.3156 13.8408 34.9874 13.5126C34.6592 13.1844 34.2141 13 33.75 13ZM13.75 14.5H17V15.75C17 15.9489 17.079 16.1397 17.2197 16.2803C17.3603 16.421 17.5511 16.5 17.75 16.5C17.9489 16.5 18.1397 16.421 18.2803 16.2803C18.421 16.1397 18.5 15.9489 18.5 15.75V14.5H29V15.75C29 15.9489 29.079 16.1397 29.2197 16.2803C29.3603 16.421 29.5511 16.5 29.75 16.5C29.9489 16.5 30.1397 16.421 30.2803 16.2803C30.421 16.1397 30.5 15.9489 30.5 15.75V14.5H33.75C33.8163 14.5 33.8799 14.5263 33.9268 14.5732C33.9737 14.6201 34 14.6837 34 14.75V19H13.5V14.75C13.5 14.6837 13.5263 14.6201 13.5732 14.5732C13.6201 14.5263 13.6837 14.5 13.75 14.5ZM33.75 35H13.75C13.6837 35 13.6201 34.9737 13.5732 34.9268C13.5263 34.8799 13.5 34.8163 13.5 34.75V20.5H34V34.75C34 34.8163 33.9737 34.8799 33.9268 34.9268C33.8799 34.9737 33.8163 35 33.75 35ZM28.78 24.22C28.9205 24.3606 28.9993 24.5512 28.9993 24.75C28.9993 24.9488 28.9205 25.1394 28.78 25.28L22.78 31.28C22.6394 31.4205 22.4488 31.4993 22.25 31.4993C22.0512 31.4993 21.8606 31.4205 21.72 31.28L18.72 28.28C18.5875 28.1378 18.5154 27.9498 18.5188 27.7555C18.5223 27.5612 18.601 27.3758 18.7384 27.2384C18.8758 27.101 19.0612 27.0223 19.2555 27.0188C19.4498 27.0154 19.6378 27.0875 19.78 27.22L22.25 29.6887L27.72 24.22C27.8606 24.0795 28.0512 24.0007 28.25 24.0007C28.4488 24.0007 28.6394 24.0795 28.78 24.22Z" fill="#522714"/>
</svg>
