<svg width="191" height="190" viewBox="0 0 191 190" fill="none" xmlns="http://www.w3.org/2000/svg">
<path d="M171.972 88.5118C171.073 82.4401 169.259 76.5397 166.592 71.0118C166.241 70.3703 166.052 69.6529 166.042 68.9218C165.983 66.2451 165.371 63.6096 164.242 61.1818C163.242 58.9277 162.023 56.7773 160.602 54.7618C157.155 49.7604 153.208 45.1231 148.822 40.9218C148.442 40.5618 148.042 40.2018 147.632 39.8618C147.372 39.652 147.091 39.4709 146.792 39.3218C146.616 39.2272 146.421 39.1752 146.221 39.1702C146.022 39.1652 145.824 39.2072 145.644 39.2929C145.464 39.3786 145.306 39.5056 145.184 39.6635C145.062 39.8214 144.979 40.0058 144.942 40.2018C144.865 40.5293 144.838 40.8663 144.862 41.2018C144.862 41.9318 144.982 42.6618 145.082 43.3818C145.592 46.2752 145.652 49.2299 145.262 52.1418C144.88 54.5093 144.267 56.8337 143.432 59.0818C141.132 65.1218 138.798 71.1451 136.432 77.1518C135.449 79.7829 134.011 82.2202 132.182 84.3518C129.702 87.1318 127.082 89.8018 124.502 92.4918C124.129 92.8195 123.731 93.1171 123.312 93.3818C123.305 92.647 123.569 91.9354 124.052 91.3818C125.412 89.3818 126.772 87.3818 128.202 85.5018C130.753 82.0929 132.904 78.402 134.612 74.5018C136.452 70.2907 138.058 65.9807 139.422 61.5918C140.728 57.4448 141.33 53.1079 141.202 48.7618C141.102 44.7594 140.552 40.781 139.562 36.9018C139.181 35.4895 138.682 34.1113 138.072 32.7818C137.601 31.6704 136.876 30.6846 135.956 29.9032C135.035 29.1219 133.945 28.5666 132.772 28.2818C132.322 28.1618 131.882 28.0218 131.422 27.9118C129.346 27.4007 127.369 26.5492 125.572 25.3918C124.282 24.5818 123.002 23.7218 121.692 22.9318C119.472 21.5818 117.272 20.1918 114.992 18.9318C113.272 18.0318 111.482 17.2818 109.702 16.5118C109.09 16.2542 108.443 16.0891 107.782 16.0218C107.566 15.9884 107.345 16.0039 107.135 16.0674C106.926 16.1308 106.733 16.2405 106.572 16.3884C106.411 16.5362 106.285 16.7185 106.203 16.9216C106.122 17.1247 106.087 17.3435 106.102 17.5618C106.102 17.9518 106.162 18.3318 106.212 19.0118C103.074 17.7964 99.7695 17.068 96.4118 16.8518C91.6154 16.562 86.8018 16.922 82.1018 17.9218C81.4515 18.059 80.8293 18.3059 80.2618 18.6518C80.0464 18.75 79.8559 18.8957 79.7047 19.0779C79.5535 19.2602 79.4455 19.4742 79.3888 19.7041C79.332 19.934 79.328 20.1737 79.377 20.4054C79.4261 20.637 79.5268 20.8546 79.6718 21.0418C80.1882 21.8184 80.7922 22.5331 81.4718 23.1718C86.8418 28.3418 89.9318 34.7218 91.5618 41.9018C92.1256 44.3086 92.2878 46.7921 92.0418 49.2518C91.8873 50.507 91.6058 51.7434 91.2018 52.9418C90.9932 53.6303 90.6537 54.272 90.2018 54.8318C89.8484 55.3299 89.3171 55.6731 88.7177 55.7903C88.1184 55.9076 87.4969 55.79 86.9818 55.4618C86.036 54.952 85.2397 54.2039 84.6718 53.2918C83.7255 51.8375 82.9851 50.2592 82.4718 48.6018C81.6057 45.8056 80.9374 42.9519 80.4718 40.0618C79.6718 35.6718 78.9418 31.2618 78.0318 26.9018C77.4848 24.4965 76.8173 22.1202 76.0318 19.7818C75.7459 18.8948 75.3351 18.053 74.8118 17.2818C74.5005 16.6774 73.9688 16.2158 73.3266 15.9924C72.6845 15.7691 71.981 15.8011 71.3618 16.0818C70.6618 16.3018 69.9918 16.6018 69.3018 16.8518C68.1718 17.2675 66.9588 17.4072 65.7638 17.2593C64.5689 17.1115 63.4265 16.6803 62.4318 16.0018C61.0208 15.0984 59.8423 13.8754 58.9918 12.4318C58.4018 11.4318 57.9118 10.4318 57.3418 9.43181C57.0648 8.90269 56.7294 8.40627 56.3418 7.95181C56.2223 7.80418 56.0723 7.6841 55.9021 7.59976C55.7319 7.51542 55.5455 7.46881 55.3556 7.46312C55.1657 7.45742 54.9769 7.49277 54.8019 7.56676C54.6269 7.64074 54.47 7.75162 54.3418 7.89181C53.9943 8.20092 53.6884 8.55388 53.4318 8.94181C52.9852 9.60847 52.5652 10.2751 52.1718 10.9418C49.2618 16.0735 45.7686 20.8518 41.7618 25.1818C39.8718 27.2418 37.9818 29.3118 36.2018 31.5118C34.6818 33.3618 33.2718 35.3118 31.9318 37.2918C30.5132 39.3968 29.4177 41.7024 28.6818 44.1318C27.7348 47.0616 27.7629 50.2193 28.7618 53.1318C29.6164 55.5245 30.958 57.714 32.7018 59.5618C34.2078 61.175 35.8842 62.6201 37.7018 63.8718C41.0443 66.195 44.6245 68.156 48.3818 69.7218C51.3218 70.9818 54.3118 72.1318 57.2318 73.4218C59.1759 74.2888 61.075 75.2534 62.9218 76.3118C64.0073 76.9756 65.0137 77.7607 65.9218 78.6518C66.4304 79.1907 66.8309 79.8221 67.1018 80.5118C67.3227 80.9344 67.3689 81.4268 67.2305 81.883C67.0921 82.3393 66.7802 82.7231 66.3618 82.9518C65.6301 83.408 64.8195 83.7234 63.9718 83.8818C62.9197 84.0403 61.8534 84.0838 60.7918 84.0118C58.1261 83.8349 55.5094 83.2094 53.0518 82.1618C47.2094 79.8167 41.9001 76.3168 37.4418 71.8718C34.8273 69.3051 32.4073 66.5475 30.2018 63.6218C28.8318 61.8218 27.4918 59.9918 26.1018 58.2018C25.5333 57.4519 24.8973 56.7557 24.2018 56.1218C22.9418 55.0218 21.6818 55.2518 20.9318 56.7318C20.5169 57.5665 20.2207 58.4551 20.0518 59.3718C19.5318 62.3718 19.0518 65.3718 18.6718 68.4618C18.138 72.44 18.0608 76.4661 18.4418 80.4618C18.7418 83.0518 19.1718 85.6218 21.0218 87.4618C20.7718 90.3218 20.5318 93.0418 20.3018 95.7618C19.9464 100.019 20.138 104.304 20.8718 108.512C21.3017 111.303 22.1832 114.005 23.4818 116.512C24.2538 118.155 25.4923 119.535 27.0429 120.479C28.5935 121.423 30.3877 121.89 32.2018 121.822C33.4018 121.822 34.6018 121.822 35.8018 121.892C39.0069 121.947 42.14 122.851 44.8818 124.512C46.0118 125.222 47.1818 125.872 48.3318 126.512C50.9792 128.081 53.9217 129.089 56.9756 129.471C60.0295 129.853 63.1294 129.601 66.0818 128.732C68.2018 128.142 70.2818 127.422 72.3818 126.732C74.1618 126.182 75.9318 125.572 77.7418 125.142C78.9083 124.872 80.1057 124.761 81.3018 124.812C82.8418 124.882 83.3018 125.812 82.4218 127.132C81.9928 127.805 81.4556 128.403 80.8318 128.902C80.0027 129.569 79.1002 130.139 78.1418 130.602C76.7573 131.258 75.3228 131.803 73.8518 132.232C71.4118 132.902 68.9418 133.462 66.4718 133.992C61.2018 135.182 55.9518 136.512 50.6018 137.252C46.9208 137.911 43.1604 138.002 39.4518 137.522C36.8918 137.092 34.3518 136.522 31.7918 136.102C31.0771 135.957 30.3509 135.877 29.6218 135.862C27.5118 135.862 26.4118 137.072 26.6218 139.192C26.7254 140.119 26.9196 141.033 27.2018 141.922C28.4724 146.142 30.403 150.135 32.9218 153.752C34.4147 155.884 36.2141 157.785 38.2618 159.392C39.6163 160.478 41.1265 161.355 42.7418 161.992C44.1058 162.546 45.5724 162.803 47.0436 162.744C48.5147 162.686 49.9564 162.313 51.2718 161.652C52.2845 161.127 53.2631 160.54 54.2018 159.892C55.1418 159.272 56.0418 158.582 56.9718 157.892C58.7122 156.637 60.7631 155.883 62.9018 155.712C63.7618 155.652 64.6218 155.482 65.4818 155.382C68.2175 155.086 70.8105 154.01 72.9518 152.282C74.1418 151.282 75.2518 150.282 76.3918 149.282C77.5318 148.282 78.7218 147.082 79.9418 146.062C80.7667 145.386 81.6541 144.79 82.5918 144.282C83.1871 143.99 83.8312 143.81 84.4918 143.752C84.6588 143.722 84.8301 143.727 84.995 143.767C85.16 143.806 85.3149 143.88 85.4501 143.982C85.5854 144.084 85.698 144.214 85.7809 144.362C85.8638 144.51 85.9152 144.673 85.9318 144.842C86.0201 145.507 85.9998 146.183 85.8718 146.842C85.5205 148.336 84.9041 149.755 84.0518 151.032C81.6116 154.957 78.2948 158.264 74.3618 160.692C70.4702 163.19 65.9827 164.606 61.3618 164.792C60.0218 164.852 58.6918 164.852 57.3618 164.902C56.6286 164.903 55.8965 164.96 55.1718 165.072C54.889 165.086 54.6138 165.168 54.3689 165.311C54.1241 165.453 53.9169 165.652 53.7643 165.891C53.6118 166.129 53.5183 166.401 53.4918 166.683C53.4653 166.965 53.5064 167.249 53.6118 167.512C53.801 168.15 54.0841 168.757 54.4518 169.312C57.9695 174.876 63.2508 179.101 69.4518 181.312C71.3366 181.994 73.3106 182.398 75.3118 182.512C79.6257 182.753 83.8601 181.279 87.0918 178.412C88.7969 176.93 90.3208 175.252 91.6318 173.412C93.5151 170.825 95.5521 168.354 97.7318 166.012C101.129 162.325 103.799 158.03 105.602 153.352C107.475 148.647 108.938 143.789 109.972 138.832C110.609 135.358 111.542 131.946 112.762 128.632C113.141 127.635 113.589 126.666 114.102 125.732C114.404 125.052 114.948 124.509 115.628 124.208C116.308 123.907 117.076 123.869 117.782 124.102C119.091 124.373 120.332 124.903 121.432 125.662C123.272 126.862 125.062 128.142 126.892 129.372C128.492 130.452 130.072 131.572 131.732 132.552C134.368 134.14 137.306 135.161 140.359 135.548C143.412 135.936 146.513 135.681 149.462 134.802C153.41 133.764 157.094 131.899 160.269 129.333C163.444 126.766 166.039 123.555 167.882 119.912C170.83 114.278 172.484 108.056 172.722 101.702C172.935 97.291 172.683 92.87 171.972 88.5118ZM133.352 30.5118C134.5 30.9277 135.438 31.7792 135.962 32.8818C136.593 34.0545 137.106 35.2873 137.492 36.5618C138.991 41.9118 139.569 47.4779 139.202 53.0218C138.977 55.8139 138.423 58.5696 137.552 61.2318C136.166 65.615 134.547 69.9212 132.702 74.1318C131.168 77.6099 129.253 80.9068 126.992 83.9618C125.792 85.5718 124.572 87.1518 123.472 88.8218C122.635 90.1041 121.883 91.4404 121.222 92.8218C120.935 93.4883 120.785 94.206 120.782 94.9318C120.775 95.1344 120.817 95.3357 120.906 95.518C120.995 95.7003 121.127 95.858 121.291 95.9774C121.454 96.0968 121.645 96.1743 121.846 96.2029C122.046 96.2316 122.251 96.2106 122.442 96.1418C122.954 95.9967 123.435 95.7595 123.862 95.4418C124.731 94.8381 125.553 94.1695 126.322 93.4418C128.322 91.4418 130.242 89.4418 132.152 87.4418C134.595 84.8472 136.532 81.8185 137.862 78.5118C140.495 71.9518 143.052 65.3685 145.532 58.7618C146.448 56.257 147.043 53.6462 147.302 50.9918C147.477 48.5326 147.387 46.0616 147.032 43.6218L146.872 42.1818C147.172 42.2518 147.412 42.1818 147.522 42.3418C150.783 45.4302 153.793 48.7741 156.522 52.3418C156.302 53.0318 156.142 53.6718 155.902 54.2818C153.364 61.089 150.398 67.7289 147.022 74.1618C142.653 82.1959 137.18 89.5777 130.762 96.0918C124.712 102.297 118.329 108.169 111.642 113.682C111.392 113.892 111.112 114.072 110.752 114.342C109.612 112.904 108.585 111.379 107.682 109.782C107.752 108.982 108.402 108.782 108.842 108.422C111.99 105.926 114.491 102.709 116.132 99.0418C116.209 98.859 116.276 98.6721 116.332 98.4818C116.332 98.4818 116.332 98.3718 116.202 98.1918C113.032 101.542 110.462 105.332 107.322 108.812C106.132 107.762 105.632 106.372 104.722 105.172C104.968 104.779 105.239 104.401 105.532 104.042C108.698 100.432 111.476 96.5009 113.822 92.3118C118.641 84.1558 122.402 75.4187 125.012 66.3118C126.767 60.2231 127.807 53.951 128.112 47.6218C128.202 44.9618 128.302 42.2918 128.342 39.6218C128.376 36.6886 128.158 33.7579 127.692 30.8618C127.592 30.2218 127.592 29.5618 127.532 28.7118C129.582 29.3518 131.482 29.9118 133.352 30.5118ZM101.032 19.5118C101.272 19.5118 101.572 19.5618 101.872 19.6118C102.172 19.6618 102.522 19.7718 102.872 19.8518C105.129 20.3701 107.202 21.497 108.864 23.1101C110.527 24.7232 111.716 26.7608 112.302 29.0018C112.983 31.302 113.439 33.6632 113.662 36.0518C114.135 41.704 113.799 47.3949 112.662 52.9518C111.582 58.5918 109.882 64.0618 108.272 69.5618C107.522 72.1118 106.882 74.7018 106.272 77.3018C106.085 78.3474 106.018 79.411 106.072 80.4718C106.092 81.0036 106.225 81.5251 106.462 82.0018C106.558 82.2632 106.715 82.4975 106.921 82.6845C107.128 82.8716 107.376 83.0058 107.646 83.0756C107.915 83.1454 108.197 83.1488 108.469 83.0854C108.74 83.0221 108.991 82.8939 109.202 82.7118C109.802 82.2955 110.304 81.7528 110.672 81.1218C111.363 79.8381 111.948 78.5004 112.422 77.1218C113.276 74.3244 113.783 71.4328 113.932 68.5118C114.172 65.3818 114.352 62.2518 114.342 59.1218C114.45 55.2623 114.784 51.4123 115.342 47.5918C116.145 41.5824 115.806 35.4753 114.342 29.5918C113.653 26.5134 112.082 23.7022 109.822 21.5018C108.952 20.7118 108.822 19.5618 108.402 18.5818C108.535 18.456 108.708 18.381 108.891 18.37C109.074 18.3591 109.255 18.4128 109.402 18.5218C111.272 19.4018 113.172 20.2218 114.972 21.2118C117.132 22.4118 119.202 23.7518 121.292 25.0518C123.052 26.1418 124.782 27.2518 126.622 28.4018C126.622 28.8218 126.752 29.2718 126.752 29.7218C127.013 40.1255 126.094 50.5252 124.012 60.7218C122.288 68.6322 119.563 76.2906 115.902 83.5118C114.622 86.0718 113.252 88.5918 111.842 91.0818C109.592 95.0818 107.272 99.0818 104.972 103.082C104.772 103.432 104.552 103.752 104.272 104.182C103.464 103.391 102.789 102.476 102.272 101.472C101.576 100.531 100.948 99.5417 100.392 98.5118C100.892 98.0518 101.392 97.6618 101.772 97.2618C105.566 93.8968 108.824 89.9714 111.432 85.6218C111.822 84.9518 112.142 84.2318 112.432 83.5418C112.272 83.5378 112.113 83.5757 111.972 83.6518C111.694 83.9376 111.44 84.2453 111.212 84.5718C108.115 88.8324 104.738 92.8814 101.102 96.6918C100.832 96.9818 100.552 97.2618 100.252 97.5318C100.133 97.5885 100.004 97.6225 99.8718 97.6318C97.1782 94.0025 94.6877 90.2267 92.4118 86.3218C92.4804 86.1432 92.5675 85.9722 92.6718 85.8118C94.5855 83.0075 96.1095 79.9563 97.2018 76.7418C100.175 68.9452 102.151 60.804 103.082 52.5118C103.682 47.5353 103.826 42.5145 103.512 37.5118C103.155 31.8592 102.308 26.2482 100.982 20.7418C100.914 20.4118 100.867 20.0778 100.842 19.7418C100.842 19.7418 100.912 19.6918 101.032 19.5118ZM112.332 64.2918C112.221 68.0712 111.732 71.8299 110.872 75.5118C110.521 77.0716 109.934 78.5688 109.132 79.9518C108.828 80.3443 108.494 80.7121 108.132 81.0518C107.842 79.8153 107.842 78.5284 108.132 77.2918C108.752 74.7818 109.412 72.2918 110.132 69.7818C110.592 68.1218 111.132 66.4718 111.622 64.7818C111.748 64.4688 111.895 64.1648 112.062 63.8718C112.202 64.1218 112.332 64.2118 112.332 64.2918ZM67.1218 19.2918C68.6261 19.0025 70.0995 18.5706 71.5218 18.0018C72.5218 17.5918 72.9318 17.7718 73.4518 18.7718C73.8462 19.5415 74.1806 20.3406 74.4518 21.1618C75.4948 24.3253 76.2905 27.5651 76.8318 30.8518C77.6518 35.2318 78.4118 39.6318 79.2418 44.0118C79.6821 46.3715 80.352 48.6825 81.2418 50.9118C81.8126 52.4093 82.6011 53.8144 83.5818 55.0818C84.4016 56.1424 85.4987 56.9557 86.7518 57.4318C87.4732 57.7073 88.2572 57.7755 89.0152 57.6289C89.7733 57.4822 90.4753 57.1265 91.0418 56.6018C91.7992 55.941 92.3916 55.1122 92.7718 54.1818C93.4873 52.5292 93.8973 50.7606 93.9818 48.9618C94.1411 45.8911 93.8034 42.8148 92.9818 39.8518C91.3233 33.015 87.7829 26.7795 82.7618 21.8518C82.3818 21.4818 82.0418 21.0718 81.6918 20.6618C81.6218 20.5818 81.6918 20.4218 81.6218 20.2918C84.1618 18.7518 94.8318 18.1218 99.6218 19.2918C99.7607 19.7722 99.8742 20.2595 99.9618 20.7518C100.232 23.0018 100.502 25.2518 100.722 27.5118C101.292 33.2831 101.482 39.0856 101.292 44.8818C100.98 55.1574 99.0217 65.3165 95.4918 74.9718C94.3518 78.0918 93.2318 81.2318 92.0918 84.3618C92.0118 84.5918 91.8818 84.8118 91.7918 85.0118C91.5718 85.0118 91.3918 85.0118 91.3318 84.9018C90.2726 83.6217 89.4067 82.1931 88.7618 80.6618C87.6718 79.7518 87.2018 78.4218 86.4418 77.3418C88.5618 73.8818 89.3418 70.1118 90.0118 66.3418C90.3577 64.7861 90.6015 63.2094 90.7418 61.6218C89.9926 63.2169 89.4354 64.8953 89.0818 66.6218C88.5818 68.2818 88.0818 69.9518 87.6718 71.6218L86.3118 76.6218C86.0118 76.4018 85.7518 76.3118 85.6318 76.1218C82.2618 70.7618 79.0518 65.3118 76.0418 59.7118C76.7518 57.9418 78.2918 56.5618 78.2018 54.4618C77.4218 55.8318 76.6518 57.2118 75.8018 58.7118C75.5618 58.5269 75.3467 58.3118 75.1618 58.0718C74.7318 57.3218 74.3518 56.5518 73.9718 55.8118C75.4418 50.8118 76.4518 45.9418 75.4218 40.8118C74.8518 40.8118 74.9118 41.2318 74.8818 41.5318C74.4318 45.5318 74.0018 49.4718 73.5618 53.4518C73.5177 53.6257 73.4609 53.7962 73.3918 53.9618C73.1718 53.8118 72.9018 53.7318 72.8118 53.5518C71.9518 51.9018 71.1518 50.2118 70.2918 48.5518C69.9766 47.9198 69.902 47.1948 70.0818 46.5118C70.7544 42.5573 70.6593 38.5103 69.8018 34.5918C68.8718 29.8218 67.8018 25.0718 66.8018 20.3118C66.7686 20.0731 66.7486 19.8327 66.7418 19.5918C66.9418 19.5118 67.0218 19.3418 67.1218 19.3118V19.2918ZM60.3918 16.9018C61.1327 17.4716 61.9342 17.9579 62.7818 18.3518C63.6818 18.7518 64.6618 18.9918 65.8718 19.3518C67.3609 27.4976 68.2765 35.7378 68.6118 44.0118C68.0118 43.9518 67.9818 43.4118 67.8118 43.0118C65.1211 37.1369 62.8032 31.0982 60.8718 24.9318C59.9618 22.0118 59.0918 19.0718 58.2118 16.1418C58.1018 15.7718 58.0718 15.3918 57.9318 14.6518C58.9318 15.6218 59.6218 16.3218 60.3918 16.9018ZM46.2518 22.9018C47.3418 21.5518 48.4118 20.1918 49.4218 18.7818C50.4318 17.3718 51.3318 15.9018 52.2918 14.4618C53.124 12.877 54.098 11.3709 55.2018 9.96181C55.7018 12.6118 56.0918 15.0218 56.6218 17.4118C57.1518 19.8018 57.7318 22.0718 58.3918 24.4118C59.0518 26.7518 59.8218 29.1218 60.6318 31.4118C61.4418 33.7018 62.3318 36.0318 63.2618 38.3118C64.1918 40.5918 65.1418 42.7218 66.1118 44.9218C67.0818 47.1218 68.2018 49.3418 69.2018 51.5118C68.7418 51.9518 68.4518 51.6818 68.2018 51.5118C65.9659 50.4659 63.836 49.2067 61.8418 47.7518C54.5774 42.4304 48.3881 35.7795 43.6018 28.1518C43.3518 27.7618 43.1618 27.3318 42.8918 26.8418C44.0218 25.5118 45.2018 24.2318 46.2518 22.8918V22.9018ZM42.0318 27.9618C42.4218 28.6318 42.7218 29.1418 43.0318 29.6518C45.383 33.8997 48.1932 37.8768 51.4118 41.5118C55.375 45.9504 60.2631 49.4663 65.7318 51.8118C66.762 52.2789 67.829 52.6602 68.9218 52.9518C69.3382 53.0459 69.7267 53.2359 70.0566 53.5068C70.3865 53.7776 70.6485 54.1218 70.8218 54.5118C72.7218 58.1018 74.6618 61.6718 76.6018 65.2418C77.2618 66.4618 77.9718 67.6618 78.6518 68.8518C78.0618 69.3318 77.6518 68.9418 77.2718 68.7818C72.9718 66.9818 68.7318 65.0518 64.6018 62.8718C64.1518 62.6318 63.6718 62.4318 63.0518 62.1418C64.1118 63.8218 67.0518 65.8618 70.5918 67.5018C73.4208 68.7702 76.3873 69.7064 79.4318 70.2918C80.3636 71.6378 81.199 73.048 81.9318 74.5118C81.5998 74.5536 81.2639 74.5536 80.9318 74.5118C67.0618 70.3018 54.8418 63.5118 45.2018 52.4018C41.8285 48.5351 38.6352 44.5351 35.6218 40.4018C35.0418 39.6018 34.5118 38.7518 34.0018 37.9818C34.9118 35.8118 39.2018 30.5118 42.0318 27.9518V27.9618ZM20.8218 66.0318C21.2218 63.8718 21.5618 61.7018 21.9618 59.5418C22.1413 58.8648 22.3549 58.1972 22.6018 57.5418C22.9338 57.7056 23.2458 57.9069 23.5318 58.1418C24.2218 58.9518 24.8818 59.7918 25.5318 60.6318C27.2018 62.8018 28.8118 65.0018 30.5318 67.1318C33.6816 71.0944 37.3167 74.6456 41.3518 77.7018C45.8548 81.1634 50.9912 83.7112 56.4718 85.2018C58.7981 85.8194 61.2133 86.0325 63.6118 85.8318C64.808 85.7524 65.9722 85.411 67.0218 84.8318C67.4975 84.5868 67.9192 84.2489 68.262 83.838C68.6047 83.4272 68.8615 82.9517 69.0173 82.4398C69.173 81.9279 69.2244 81.39 69.1685 80.8578C69.1126 80.3257 68.9505 79.8102 68.6918 79.3418C68.2116 78.3074 67.4875 77.4049 66.5818 76.7118C65.2804 75.672 63.8995 74.7358 62.4518 73.9118C60.2218 72.7418 57.8918 71.7318 55.5718 70.7118C53.0718 69.6218 50.5718 68.6318 48.0218 67.5418C44.7774 66.1409 41.6846 64.4119 38.7918 62.3818C37.1486 61.2412 35.6272 59.9343 34.2518 58.4818C32.9597 57.1307 31.8928 55.581 31.0918 53.8918C29.8151 51.2159 29.5487 48.1686 30.3418 45.3118C30.9793 43.0142 31.9604 40.8262 33.2518 38.8218C33.8118 39.8218 34.1718 40.4418 34.5418 41.0618C38.414 47.8303 43.2477 54.0013 48.8918 59.3818C54.1162 64.2649 60.0629 68.3125 66.5218 71.3818C70.8746 73.4017 75.474 74.8407 80.2018 75.6618C80.3994 75.7064 80.5999 75.7365 80.8018 75.7518C83.0918 75.8518 82.7418 75.7518 84.0518 77.7518L90.2918 87.5118C90.6418 88.0618 90.9718 88.6318 91.3818 89.3018C91.0009 89.4932 90.6024 89.6472 90.1918 89.7618C84.7911 90.636 79.3038 90.8475 73.8518 90.3918C71.3418 90.1918 68.8518 90.0218 66.2318 89.8318C68.1318 91.3718 74.3018 92.1518 78.9918 92.1718C83.3421 92.2512 87.6731 91.5744 91.7918 90.1718C92.9023 91.3875 93.8349 92.7544 94.5618 94.2318C94.243 94.3771 93.907 94.4813 93.5618 94.5418C89.6318 94.6818 85.7018 94.8618 81.7718 94.9318C73.8321 95.1967 65.896 94.3074 58.2118 92.2918C51.5153 90.457 45.1764 87.5056 39.4618 83.5618C33.1632 79.0922 27.2402 74.1157 21.7518 68.6818C21.3669 68.3694 21.0761 67.9562 20.9119 67.4884C20.7477 67.0205 20.7165 66.5163 20.8218 66.0318ZM22.0318 100.032C22.0537 95.713 22.4451 91.4039 23.2018 87.1518C23.3218 86.5118 23.5418 85.8918 23.7218 85.2318C23.9546 85.2606 24.1829 85.3177 24.4018 85.4018C24.6333 85.5394 24.8452 85.7076 25.0318 85.9018C28.4483 89.1824 32.3764 91.8844 36.6618 93.9018C40.8125 96.033 44.7302 98.5901 48.3518 101.532C50.5918 103.322 52.8818 105.052 55.2318 106.692C58.7751 109.2 62.7032 111.115 66.8618 112.362C69.1574 113.083 71.5563 113.421 73.9618 113.362C75.6332 113.324 77.2757 112.918 78.7718 112.172C79.6148 111.759 80.3533 111.161 80.9318 110.422C81.4318 109.791 81.7202 109.018 81.7561 108.214C81.792 107.41 81.5735 106.615 81.1318 105.942C80.4962 104.997 79.6465 104.216 78.6518 103.662C77.264 102.851 75.7647 102.248 74.2018 101.872C70.3822 100.93 66.4739 100.394 62.5418 100.272C58.8118 100.102 55.0818 99.9518 51.3518 99.8918C49.8875 99.9051 48.4675 99.3903 47.3518 98.4418C44.7984 96.4006 42.0482 94.6184 39.1418 93.1218C37.5618 92.2718 35.9718 91.4218 34.3918 90.5518C31.6953 89.086 29.2066 87.2665 26.9918 85.1418C26.4618 84.6418 25.9018 84.1418 25.3418 83.6918C24.3418 82.8318 22.9118 82.6918 22.1218 84.1218C21.95 84.3509 21.7629 84.568 21.5618 84.7718C20.9082 83.5321 20.5199 82.1698 20.4218 80.7718C19.9779 76.9479 20.0283 73.0828 20.5718 69.2718C20.8424 69.4224 21.097 69.6 21.3318 69.8018C24.8453 73.9014 28.6808 77.7136 32.8018 81.2018C41.5712 88.7989 52.2485 93.8575 63.6818 95.8318C71.3034 97.1819 79.0664 97.5515 86.7818 96.9318C88.9018 96.7718 90.9918 96.3118 93.0918 95.9318C93.8118 95.8118 94.5218 95.6218 95.5318 95.4018C95.6318 95.5718 95.8018 95.8518 95.9818 96.1318C98.6885 100.238 101.402 104.352 104.122 108.472C104.327 108.836 104.508 109.213 104.662 109.602C104.082 109.832 103.602 110.052 103.112 110.192C97.5022 111.921 91.8082 113.362 86.0518 114.512C79.4699 115.598 72.778 115.857 66.1318 115.282C55.1318 114.432 44.8018 111.332 34.6718 107.282C31.1418 105.882 27.6718 104.282 24.2418 102.702C23.7618 102.482 23.3018 102.202 22.8218 101.962C22.5746 101.859 22.366 101.681 22.2259 101.453C22.0859 101.225 22.0214 100.959 22.0418 100.692C22.0518 100.512 22.0318 100.282 22.0318 100.082V100.032ZM52.2718 101.842C53.3418 101.842 54.1918 101.842 55.0418 101.842C59.2318 102.002 63.4218 102.032 67.5918 102.532C69.8418 102.779 72.0687 103.204 74.2518 103.802C75.6068 104.16 76.8939 104.737 78.0618 105.512C80.5718 107.252 80.3818 109.262 77.5818 110.592C76.4898 111.089 75.3109 111.368 74.1118 111.412C71.7109 111.506 69.3126 111.168 67.0318 110.412C61.7719 108.667 56.8846 105.953 52.6218 102.412C52.4922 102.248 52.3752 102.074 52.2718 101.892V101.842ZM31.4818 147.512C30.2415 145.153 29.3041 142.646 28.6918 140.052C28.2618 137.932 28.6918 137.472 30.7918 137.812C32.8918 138.152 34.8418 138.602 36.8618 139.012C41.3937 139.847 46.0361 139.887 50.5818 139.132C55.9318 138.372 61.1718 137.132 66.4418 135.952C69.0518 135.392 71.6418 134.792 74.2318 134.142C76.1118 133.684 77.9191 132.967 79.6018 132.012C80.6932 131.378 81.7213 130.642 82.6718 129.812C83.3577 129.179 83.9175 128.423 84.3218 127.582C85.4518 125.232 84.3218 123.282 81.7618 122.962C80.3667 122.789 78.9514 122.884 77.5918 123.242C75.7318 123.742 73.8818 124.312 72.0418 124.872C69.9418 125.522 67.8618 126.262 65.7518 126.872C60.8503 128.372 55.5628 127.961 50.9518 125.722C50.1718 125.342 49.4118 124.932 48.6518 124.512C47.8918 124.092 47.0318 123.592 46.2418 123.092C42.9436 121.031 39.1309 119.943 35.2418 119.952L31.8418 119.872C30.534 119.888 29.247 119.543 28.1217 118.877C26.9965 118.21 26.0763 117.246 25.4618 116.092C24.533 114.469 23.8235 112.731 23.3518 110.922C22.709 108.499 22.3235 106.015 22.2018 103.512C22.2231 103.333 22.2774 103.16 22.3618 103.002C22.8618 102.852 23.1518 103.192 23.4718 103.392C33.9599 109.778 45.5265 114.194 57.6018 116.422C69.1717 118.602 81.0758 118.261 92.5018 115.422C96.2526 114.488 99.8734 113.094 103.282 111.272L104.882 110.442C104.945 110.436 105.009 110.436 105.072 110.442C107.003 112.817 108.648 115.412 109.972 118.172C109.799 118.354 109.612 118.521 109.412 118.672C104.632 121.822 99.8918 125.052 95.0518 128.112C85.9571 133.957 76.1767 138.659 65.9318 142.112C59.2767 144.287 52.4675 145.958 45.5618 147.112C42.2818 147.662 38.9818 148.112 35.6818 148.552C34.5618 148.702 33.4318 148.732 32.2418 148.822C31.9618 148.312 31.6818 147.952 31.4818 147.512ZM55.5818 167.072C55.8993 166.914 56.2352 166.796 56.5818 166.722C57.7118 166.672 58.8418 166.722 59.9818 166.672C70.9818 166.442 79.2418 161.282 85.3418 152.362C86.5307 150.664 87.3609 148.741 87.7818 146.712C88.015 145.712 87.9347 144.664 87.5518 143.712C87.3497 143.139 86.9786 142.642 86.4875 142.285C85.9965 141.927 85.4087 141.728 84.8018 141.712C83.8627 141.622 82.9183 141.817 82.0918 142.272C80.935 142.931 79.8316 143.68 78.7918 144.512C77.3518 145.682 76.0318 147.012 74.6418 148.262C73.5518 149.262 72.4718 150.262 71.3118 151.122C69.6689 152.41 67.7112 153.235 65.6418 153.512C64.6418 153.652 63.6418 153.792 62.6418 153.892C60.3349 154.093 58.1179 154.881 56.2018 156.182C55.2018 156.862 54.2618 157.602 53.2618 158.252C52.275 158.932 51.2426 159.543 50.1718 160.082C48.2171 161.004 45.9761 161.112 43.9418 160.382C42.6055 159.957 41.3437 159.326 40.2018 158.512C37.281 156.388 34.8525 153.659 33.0818 150.512C32.9873 150.293 32.9169 150.065 32.8718 149.832C33.1741 149.729 33.4855 149.655 33.8018 149.612C35.0018 149.612 36.2018 149.612 37.4018 149.552C42.062 149.375 46.7037 148.867 51.2918 148.032C64.8818 145.872 77.4118 140.792 89.3818 134.162C94.9745 131.161 100.271 127.639 105.202 123.642C106.682 122.402 108.072 121.062 109.502 119.772L110.422 118.932C111.164 119.533 111.647 120.395 111.772 121.342C110.78 121.697 109.895 122.299 109.202 123.092C107.937 124.354 106.749 125.689 105.642 127.092C103.215 130.425 100.848 133.808 98.5418 137.242C96.5418 140.162 94.7018 143.172 92.7818 146.132C90.7174 149.318 88.4946 152.398 86.1218 155.362C80.3703 162.588 73.0026 168.363 64.6118 172.222L61.0918 173.852C58.7314 172.09 56.8394 169.775 55.5818 167.112V167.072ZM109.282 133.512C108.552 136.412 107.962 139.352 107.282 142.252C106.239 146.52 104.817 150.687 103.032 154.702C101.551 158.126 99.525 161.287 97.0318 164.062C94.4618 166.862 92.0318 169.802 89.7718 172.822C88.6528 174.312 87.3974 175.695 86.0218 176.952C83.4035 179.383 79.9547 180.721 76.3818 180.692C76.0453 180.666 75.711 180.616 75.3818 180.542C75.6818 180.222 75.8118 180.002 76.0118 179.892C84.8518 174.592 91.4818 167.172 96.7218 158.402C100.007 152.746 102.842 146.841 105.202 140.742C106.492 137.532 107.842 134.342 109.202 131.152C109.428 130.597 109.706 130.065 110.032 129.562C110.132 129.412 110.452 129.402 110.682 129.322V129.252V129.312C110.202 130.692 109.632 132.052 109.282 133.512ZM112.392 124.042C111.025 124.882 109.85 126 108.942 127.322C107.763 128.926 106.786 130.669 106.032 132.512C104.822 135.512 103.632 138.432 102.432 141.402C100.258 146.929 97.6568 152.279 94.6518 157.402C91.0208 163.557 86.4026 169.074 80.9818 173.732C78.7418 175.632 76.4018 177.402 74.1718 179.302C73.7356 179.706 73.1912 179.974 72.6052 180.073C72.0192 180.172 71.4168 180.099 70.8718 179.862C68.2091 178.991 65.6913 177.727 63.4018 176.112C63.181 175.964 62.9765 175.793 62.7918 175.602C62.7018 175.473 62.6311 175.331 62.5818 175.182C62.8526 175.015 63.1369 174.871 63.4318 174.752C71.4598 171.939 78.6555 167.16 84.3618 160.852C87.4801 157.554 90.3042 153.991 92.8018 150.202C95.2918 146.422 97.6518 142.552 100.032 138.702C101.962 135.582 103.812 132.422 105.732 129.302C107.451 126.467 109.462 123.819 111.732 121.402C112.39 121.906 112.87 122.606 113.102 123.402C112.883 123.619 112.645 123.817 112.392 123.992V124.042ZM111.052 115.232C111.612 114.852 112.052 114.502 112.572 114.232C126.679 105.056 138.52 92.7985 147.202 78.3818C151.459 71.2059 154.617 63.4331 156.572 55.3218L157.072 53.4818C157.329 53.6488 157.567 53.8433 157.782 54.0618C159.744 56.592 161.383 59.3566 162.662 62.2918C163.479 64.1984 163.982 66.2246 164.152 68.2918C164.386 71.7129 163.502 75.1173 161.632 77.9918C160.588 79.6213 159.367 81.1305 157.992 82.4918C155.855 84.6005 153.569 86.5523 151.152 88.3318C147.682 90.9218 144.152 93.4618 140.722 96.0818C138.872 97.4918 137.062 98.9818 135.312 100.522C134.385 101.382 133.532 102.319 132.762 103.322C132.356 103.851 132.045 104.447 131.842 105.082C131.725 105.362 131.676 105.666 131.701 105.968C131.725 106.271 131.822 106.563 131.982 106.821C132.143 107.078 132.363 107.293 132.624 107.448C132.885 107.603 133.179 107.694 133.482 107.712C134.071 107.811 134.674 107.784 135.252 107.632C136.465 107.274 137.649 106.823 138.792 106.282C141.161 105.031 143.323 103.422 145.202 101.512C147.44 99.314 149.429 96.8759 151.132 94.2418C152.502 92.2418 153.862 90.1318 155.192 88.0618C155.706 87.2836 156.321 86.5774 157.022 85.9618C158.202 84.8818 159.362 83.7718 160.452 82.6018C162.568 80.3815 164.187 77.7363 165.202 74.8418C165.302 74.6026 165.433 74.3773 165.592 74.1718C165.592 74.1718 165.712 74.1718 165.862 74.0718C166.072 74.5318 166.312 75.0018 166.502 75.4818C168.268 80.0013 169.51 84.7089 170.202 89.5118C170.286 89.899 170.271 90.3012 170.157 90.6807C170.043 91.0603 169.835 91.4047 169.552 91.6818C168.552 92.6818 167.672 93.7518 166.672 94.7318C163.387 97.9561 159.889 100.956 156.202 103.712C148.965 108.986 140.789 112.832 132.112 115.042C126.522 116.553 120.845 117.718 115.112 118.532C114.522 118.622 113.922 118.642 113.212 118.692L111.052 115.232ZM150.132 92.3118C147.772 96.1829 144.749 99.6085 141.202 102.432C139.512 103.842 137.566 104.915 135.472 105.592C134.912 105.762 134.352 106.022 133.752 105.592C133.832 104.86 134.19 104.187 134.752 103.712C135.575 102.757 136.475 101.871 137.442 101.062C141.442 97.9218 145.592 94.8518 149.682 91.7518C149.796 91.6898 149.917 91.6396 150.042 91.6018C150.402 91.8118 150.262 92.0418 150.132 92.2618V92.3118ZM162.722 124.312C160.434 127.057 157.617 129.314 154.439 130.948C151.26 132.582 147.786 133.559 144.222 133.822C141.418 134.016 138.607 133.568 136.002 132.512C133.464 131.495 131.081 130.129 128.922 128.452C128.822 128.382 128.792 128.232 128.662 128.012C129.492 127.732 130.182 128.262 130.912 128.302C131.642 128.342 132.492 128.552 133.282 128.662C134.072 128.772 134.862 128.872 135.662 128.932C136.462 128.992 137.252 129.022 138.052 129.042C138.852 129.062 139.652 129.092 140.452 129.042C141.252 128.992 142.042 129.042 142.842 128.982C143.642 128.922 144.432 128.872 145.232 128.782C146.032 128.692 146.802 128.582 147.582 128.472V128.082C147.202 128.082 146.832 127.992 146.452 127.982C142.992 127.802 139.532 127.712 136.082 127.442C133.702 127.252 131.332 126.832 128.962 126.502C128.572 126.502 128.182 126.332 127.782 126.302C126.254 126.171 124.793 125.617 123.562 124.702C122.372 123.882 121.062 123.232 119.782 122.492C119.912 122.012 120.312 122.152 120.582 122.192C122.022 122.372 123.482 122.552 124.912 122.842C128.492 123.582 132.052 124.432 135.642 125.162C139.425 125.954 143.289 126.29 147.152 126.162C150.941 125.965 154.698 125.369 158.362 124.382C159.722 124.042 161.062 123.632 162.362 123.262C162.662 123.182 162.972 123.152 163.522 123.042C163.278 123.453 163.011 123.851 162.722 124.232V124.312ZM168.722 113.202C167.968 115.336 167.072 117.417 166.042 119.432C165.798 119.976 165.426 120.454 164.958 120.823C164.489 121.192 163.938 121.442 163.352 121.552C161.082 122.042 158.822 122.632 156.542 123.062C152.936 123.715 149.276 124.029 145.612 124.002C140.95 123.881 136.313 123.264 131.782 122.162C129.902 121.752 128.022 121.272 126.122 120.952C123.367 120.433 120.534 120.491 117.802 121.122C116.902 121.342 116.042 121.682 115.112 121.982C114.443 121.32 114.023 120.448 113.922 119.512C114.532 119.462 115.042 119.402 115.552 119.392C125.837 119.262 135.982 116.98 145.332 112.692C150.881 110.228 156.001 106.897 160.502 102.822C162.072 101.382 163.662 99.9518 165.122 98.4018C166.582 96.8518 167.882 95.1618 169.252 93.5418L170.352 92.1918C170.505 92.7003 170.625 93.218 170.712 93.7418C171.37 100.268 170.704 106.86 168.752 113.122L168.722 113.202Z" fill="#B5A08B"/>
<path d="M112.492 83.2118V83.4518C112.612 83.3718 112.782 83.2818 112.492 83.2118Z" fill="#B5A08B"/>
<path d="M112.542 83.4518C112.542 83.4518 112.542 83.4518 112.542 83.5218V83.5818H112.622L112.542 83.4518Z" fill="#B5A08B"/>
<path d="M94.5722 105.042C95.8181 104.622 97.0313 104.11 98.2022 103.512C98.4614 103.34 98.6996 103.139 98.9122 102.912C96.2422 103.532 93.8222 104.152 91.3822 104.652C88.9422 105.152 86.2922 105.252 83.4922 106.022C83.7659 106.122 84.0467 106.203 84.3322 106.262C87.7877 106.378 91.2407 105.967 94.5722 105.042Z" fill="#B5A08B"/>
<path d="M91.8223 109.112C93.5223 108.792 95.2223 108.502 96.9123 108.112C98.2163 107.838 99.4599 107.33 100.582 106.612C100.812 106.462 101.192 106.382 101.002 105.802C98.0823 106.802 95.1823 107.692 92.2923 108.652C92.0823 108.782 91.9723 108.982 91.8223 109.112Z" fill="#B5A08B"/>
<path d="M106.472 115.932C105.072 116.802 103.932 117.552 102.762 118.232C101.592 118.912 100.332 119.592 99.1016 120.232C97.8716 120.872 96.7516 121.472 95.5616 122.062C94.3716 122.652 93.0416 123.252 91.7916 123.852C90.4346 124.371 89.1177 124.989 87.8516 125.702C94.2016 125.182 103.202 120.902 106.472 115.932Z" fill="#B5A08B"/>
<path d="M119.542 84.2018C117.742 87.3818 115.992 90.5918 114.132 93.7418C112.652 96.2618 111.062 98.7418 109.502 101.182C108.642 102.532 107.742 103.842 106.882 105.182C106.732 105.412 106.402 105.672 106.802 106.052C107.789 105.376 108.663 104.55 109.392 103.602C110.642 101.972 111.892 100.332 113.012 98.6018C116.031 93.7477 118.582 88.618 120.632 83.2818C120.696 83.0298 120.733 82.7717 120.742 82.5118C120.237 82.9929 119.83 83.5667 119.542 84.2018Z" fill="#B5A08B"/>
<path d="M127.582 106.872C127.962 106.522 128.282 106.112 128.872 105.472C128.352 105.572 128.282 105.562 128.232 105.602C127.062 106.462 125.902 107.362 124.712 108.202C121.142 110.732 117.542 113.202 113.962 115.762C113.911 115.802 113.87 115.853 113.842 115.912C113.842 115.912 113.842 116.002 113.842 116.102C115.777 115.65 117.608 114.828 119.232 113.682C122.152 111.585 124.941 109.311 127.582 106.872Z" fill="#B5A08B"/>
<path d="M95.2016 64.7218C95.7306 62.2486 96.022 59.7304 96.0716 57.2018C96.0568 56.8659 96.0167 56.5316 95.9516 56.2018C95.7481 56.4104 95.6212 56.6818 95.5916 56.9718C94.3081 64.7807 92.1651 72.4238 89.2016 79.7618C89.1016 80.0018 89.0216 80.2318 88.9316 80.4718C89.3939 79.8445 89.8179 79.19 90.2016 78.5118C92.5574 74.195 94.2433 69.5452 95.2016 64.7218Z" fill="#B5A08B"/>
<path d="M88.792 80.6418V80.6918C88.792 80.6218 88.842 80.5518 88.872 80.4718L88.792 80.6418Z" fill="#B5A08B"/>
</svg>
