<svg width="190" height="191" viewBox="0 0 190 191" fill="none" xmlns="http://www.w3.org/2000/svg">
<path d="M179.502 110.852C178.891 106.847 177.9 102.909 176.541 99.0925C173.199 89.3958 169.356 79.879 165.027 70.5807C163.188 66.5611 161.221 62.6163 159.265 58.6501C158.709 57.5062 158.035 56.405 157.373 55.3039C157.071 54.8208 156.712 54.3758 156.304 53.9783C156.172 53.8381 156.004 53.7361 155.819 53.6832C155.634 53.6302 155.438 53.6283 155.252 53.6776C155.065 53.7269 154.896 53.8255 154.761 53.9631C154.627 54.1007 154.532 54.2722 154.486 54.4593C154.364 55.0587 154.285 55.6661 154.251 56.2767C154.048 57.9765 153.941 59.6977 153.642 61.3762C152.744 66.4221 151.824 71.4681 150.798 76.4819C149.824 81.5889 148.393 86.598 146.522 91.4487C145.526 94.0451 144.257 96.5285 142.737 98.8573C141.813 100.298 140.686 101.598 139.391 102.717C138.592 103.438 137.631 103.959 136.59 104.235C136.37 104.311 136.136 104.339 135.904 104.318C135.672 104.296 135.447 104.226 135.245 104.11C135.042 103.995 134.867 103.837 134.73 103.649C134.593 103.46 134.499 103.244 134.452 103.016C134.146 102.064 134.073 101.052 134.238 100.065C134.57 97.7268 135.292 95.4608 136.376 93.3624C138.065 89.9948 139.84 86.6594 141.604 83.3239C143.368 79.9884 145.271 76.5568 147.024 73.1358C148.7 69.9092 150.022 66.5114 150.969 63.0011C152.021 59.361 152.301 55.5414 151.792 51.7867C151.059 47.1872 149.093 42.8723 146.105 39.3001C144.381 37.2279 142.454 35.3333 140.353 33.6448C135.224 29.5471 129.555 26.1763 123.505 23.6277C122.977 23.4137 122.438 23.2282 121.891 23.0718C121.624 22.9797 121.348 22.9187 121.067 22.8901C120.802 22.8368 120.528 22.85 120.27 22.9285C120.011 23.0071 119.776 23.1485 119.585 23.3402C119.394 23.5319 119.254 23.7679 119.177 24.027C119.1 24.2861 119.088 24.5603 119.143 24.8251C119.302 25.6618 119.561 26.4765 119.913 27.2518C121.184 30.2719 122.103 33.4287 122.65 36.6595C123.013 38.9153 123.355 41.171 123.58 43.4374C124.289 50.3254 123.928 57.2817 122.511 64.0595C121.762 67.7684 120.434 71.3364 118.577 74.6325C117.616 76.382 116.386 77.9694 114.931 79.3363C114.058 80.186 113.001 80.8226 111.841 81.1965C111.225 81.401 110.559 81.3943 109.947 81.1775C109.335 80.9606 108.813 80.546 108.463 79.9991C107.9 79.1671 107.568 78.2005 107.501 77.1982C107.317 75.5676 107.396 73.918 107.736 72.3126C108.271 70.1745 108.805 68.0364 109.479 65.8983C110.815 62.0603 112.312 58.2866 113.755 54.4914C115.768 49.4603 117.202 44.2168 118.031 38.8618C118.668 34.7661 118.581 30.5905 117.775 26.5249C116.513 20.613 113.167 16.5078 107.319 14.6583C105.691 14.1372 104.035 13.7053 102.359 13.3648C97.7334 12.503 93.0542 11.9601 88.3543 11.7398C85.9489 11.5901 83.5114 11.6222 81.0954 11.6329C80.3145 11.6323 79.5373 11.7402 78.7862 11.9536C78.4654 12.0054 78.1581 12.1203 77.8819 12.2917C77.6058 12.463 77.3664 12.6874 77.1775 12.9518C76.9886 13.2163 76.854 13.5155 76.7815 13.8323C76.709 14.149 76.7 14.477 76.755 14.7973C76.8092 15.5049 76.9565 16.2023 77.1933 16.8713C77.6637 18.2183 78.1875 19.5439 78.7328 20.8589C80.9998 26.322 82.8684 31.9421 84.3239 37.6751C85.2312 40.9715 85.7902 44.354 85.9917 47.7671C86.1087 49.6935 85.9064 51.626 85.393 53.4865C85.0938 54.5218 84.5638 55.4758 83.8429 56.2767C82.4317 57.8055 81.1702 57.752 79.9836 56.0843C79.6553 55.6185 79.3894 55.1117 79.1924 54.5769C78.8513 53.7946 78.5967 52.9772 78.4334 52.1395C78.0913 50.0014 77.7492 47.9167 77.6102 45.7893C77.4392 43.3091 77.5033 40.8075 77.4285 38.3059C77.4143 34.173 77.1752 30.0439 76.7122 25.9369C76.3368 22.903 75.4437 19.956 74.0717 17.2241C73.1631 15.4378 71.8817 13.8673 70.314 12.6187C68.7464 11.3701 66.929 10.4725 64.9847 9.98656C62.7785 9.40685 60.4951 9.17599 58.2175 9.30236C55.7908 9.43065 53.3747 9.62308 50.9586 9.78344C47.8335 9.98627 44.6954 9.80315 41.6151 9.23822C39.0967 8.72442 36.6564 7.88342 34.3562 6.73663C33.7273 6.4237 33.0634 6.18684 32.3784 6.03105C32.2015 5.98958 32.0175 5.98965 31.8406 6.03127C31.6638 6.07289 31.499 6.15491 31.3591 6.27092C31.2193 6.38692 31.1083 6.53374 31.0347 6.69986C30.9612 6.86599 30.9271 7.04689 30.9352 7.22839C30.9473 8.00921 31.0404 8.78667 31.2132 9.54825C32.2952 14.4428 32.1519 19.5288 30.7962 24.3547C30.0156 27.2465 28.862 30.0244 27.3645 32.6185C25.5685 35.7722 23.6977 38.8939 21.891 42.0476C20.3804 44.6287 19.0894 47.3323 18.0317 50.1297C16.9254 52.9279 16.3525 55.9084 16.3426 58.9173C16.3155 61.3969 16.8689 63.8485 17.9586 66.076C19.0482 68.3036 20.6438 70.2453 22.6179 71.746C25.0402 73.6362 27.8233 75.0114 30.7962 75.7871C34.191 76.6349 37.6935 76.97 41.1875 76.7813C45.3461 76.5888 49.4833 75.9367 53.5351 75.5198C57.5222 75.0657 61.5519 75.1412 65.5192 75.7443C67.7733 76.0829 69.9469 76.8291 71.9335 77.9465C73.0706 78.5525 74.0401 79.4303 74.7559 80.5016C75.2317 81.1359 75.4556 81.9239 75.3846 82.7136C75.3135 83.5033 74.9524 84.2387 74.371 84.7778C73.8269 85.3511 73.1955 85.8346 72.5001 86.2104C71.3759 86.8241 70.2074 87.3529 69.0043 87.7926C66.4435 88.6741 63.7821 89.2308 61.0826 89.4496C53.6072 90.1726 46.0646 89.2156 39.0066 86.6487C33.3841 84.5833 28.0292 81.852 23.0562 78.5132C20.8005 77.0165 18.5983 75.4449 16.3426 73.9162C15.5964 73.3791 14.8102 72.9002 13.9906 72.4837C12.3657 71.7246 11.1897 72.4837 11.0187 74.2583C10.9768 74.9721 11.0054 75.6883 11.1042 76.3964C11.7452 81.5 12.684 86.5617 13.9158 91.5556C15.0096 96.2609 16.5711 100.845 18.5769 105.24C20.2772 109.267 23.0415 112.756 26.5734 115.331C26.8144 115.484 27.0157 115.691 27.1607 115.936C27.3057 116.182 27.3903 116.458 27.4073 116.743C27.4073 117.17 27.5035 117.587 27.5249 118.015C27.7251 121.218 28.2008 124.397 28.9467 127.519C29.6872 131.156 31.0084 134.65 32.8595 137.867C34.6585 141.051 37.2606 143.707 40.4062 145.572C43.5519 147.436 47.1312 148.444 50.7876 148.494C53.7825 148.601 56.78 148.375 59.7249 147.82C65.1809 146.755 70.5595 145.326 75.8249 143.544C80.2713 142.016 84.7963 140.728 89.3806 139.685C91.3173 139.207 93.3088 138.987 95.3031 139.032C96.0102 139.069 96.7085 139.206 97.3771 139.439C97.5744 139.476 97.7587 139.564 97.9121 139.693C98.0655 139.823 98.1829 139.99 98.2528 140.178C98.3227 140.366 98.3428 140.569 98.3111 140.768C98.2795 140.966 98.1971 141.153 98.072 141.31C97.6016 142.02 97.0411 142.667 96.4043 143.234C94.877 144.52 93.1698 145.575 91.3369 146.366C88.5307 147.637 85.6143 148.65 82.6241 149.392C77.9208 150.561 73.1297 151.344 68.2988 151.733C63.8266 152.143 59.3281 152.178 54.85 151.84C53.2144 151.722 51.6428 151.434 49.9644 151.263C49.0463 151.145 48.1211 151.092 47.1956 151.102C45.0574 151.166 44.2663 152.438 45.1643 154.406C45.685 155.497 46.304 156.538 47.0138 157.516C50.9023 163.073 55.5232 168.078 60.7512 172.398C66.1839 176.922 72.3528 180.48 78.9893 182.917C90.1115 187.118 102.4 187.023 113.456 182.65C131.042 175.894 136.526 158.596 134.965 146.922C134.869 146.238 134.869 145.532 134.816 144.56C135.692 144.795 136.237 144.912 136.772 145.094C139.278 145.915 141.849 146.519 144.458 146.901C150.991 148.012 157.705 146.668 163.306 143.127C167.999 140.236 171.982 136.327 174.959 131.688C178.98 125.536 180.597 118.12 179.502 110.852ZM112.921 180.694C102.486 184.864 90.8815 185.055 80.315 181.228C72.1685 178.308 64.735 173.691 58.5062 167.683C54.7713 164.158 51.4142 160.252 48.4891 156.03C47.8096 155.247 47.3356 154.306 47.11 153.294C47.4595 153.203 47.8182 153.153 48.1791 153.144C49.8041 153.294 51.3863 153.443 53.0647 153.657C57.457 154.179 61.8898 154.268 66.2996 153.924C71.3391 153.627 76.3452 152.912 81.2664 151.786C84.8164 151.01 88.2823 149.889 91.6149 148.44C93.458 147.669 95.1994 146.675 96.7998 145.479C97.7593 144.744 98.6278 143.897 99.3869 142.956C101.204 140.551 100.381 138.199 97.5161 137.322C95.7668 136.885 93.9444 136.827 92.1708 137.151C88.8534 137.61 85.581 138.351 82.3889 139.364C77.963 140.7 73.5478 142.101 69.1219 143.437C65.1706 144.659 61.1272 145.56 57.0309 146.131C53.7177 146.652 50.3393 146.594 47.0459 145.96C42.9756 145.141 39.3084 142.953 36.6547 139.759C34.9597 137.736 33.6188 135.441 32.6885 132.971C31.0239 128.503 29.9877 123.826 29.6096 119.073C29.5828 118.646 29.5828 118.218 29.6096 117.79C29.6096 117.662 29.7165 117.544 29.8234 117.341C30.1564 117.375 30.4856 117.44 30.8069 117.534C35.5612 119.063 40.4965 119.958 45.4851 120.196C51.2448 120.658 57.0386 120.45 62.7503 119.576C63.5259 119.489 64.3106 119.536 65.0702 119.715C69.7684 120.575 74.5338 121.015 79.31 121.03C82.8037 121.09 86.2902 120.691 89.6799 119.843C90.9867 119.489 92.2574 119.013 93.4751 118.421C94.2378 118.015 94.9105 117.458 95.4528 116.785C95.656 116.555 95.8072 116.284 95.8961 115.99C95.9849 115.696 96.0094 115.386 95.9678 115.081C95.9262 114.777 95.8195 114.485 95.655 114.226C95.4905 113.967 95.2721 113.746 95.0145 113.578C94.301 113.114 93.5069 112.788 92.6733 112.616C90.9944 112.286 89.276 112.207 87.5739 112.381C82.8817 112.874 78.2351 113.732 73.6761 114.947C70.2872 115.759 66.8876 116.582 63.4773 117.299C59.9228 117.981 56.3097 118.31 52.6905 118.282C46.6294 118.42 40.5747 117.802 34.6662 116.443C33.5971 116.187 32.6029 115.887 31.598 115.535C28.6089 114.521 25.9767 112.665 24.0184 110.189C22.3408 108.093 20.9529 105.781 19.8918 103.315C18.0339 98.8984 16.5812 94.3218 15.5515 89.642C14.5252 85.3337 13.7661 80.9934 13.1354 76.5888C13.1354 75.9902 13.1354 75.3487 13.0392 74.5469C13.4075 74.6245 13.7661 74.7428 14.1082 74.8997C15.0704 75.5091 16.0112 76.1612 16.9412 76.824C20.5845 79.4708 24.3868 81.8915 28.3267 84.0722C34.1787 87.349 40.5215 89.6594 47.11 90.9142C54.0005 92.2173 61.092 92.0058 67.8925 90.2942C69.7605 89.8196 71.5578 89.1007 73.2378 88.156C74.3093 87.5794 75.2687 86.8154 76.0708 85.9003C76.7917 85.0702 77.235 84.0354 77.3385 82.9408C77.442 81.8462 77.2006 80.7466 76.6481 79.796C75.8118 78.3749 74.6127 77.2016 73.1737 76.3964C70.8263 74.9993 68.2242 74.0835 65.5192 73.7024C61.5663 73.1342 57.5569 73.0731 53.5885 73.5206C49.3123 73.9269 44.9612 74.5897 40.6102 74.7287C37.3995 74.85 34.1888 74.4897 31.0849 73.6596C28.676 73.0019 26.4054 71.9155 24.3819 70.4524C22.3918 69.0616 20.7949 67.1802 19.746 64.9906C18.6971 62.801 18.2318 60.3775 18.3952 57.9552C18.4779 55.3783 19.0436 52.8399 20.0629 50.4718C21.1319 47.9916 22.2972 45.5434 23.5908 43.1701C25.2264 40.1661 27.0331 37.2582 28.7436 34.2969C30.2186 31.7829 31.4158 29.116 32.3143 26.3431C33.5656 22.3893 34.1049 18.2448 33.9072 14.1024C33.9072 13.6107 33.9072 13.1082 33.9072 12.6164C33.9072 12.6164 33.9927 12.5202 34.0355 12.4775C34.0782 12.4347 34.1744 12.4133 34.2386 12.4775C34.3036 12.5034 34.3594 12.548 34.3989 12.6058C43.069 24.7823 53.1181 35.9647 62.7717 47.3287C62.8427 47.4574 62.8864 47.5994 62.9 47.7457C62.6862 48.1626 62.2906 48.0129 61.9913 47.9381C59.6394 47.3715 57.2554 46.869 54.9676 46.1421C48.1778 43.9498 41.6718 40.9605 35.5856 37.2368C35.2221 37.0123 34.8373 36.8199 34.4631 36.6275C34.4631 36.6275 34.3348 36.6275 34.121 36.7344C34.2463 36.9577 34.3969 37.1657 34.57 37.3544C36.0009 38.6339 37.5074 39.8263 39.0814 40.9251C41.722 42.6035 44.4267 44.1323 47.2276 45.6076C52.1779 48.1655 57.6931 49.434 63.2635 49.2958C63.5521 49.2958 63.8408 49.2958 64.1187 49.2958C64.1887 49.3143 64.2567 49.3393 64.3219 49.3706C66.1606 51.213 67.8082 53.2367 69.2395 55.4108C67.5718 55.5284 66.0324 54.7801 64.108 54.919C64.5114 55.1812 64.9414 55.3998 65.3909 55.5712C66.5776 55.7636 67.7856 55.9133 68.983 56.0095C69.3015 56.0071 69.6166 56.0759 69.9051 56.211C70.1937 56.346 70.4484 56.5438 70.6507 56.7899L77.9416 66.0159C78.0611 66.2358 78.1544 66.4691 78.2196 66.7107C77.0913 66.8543 75.9456 66.767 74.8521 66.4542C73.644 66.3259 72.4467 66.1548 71.2494 66.0052L67.8497 65.5882L64.108 65.1285C65.5519 66.1897 67.2324 66.8831 69.0043 67.1491C70.7397 67.5464 72.5009 67.8215 74.2748 67.9722C75.9639 68.1112 77.6851 67.9722 79.4918 67.9722C80.2936 69.0413 81.1168 70.1103 81.9079 71.1794C82.0137 71.3952 82.0858 71.626 82.1217 71.8636C80.4112 72.1736 78.8397 71.6177 77.2468 71.4681C75.6539 71.3184 74.0396 70.9977 72.1687 70.709C72.4029 70.9539 72.6568 71.1792 72.9278 71.3825C74.3606 72.1927 75.9495 72.6883 77.5889 72.8364L80.9992 73.0182L83.2335 73.093C85.6344 75.8252 87.7613 78.7865 89.5837 81.9341C88.7706 82.119 87.9365 82.1945 87.1035 82.1586C86.237 82.1411 85.3747 82.2824 84.5591 82.5756C85.4244 83.1718 86.4766 83.4339 87.5204 83.3132C88.5146 83.2384 89.4875 83.0566 90.4924 82.9177C91.2213 83.475 91.7471 84.2562 91.9891 85.1413C89.851 85.1413 87.777 85.1413 85.7351 85.1413C83.6885 85.0558 81.6386 85.1884 79.6201 85.5369C79.9188 85.6833 80.2349 85.7911 80.5608 85.8576C82.3996 86.0607 84.2384 86.2638 86.0879 86.4135C88.1606 86.7313 90.2802 86.3555 92.1174 85.3444C92.4312 85.5382 92.7187 85.7718 92.9726 86.0393C95.4813 89.5031 97.9758 92.9704 100.456 96.4412C100.535 96.6137 100.599 96.7925 100.648 96.9758C100.26 97.2212 99.8521 97.4357 99.4297 97.6172C93.9191 99.5602 88.2339 100.967 82.4531 101.819C78.1641 102.532 73.8315 102.954 69.4854 103.08C61.7837 103.157 54.1034 102.256 46.629 100.397C40.9256 99.1267 35.3504 97.3375 29.973 95.0515C29.5347 94.8483 29.1392 94.5704 28.7222 94.3245C28.7864 94.5811 28.7222 94.9339 28.9361 95.0622C29.3821 95.416 29.8578 95.7307 30.3579 96.0029C32.8798 97.4763 35.5228 98.7316 38.2582 99.7553C43.5252 101.771 48.9591 103.32 54.4972 104.384C60.7456 105.504 67.1091 105.842 73.4409 105.389C79.7015 105 85.8855 103.803 91.8394 101.829C94.5334 100.921 97.1312 99.7553 99.7825 98.697C100.296 98.4831 100.852 98.248 101.407 97.9807C101.792 98.4511 102.166 98.8573 102.477 99.3063C102.787 99.7553 103.107 100.236 103.546 100.824C103.25 101.11 102.919 101.358 102.562 101.562C99.7825 102.631 97.0243 103.839 94.2127 104.833C91.7325 105.71 89.1881 106.383 86.6652 107.153C86.3444 107.249 86.0451 107.41 85.3716 107.688C87.7002 107.849 90.0398 107.705 92.3312 107.26C94.4502 106.929 96.4989 106.246 98.3927 105.24C100.317 104.171 102.134 102.962 104.048 101.797C104.223 101.884 104.382 102 104.518 102.139C108.153 107.239 111.777 112.349 115.466 117.534C115.213 117.892 114.931 118.228 114.621 118.539C105.721 125.886 94.9037 130.534 83.4473 131.934C77.2154 132.654 70.9228 132.679 64.6853 132.009C59.7906 131.583 54.932 130.811 50.1462 129.7C48.8419 129.39 47.5804 128.941 46.2975 128.556C46.3938 128.802 46.4151 129.154 46.5862 129.261C47.1495 129.565 47.7315 129.833 48.3288 130.063C52.1285 131.532 56.0691 132.607 60.0884 133.27C66.3785 134.549 72.8007 135.059 79.2138 134.788C89.1508 134.282 98.8264 131.428 107.448 126.46C110.499 124.744 113.183 122.445 115.348 119.693C115.607 119.39 115.882 119.101 116.171 118.827C117.685 120.643 119.071 122.561 120.319 124.568C121.623 126.418 122.917 128.288 124.125 130.341L118.673 134.97C116.898 136.467 114.995 137.814 113.082 139.738C114.39 139.529 115.631 139.016 116.706 138.241C117.684 137.661 118.626 137.022 119.528 136.328C120.451 135.56 121.336 134.746 122.179 133.89C122.992 133.11 123.74 132.265 124.595 131.367C125.295 132.017 125.871 132.789 126.295 133.644C126.167 134.5 125.504 134.991 125.023 135.579C117.101 145.218 106.684 152.496 94.9076 156.618C89.3429 158.618 83.5908 160.05 77.7385 160.895C74.7131 161.354 71.6449 161.536 68.5981 161.846C67.7411 161.802 66.89 162.011 66.1499 162.445C70.783 162.778 75.4375 162.66 80.0477 162.092C85.3617 161.481 90.6035 160.353 95.6987 158.725C105.146 155.619 113.758 150.393 120.875 143.448C123.102 141.329 124.95 138.845 126.338 136.103C126.505 135.793 126.691 135.493 126.894 135.205C127.963 136.028 128.775 137.183 130.507 140.358C129.852 143.449 128.773 146.435 127.3 149.231C125.182 153.278 122.564 157.042 119.507 160.435C116.377 164.113 112.983 167.558 109.351 170.741C109.147 170.914 109.002 171.145 108.934 171.404C111.866 170.155 114.574 168.436 116.952 166.315C119.406 164.247 121.641 161.933 123.622 159.409C125.547 156.93 127.176 154.236 128.476 151.38C129.753 148.474 130.71 145.438 131.33 142.325C132.057 142.325 132.154 142.763 132.271 143.116C132.795 144.898 133.104 146.735 133.191 148.59C133.939 160.36 127.974 174.867 112.921 180.694ZM70.2658 118.186C70.5138 117.995 70.7873 117.841 71.0783 117.726C75.4507 116.743 79.8018 115.684 84.2063 114.84C86.2422 114.513 88.3024 114.363 90.3641 114.391C90.9921 114.323 91.6274 114.383 92.2317 114.567C92.8361 114.75 93.3972 115.054 93.8813 115.46C93.5883 115.874 93.2267 116.236 92.8122 116.529C91.801 117.044 90.7499 117.476 89.6692 117.822C86.9138 118.55 84.0832 118.955 81.2343 119.03C77.8147 119.134 74.3919 118.991 70.9928 118.603C70.739 118.485 70.4957 118.345 70.2658 118.186ZM173.601 130.106C170.736 134.728 166.83 138.616 162.194 141.459C156.941 144.744 150.654 145.959 144.555 144.87C141.885 144.422 139.251 143.779 136.676 142.945C136.022 142.784 135.41 142.486 134.879 142.072C134.349 141.657 133.912 141.135 133.597 140.54C132.923 139.225 132.068 137.996 131.181 136.542C131.503 136.496 131.831 136.496 132.154 136.542C139.295 138.755 146.254 137.707 153.075 135.205C157.145 133.638 160.991 131.543 164.514 128.973C165.765 128.144 166.867 127.11 167.775 125.915C167.08 125.701 166.705 126.182 166.374 126.439C160.229 130.482 153.349 133.279 146.126 134.671C141.483 135.459 136.755 135.625 132.068 135.163H131.64C130.976 135.155 130.335 134.913 129.832 134.479C129.329 134.044 128.997 133.446 128.893 132.789C129.31 132.18 129.844 132.34 130.315 132.287C131.801 132.137 133.308 132.094 134.773 131.827C135.729 131.563 136.656 131.205 137.542 130.758C137.702 130.694 137.777 130.448 137.969 130.17C134.495 130.084 131.288 131.239 127.877 131.464C126.113 128.855 124.36 126.289 122.532 123.51C123.099 123.328 123.462 123.178 123.847 123.082C126.839 122.392 129.68 121.16 132.228 119.447C143.947 111.876 152.646 100.443 156.817 87.1298C157.379 85.3407 157.738 83.4937 157.886 81.6241C157.458 82.4473 157.223 82.8321 157.052 83.2277C154.351 89.7505 150.953 95.9622 146.917 101.754C141.3 109.973 133.748 116.684 124.927 121.297C124.168 121.692 123.387 122.045 122.607 122.366C122.383 122.425 122.154 122.46 121.923 122.473C121.715 122.301 121.522 122.111 121.345 121.906C119.303 118.988 117.262 116.069 115.252 113.129C115.017 112.646 114.831 112.141 114.696 111.622C113.627 111.173 113.327 110.125 112.643 109.206C112.941 108.903 113.259 108.621 113.595 108.361C116.702 106.196 119.414 103.513 121.613 100.429C128.404 91.151 133.351 80.6552 136.184 69.5117C137.243 65.4444 137.905 61.2842 138.162 57.0892C138.196 56.7157 138.11 56.3411 137.916 56.0202C137.783 56.2353 137.676 56.4649 137.595 56.7044C135.547 64.8464 132.969 72.8458 129.876 80.6513C126.083 89.9747 120.765 98.6021 114.14 106.18C113.541 106.875 112.9 107.538 112.173 108.318C111.891 108.097 111.626 107.854 111.382 107.592L100.199 91.8977C100.082 91.7267 100.007 91.5236 99.8573 91.2563C100.373 90.2646 101.017 89.3445 101.771 88.5195C102.827 87.1717 103.559 85.5987 103.909 83.9226C103.909 83.805 103.909 83.666 103.781 83.388C101.985 85.5262 101.001 88.0598 99.3656 90.3369C98.521 89.8772 98.2003 89.0861 97.6658 88.3592C97.901 87.9209 98.0934 87.4825 98.35 87.0763C99.0662 85.9217 99.8146 84.7885 100.488 83.6446C101.507 81.9672 102.119 80.0742 102.273 78.1176C101.994 78.3897 101.74 78.6867 101.514 79.0049C100.445 81.143 99.28 83.2811 98.1575 85.4193C97.8368 86.0393 97.484 86.6487 97.0885 87.2901C95.1142 85.0638 93.3264 82.6789 91.7432 80.1595C91.8531 79.9181 91.9817 79.6858 92.128 79.4646C94.4358 76.6465 96.1683 73.403 97.2275 69.9179C100.166 61.0443 101.512 51.7213 101.204 42.379C101.098 37.3864 100.317 32.4311 98.8845 27.6474C98.6689 26.8889 98.3056 26.1804 97.8154 25.5627L97.9437 26.7066C98.211 29.1761 98.5745 31.6457 98.7348 34.19C99.1447 40.3772 99.0518 46.5874 98.4569 52.7595C97.7785 59.6237 96.1932 66.3676 93.7423 72.8151C93.1116 74.4721 92.4915 76.1398 91.8287 77.7969C91.6359 78.24 91.4182 78.6719 91.1766 79.0904C90.9598 78.9616 90.7619 78.8033 90.5886 78.6201C89.3913 77.0272 88.2153 75.4129 87.0286 73.8307C87.2566 73.0621 87.6802 72.3658 88.2581 71.8102C90.8025 68.4499 92.6225 64.5987 93.6033 60.4995C94.1297 58.2825 94.3916 56.011 94.3838 53.7324C94.346 53.3231 94.2853 52.9162 94.202 52.5137C92.2875 59.5298 89.7213 66.3515 86.5369 72.8899C85.4023 71.8043 84.443 70.5493 83.6932 69.1696C83.6932 69.1054 83.7894 68.9451 83.8429 68.8382C83.2021 68.5479 82.6517 68.0899 82.25 67.5125C77.8383 61.9321 73.3982 56.3623 68.9295 50.8032C68.6115 50.478 68.3885 50.072 68.2849 49.6291C68.1812 49.1862 68.2008 48.7234 68.3415 48.2909C69.1894 45.1968 69.6737 42.0145 69.7847 38.8083C69.9186 35.9759 69.645 33.1389 68.9723 30.3842C68.4484 31.4532 68.7371 32.3726 68.6088 33.2706C68.4805 34.1686 68.4591 35.2591 68.3843 36.2533C68.3094 37.2475 68.2667 38.2524 68.1918 39.2467C68.117 40.2409 68.0101 41.2244 67.9353 42.2186C67.8604 43.2129 67.8497 44.2178 67.7428 45.212C67.6359 46.2062 67.4649 47.1577 67.2938 48.3016C67.0104 48.1852 66.7442 48.0305 66.5027 47.8419C64.696 45.7038 62.9107 43.5657 61.1574 41.4275C61.0662 41.2668 60.9979 41.0941 60.9543 40.9144C61.0185 40.6792 61.0933 40.3371 61.2109 40.0057C62.0113 37.8624 62.3572 35.5761 62.2265 33.292C62.04 29.245 61.262 25.2471 59.9173 21.4255C59.7784 21.0192 59.7891 20.4313 59.1797 20.3564C59.3614 24.5364 59.5539 28.7164 59.7249 32.8965C59.7891 34.5321 59.8104 36.1678 59.8318 37.8141C59.8318 38.2952 59.757 38.7763 59.7035 39.4605C59.4201 39.3533 59.1536 39.2056 58.9124 39.0222C50.6379 29.5075 41.8075 20.4526 34.1851 10.4035C33.843 9.95449 33.5437 9.47341 33.0412 8.73576C33.5198 8.80812 33.9917 8.91894 34.4524 9.06717C36.7797 10.1499 39.2377 10.9261 41.7647 11.3763C44.4368 11.8319 47.1487 12.011 49.8575 11.9109C52.3484 11.7826 54.8286 11.5901 57.3409 11.4191C59.8296 11.202 62.337 11.4227 64.7495 12.0712C66.3738 12.5063 67.8878 13.2797 69.1922 14.341C70.4966 15.4022 71.562 16.7272 72.3184 18.229C73.2024 19.8595 73.8332 21.6151 74.1893 23.4353C74.6263 25.6706 74.9262 27.9305 75.0873 30.2024C75.3225 34.6176 75.3973 39.0329 75.4828 43.4481C75.4997 46.4428 75.8076 49.4288 76.4022 52.364C76.6113 53.3878 76.9045 54.3925 77.2788 55.3681C77.6019 56.1605 78.0259 56.9079 78.5403 57.5917C80.347 59.9543 82.8166 60.0933 84.9547 58.03C85.7929 57.2352 86.4556 56.2738 86.9004 55.2077C87.4518 53.8952 87.784 52.5012 87.8839 51.0811C88.1286 47.1615 87.768 43.2276 86.8148 39.4177C85.2257 32.6909 83.0802 26.1077 80.4005 19.7364C80.0263 18.8063 79.6521 17.8869 79.3314 16.9568C79.1464 16.4948 78.9963 16.0195 78.8824 15.535C78.6258 14.3697 78.8824 13.8993 80.0691 13.771C80.989 13.6785 81.9135 13.6392 82.8379 13.6534C84.7622 13.6534 86.6865 13.6534 88.6108 13.8138C93.2277 14.0383 97.8223 14.5956 102.359 15.4815C104.238 15.8843 106.085 16.4238 107.886 17.0958C109.636 17.737 111.21 18.7817 112.48 20.145C113.751 21.5084 114.682 23.1521 115.198 24.9427C116.208 28.1577 116.604 31.5342 116.364 34.8956C116.086 39.4524 115.209 43.9528 113.755 48.2802C112.558 51.8509 111.157 55.3574 109.885 58.9173C108.741 62.1245 107.587 65.3317 106.55 68.603C105.685 71.173 105.297 73.8794 105.406 76.5888C105.443 77.8721 105.741 79.1344 106.282 80.2985C106.536 80.9106 106.908 81.4664 107.378 81.9341C107.847 82.4017 108.405 82.7719 109.018 83.0233C109.631 83.2747 110.287 83.4023 110.95 83.3989C111.613 83.3954 112.268 83.2609 112.878 83.0032C114.28 82.4641 115.549 81.6291 116.599 80.555C118.275 78.9003 119.676 76.9873 120.747 74.889C122.892 70.8496 124.338 66.4759 125.023 61.9534C126.509 52.7831 126.252 43.4146 124.264 34.3397C123.749 31.9707 123.033 29.6497 122.126 27.4015C121.88 26.8135 121.677 26.2149 121.388 25.4344C121.744 25.4138 122.101 25.4138 122.457 25.4344C122.664 25.4832 122.862 25.5625 123.045 25.6696C128.801 28.1375 134.195 31.3741 139.081 35.2912C141.495 37.212 143.651 39.4361 145.495 41.9086C148.884 46.3931 150.467 51.9857 149.932 57.581C149.623 60.4273 148.951 63.2224 147.933 65.8983C146.635 69.4435 145.062 72.8821 143.229 76.1826C141.273 79.8174 139.231 83.4094 137.296 87.0656C136.066 89.3962 134.922 91.7695 133.832 94.1642C132.867 96.1729 132.311 98.3532 132.196 100.578C132.14 101.713 132.262 102.85 132.56 103.946C132.682 104.396 132.892 104.818 133.18 105.185C133.467 105.553 133.825 105.859 134.232 106.087C134.64 106.314 135.088 106.457 135.552 106.508C136.016 106.559 136.485 106.517 136.932 106.383C138.254 106.067 139.482 105.441 140.514 104.555C141.943 103.369 143.189 101.979 144.213 100.429C145.793 98.0577 147.123 95.5282 148.179 92.8813C150.01 88.3047 151.406 83.5656 152.348 78.727C153.545 72.9434 154.582 67.1277 155.673 61.3227C155.822 60.553 155.833 59.7619 155.961 58.9922C156.066 58.5736 156.209 58.1656 156.389 57.7734C156.881 58.6073 157.287 59.1739 157.576 59.8046C160.206 65.3317 162.921 70.848 165.391 76.4285C168.954 84.2741 172.109 92.2992 174.841 100.472C176.016 103.83 176.892 107.286 177.46 110.799C178.553 117.489 177.181 124.349 173.601 130.106Z" fill="#B5A08B"/>
<path d="M46.2768 128.556L45.7529 128.663V128.716L46.2768 128.556Z" fill="#B5A08B"/>
<path d="M28.7437 94.3566L28.2412 94.4421V94.5062L28.7544 94.3566H28.7437Z" fill="#B5A08B"/>
<path d="M58.2493 55.7102C57.0494 55.5329 55.8257 55.6094 54.6572 55.9347C52.7839 56.4098 50.8156 56.358 48.9698 55.785C47.9008 55.4643 46.8317 55.0473 45.7627 54.7159C44.952 54.4339 44.1133 54.2404 43.2611 54.1386C42.8874 54.0955 42.5088 54.1333 42.151 54.2496C41.7932 54.3658 41.4647 54.5578 41.1877 54.8124C40.9108 55.067 40.692 55.3783 40.5461 55.7251C40.4003 56.0719 40.3309 56.446 40.3426 56.822C40.2884 57.7466 40.4919 58.6681 40.9305 59.4839C41.6442 60.8045 42.6452 61.948 43.8598 62.8301C46.7171 64.9744 50.2087 66.1031 53.7806 66.0373C54.937 66.0216 56.0825 65.812 57.1695 65.4172C58.5375 64.9964 59.7598 64.2001 60.6974 63.1187C61.1335 62.6466 61.4677 62.0896 61.6792 61.4827C61.8907 60.8758 61.975 60.2318 61.9268 59.5908C61.846 58.6224 61.4378 57.7103 60.7693 57.0049C60.1008 56.2995 59.212 55.8429 58.2493 55.7102ZM59.4787 61.3655C58.8649 62.2556 57.9856 62.929 56.9664 63.2898C55.6996 63.7907 54.3388 64.0096 52.9788 63.9312C50.1666 63.9081 47.4384 62.97 45.2068 61.2586C44.3969 60.5848 43.6782 59.8086 43.0687 58.9494C42.7282 58.4116 42.5093 57.8059 42.4272 57.1748C42.3899 57.0346 42.3903 56.8872 42.4283 56.7472C42.4663 56.6073 42.5406 56.4799 42.6437 56.3779C42.7468 56.2759 42.875 56.203 43.0153 56.1664C43.1556 56.1299 43.3031 56.1311 43.4428 56.1699C44.1377 56.3195 44.8005 56.5654 45.4847 56.7792C46.6393 57.132 47.7725 57.5489 48.9485 57.8483C50.9504 58.3968 53.0595 58.4225 55.0742 57.9231C55.9675 57.6956 56.8938 57.6269 57.811 57.72C58.2262 57.7358 58.6289 57.8666 58.9743 58.0978C59.3196 58.329 59.594 58.6515 59.7669 59.0294C59.9397 59.4073 60.0043 59.8258 59.9535 60.2382C59.9026 60.6507 59.7382 61.0409 59.4787 61.3655Z" fill="#B5A08B"/>
<path d="M95.3133 125.391C95.8488 125.581 96.3996 125.724 96.9596 125.819C97.4544 125.792 97.947 125.734 98.4349 125.648C100.239 125.221 101.918 124.375 103.335 123.179C104.752 121.983 105.868 120.47 106.592 118.763C106.975 117.92 107.141 116.993 107.073 116.069C107.089 115.566 106.963 115.068 106.708 114.633C106.454 114.198 106.082 113.844 105.635 113.611C105.188 113.379 104.684 113.277 104.182 113.319C103.68 113.36 103.2 113.543 102.797 113.845C102.066 114.282 101.432 114.864 100.937 115.556C99.8535 117.051 98.4834 118.316 96.9062 119.276C96.3103 119.662 95.7488 120.098 95.2278 120.581C94.8117 120.963 94.4518 121.402 94.1587 121.885C93.9585 122.18 93.8287 122.517 93.7793 122.87C93.7299 123.223 93.7622 123.583 93.8737 123.922C93.9853 124.261 94.1731 124.569 94.4226 124.824C94.6722 125.079 94.9769 125.273 95.3133 125.391ZM96.3289 122.366C96.6005 122.038 96.9173 121.75 97.2696 121.511C97.7721 121.126 98.3387 120.752 98.8198 120.442C100.155 119.616 101.305 118.525 102.198 117.234C102.657 116.608 103.217 116.062 103.855 115.62C103.97 115.534 104.108 115.484 104.251 115.477C104.395 115.469 104.537 115.504 104.66 115.577C104.784 115.65 104.883 115.759 104.945 115.888C105.007 116.017 105.03 116.162 105.01 116.304C105.003 116.869 104.902 117.43 104.71 117.961C104.138 119.341 103.254 120.571 102.129 121.554C101.003 122.536 99.6659 123.246 98.2211 123.627C97.9191 123.696 97.6112 123.735 97.3017 123.745C97.0879 123.745 97.0131 123.745 96.9489 123.745C96.6496 123.617 96.2006 123.542 96.083 123.317C96.0515 123.15 96.0572 122.979 96.0997 122.814C96.1422 122.65 96.2204 122.497 96.3289 122.366Z" fill="#B5A08B"/>
<path d="M80.3576 97.0399C81.1337 97.1505 81.9153 97.2183 82.6989 97.243C84.3449 97.3109 85.9814 96.9616 87.4562 96.2274C88.8352 95.4791 89.9364 94.4421 89.8936 92.753C89.8367 92.0016 89.5586 91.2839 89.0944 90.6903C88.6302 90.0967 88.0006 89.6539 87.2851 89.4175C86.183 88.9098 84.989 88.6319 83.7759 88.6006C82.5629 88.5694 81.3562 88.7855 80.2293 89.2358C79.3567 89.5597 78.5857 90.1094 77.995 90.8287C77.5332 91.3772 77.2333 92.0435 77.1291 92.753C76.9946 93.7486 77.2582 94.7572 77.8626 95.5597C78.467 96.3623 79.3635 96.8941 80.3576 97.0399ZM79.9193 91.7694C80.2417 91.5008 80.6019 91.281 80.9884 91.1173C82.7122 90.4424 84.6323 90.4732 86.3337 91.2028C86.5345 91.3 86.7244 91.4183 86.9003 91.5556C88.0441 92.3253 88.119 93.3409 86.9965 94.1C86.3397 94.5205 85.6169 94.8277 84.8584 95.0087C84.153 95.1452 83.4382 95.2274 82.7202 95.2546C81.9398 95.1797 81.2984 95.1584 80.6783 95.0408C80.3232 94.9937 79.9907 94.8396 79.7253 94.599C79.4598 94.3584 79.2739 94.0426 79.1924 93.6937C79.1049 93.3371 79.1276 92.9623 79.2574 92.6188C79.3871 92.2753 79.6179 91.9792 79.9193 91.7694Z" fill="#B5A08B"/>
<path d="M107.714 135.547C110.536 135.142 113.297 134.392 115.935 133.313C117.861 132.574 119.578 131.378 120.938 129.828C119.927 130.102 118.94 130.459 117.988 130.897C116.919 131.26 115.85 131.603 114.781 131.966C113.712 132.329 112.749 132.607 111.723 132.885C110.697 133.163 109.51 133.431 108.398 133.709C107.286 133.987 106.335 134.232 105.287 134.468C104.24 134.703 103.053 134.917 101.941 135.162C100.802 135.237 99.6874 135.532 98.6592 136.028C99.1723 136.028 99.4182 136.103 99.7282 136.114C102.401 136.144 105.072 135.954 107.714 135.547Z" fill="#B5A08B"/>
<path d="M127.524 139.792C127.493 139.668 127.454 139.546 127.407 139.428C127.407 139.428 127.3 139.353 127.246 139.321C127.193 139.289 127.246 139.46 127.246 139.503C127.246 139.546 127.417 139.706 127.492 139.802L127.524 139.792Z" fill="#B5A08B"/>
<path d="M118.341 151.872C120.308 149.734 122.286 147.596 124.21 145.458C125.277 144.218 126.13 142.809 126.733 141.288C126.972 140.794 127.244 140.315 127.545 139.856L126.904 139.695C123.711 143.85 120.504 148.016 117.282 152.193C117.218 152.267 117.282 152.438 117.282 152.738C117.654 152.473 118.008 152.184 118.341 151.872Z" fill="#B5A08B"/>
<path d="M151.364 107.837C150.365 108.627 149.566 109.642 149.034 110.799C148.419 112.158 147.88 113.549 147.42 114.968C146.664 117.784 145.61 120.511 144.276 123.103C143.674 124.159 143.377 125.363 143.421 126.578C143.411 127.078 143.5 127.575 143.683 128.041C143.866 128.507 144.139 128.931 144.487 129.291C144.835 129.651 145.25 129.938 145.71 130.137C146.169 130.335 146.663 130.441 147.163 130.448C148.081 130.468 148.998 130.363 149.889 130.138C151.264 129.748 152.548 129.087 153.663 128.192C156.428 126.145 158.633 123.436 160.077 120.313C160.89 118.547 161.333 116.634 161.381 114.69C161.43 112.412 160.673 110.189 159.243 108.415C158.777 107.84 158.198 107.366 157.542 107.023C156.886 106.681 156.167 106.476 155.429 106.422C154.69 106.368 153.949 106.465 153.25 106.709C152.551 106.952 151.909 107.336 151.364 107.837ZM158.42 118.956C157.095 122.204 154.837 124.987 151.931 126.952C151.172 127.48 150.34 127.894 149.461 128.182C148.714 128.408 147.931 128.491 147.152 128.427C146.918 128.427 146.686 128.378 146.472 128.282C146.259 128.187 146.067 128.047 145.911 127.873C145.755 127.698 145.637 127.493 145.565 127.27C145.494 127.046 145.47 126.811 145.495 126.578C145.493 125.799 145.661 125.029 145.987 124.322C147.751 121.19 148.617 117.748 149.761 114.391C150.136 113.318 150.59 112.275 151.118 111.269C151.576 110.39 152.263 109.651 153.107 109.131C153.719 108.686 154.47 108.471 155.225 108.526C155.98 108.581 156.692 108.901 157.233 109.43C157.99 110.068 158.541 110.917 158.816 111.868C159.072 112.819 159.201 113.803 159.393 114.776C159.302 116.213 158.973 117.625 158.42 118.956Z" fill="#B5A08B"/>
<path d="M121.355 83.1422C120.603 83.2661 119.879 83.5232 119.217 83.9012C116.812 85.2803 114.417 86.6915 112.087 88.1774C111.094 88.8669 110.174 89.6549 109.339 90.5294C108.446 91.4016 107.798 92.4927 107.458 93.6938C106.474 96.9972 108.527 99.7981 112.514 99.7447C113.903 99.587 115.232 99.0914 116.384 98.3014C118.77 96.8067 120.758 94.7562 122.179 92.3254C123.258 90.7053 124.01 88.8893 124.392 86.9801C124.487 86.4946 124.52 85.9987 124.488 85.5048C124.483 85.126 124.392 84.7534 124.221 84.4154C124.05 84.0774 123.804 83.7831 123.501 83.555C123.199 83.3269 122.848 83.1711 122.476 83.0995C122.104 83.028 121.721 83.0426 121.355 83.1422ZM122.425 86.5952C122.356 87.014 122.248 87.4255 122.104 87.8247C120.934 91.2876 118.686 94.2848 115.689 96.3771C114.6 97.1938 113.287 97.6565 111.926 97.7028C111.503 97.7644 111.071 97.7125 110.674 97.5525C110.278 97.3924 109.93 97.1299 109.668 96.7918C109.406 96.4537 109.239 96.052 109.183 95.628C109.127 95.2039 109.185 94.7725 109.35 94.378C109.609 93.5704 110.019 92.8193 110.558 92.165C111.147 91.4575 111.818 90.8223 112.557 90.2728C114.962 88.5164 117.508 86.961 120.169 85.6224C120.358 85.5181 120.554 85.4288 120.757 85.3551C122.029 84.8954 122.617 85.3444 122.392 86.5952H122.425Z" fill="#B5A08B"/>
<path d="M89.3162 58.8959C90.3009 54.6837 90.8915 50.3889 91.0802 46.0672C91.0802 45.9496 90.9198 45.8107 90.7167 45.5434C90.1821 47.9595 89.7652 50.1938 89.1986 52.3854C87.8302 57.6024 86.7612 62.9263 83.9602 67.6622C83.8406 68.0236 83.7934 68.405 83.8213 68.7847C83.958 68.4904 84.1303 68.2139 84.3344 67.9615C86.7913 65.451 88.5142 62.3159 89.3162 58.8959Z" fill="#B5A08B"/>
<path d="M83.8008 68.8061V68.7099C83.8008 68.7099 83.8115 68.7954 83.8008 68.8061Z" fill="#B5A08B"/>
<path d="M116.213 111.055C118.196 109.785 119.922 108.153 121.302 106.245C123.802 102.614 125.981 98.7723 127.813 94.7628C127.902 94.4128 127.956 94.0546 127.973 93.6938C127.471 94.3245 127.203 94.6559 126.904 94.998C124.584 98.3228 122.275 101.669 119.944 104.983C118.357 107.32 116.603 109.538 114.695 111.622C115.255 111.632 115.797 111.429 116.213 111.055Z" fill="#B5A08B"/>
<path d="M132.721 125.455C136.22 122.85 139.203 119.616 141.519 115.919C136.655 119.875 132.015 124.13 126.873 127.786C128.984 127.501 130.993 126.701 132.721 125.455Z" fill="#B5A08B"/>
<path d="M99.0133 70.4097C98.126 74.6859 97.6342 79.0797 96.3086 83.2384C96.7362 83.3025 96.8966 82.9604 97.0569 82.6718C98.266 80.7163 99.0593 78.5329 99.3875 76.2574C99.7937 73.232 100.2 70.2065 100.553 67.1704C100.732 66.0387 100.71 64.8843 100.489 63.7601C99.9006 65.9838 99.473 68.2074 99.0133 70.4097Z" fill="#B5A08B"/>
<path d="M117.775 113.236C117.775 113.236 117.861 113.322 118.021 113.482C122.383 110.799 126.274 107.592 127.771 102.246L117.829 113.065C117.789 113.113 117.77 113.174 117.775 113.236Z" fill="#B5A08B"/>
<path d="M96.2969 83.4736C96.3023 83.4274 96.3023 83.3808 96.2969 83.3346V83.4736Z" fill="#B5A08B"/>
</svg>
