<svg width="191" height="190" viewBox="0 0 191 190" fill="none" xmlns="http://www.w3.org/2000/svg">
<path d="M179.161 82.6634C179.069 82.2076 178.932 81.762 178.751 81.3334C178.121 79.9134 177.071 79.6534 175.901 80.6334C175.399 81.0738 174.928 81.5483 174.491 82.0534C172.09 84.7795 168.843 86.6211 165.271 87.2834C162.451 87.7934 159.631 88.2834 156.791 88.6534C153.223 89.14 149.623 89.3673 146.021 89.3334C144.891 89.3035 143.762 89.2134 142.641 89.0634C142.311 89.0634 141.861 88.9834 141.761 88.4134C142.461 87.9137 143.284 87.6161 144.141 87.5534C147.058 87.1151 150.002 86.8778 152.951 86.8434C155.616 86.7659 158.271 86.4817 160.891 85.9934C165.623 85.0807 170.038 82.9624 173.711 79.8434C174.945 78.8248 176.035 77.6441 176.951 76.3334C177.713 75.3104 178.199 74.1085 178.361 72.8434C178.543 70.2208 177.717 67.6277 176.051 65.5934C175.67 65.0313 175.091 64.6337 174.429 64.4799C173.767 64.326 173.072 64.4273 172.481 64.7634C171.937 65.0183 171.415 65.3194 170.921 65.6634C170.251 66.1034 169.621 66.5934 168.921 67.0334C165.745 69.2469 162.266 70.9915 158.591 72.2134C157.265 72.6636 155.881 72.9228 154.481 72.9834C154.261 72.9834 154.041 72.8334 153.481 72.6434C154.481 72.1434 155.151 71.7534 155.861 71.4334C157.861 70.5434 159.861 69.6934 161.921 68.8134C164.268 67.8558 166.496 66.631 168.561 65.1634C169.559 64.4753 170.493 63.6989 171.351 62.8434C172.841 61.2734 172.801 59.6634 171.061 58.4234L170.901 58.3034C169.354 57.126 168.146 55.5595 167.401 53.7634C166.971 52.7634 166.581 51.7634 166.141 50.8234C165.761 49.9023 165.327 49.0041 164.841 48.1334C163.311 45.5634 161.521 45.1334 158.991 46.6934C158.049 47.3102 157.141 47.9779 156.271 48.6934C154.961 49.6934 153.681 50.7934 152.351 51.7834C151.184 52.6803 149.852 53.3395 148.431 53.7234C147.984 53.8494 147.525 53.9265 147.061 53.9534C146.861 53.9832 146.656 53.9602 146.467 53.8868C146.277 53.8134 146.111 53.6921 145.983 53.5347C145.855 53.3774 145.77 53.1895 145.736 52.9894C145.703 52.7893 145.722 52.5839 145.791 52.3934C146.018 51.6319 146.355 50.9076 146.791 50.2434C147.576 49.1615 148.557 48.2357 149.681 47.5134C151.33 46.3776 153.105 45.438 154.971 44.7134C156.021 44.2934 157.091 43.9234 158.121 43.4634C160.551 42.3734 160.851 40.7534 158.821 39.0834C156.231 36.8707 153.143 35.3197 149.821 34.5634C148.514 34.2619 147.152 34.2809 145.854 34.6187C144.555 34.9564 143.357 35.603 142.361 36.5034C141.287 37.404 140.379 38.4873 139.681 39.7034C138.811 41.2734 137.951 42.8734 137.241 44.5134C136.091 47.1334 135.111 49.8334 133.981 52.4634C133.111 54.4634 132.161 56.4634 131.151 58.4634C130.624 59.3905 130.005 60.2617 129.301 61.0634C128.935 61.4595 128.51 61.7968 128.041 62.0634C127.861 62.1417 127.658 62.1492 127.473 62.0843C127.287 62.0194 127.133 61.887 127.041 61.7134C126.761 60.975 126.566 60.2066 126.461 59.4234C126.363 57.689 126.562 55.9504 127.051 54.2834C128.289 49.261 130.648 44.5841 133.951 40.6034C135.968 38.1983 138.227 36.0068 140.691 34.0634C141.881 33.0634 143.091 32.1634 144.251 31.1634C144.814 30.6915 145.314 30.1506 145.741 29.5534C145.897 29.355 146.009 29.1259 146.07 28.8812C146.131 28.6364 146.14 28.3815 146.096 28.1331C146.051 27.8848 145.955 27.6487 145.813 27.4402C145.671 27.2317 145.486 27.0556 145.271 26.9234C144.787 26.5698 144.255 26.287 143.691 26.0834C140.911 25.1534 138.141 24.1934 135.331 23.3934C133.261 22.7913 131.084 22.6446 128.951 22.9634C125.901 23.4986 123.142 25.105 121.171 27.4934C119.383 29.5671 117.919 31.9004 116.831 34.4134C114.841 38.9295 113.494 43.7028 112.831 48.5934C112.331 52.0234 112.031 55.4734 111.561 58.9134C111.241 61.2834 110.871 63.6534 110.371 65.9934C110.058 67.1501 109.629 68.2724 109.091 69.3434C108.951 69.6434 108.551 69.8134 108.291 70.0334C107.708 69.6129 107.305 68.9881 107.161 68.2834C106.814 67.1362 106.543 65.9669 106.351 64.7834C105.572 58.893 105.69 52.9185 106.701 47.0634C107.913 39.5136 111.309 32.4841 116.471 26.8434C117.821 25.3634 119.241 23.9634 120.611 22.5034C121.128 21.9941 121.597 21.4385 122.011 20.8434C122.162 20.6597 122.267 20.4431 122.318 20.2112C122.369 19.9793 122.365 19.7386 122.305 19.5086C122.246 19.2787 122.133 19.0661 121.976 18.8879C121.819 18.7098 121.622 18.5712 121.401 18.4834C120.69 18.1174 119.928 17.8579 119.141 17.7134C115.991 17.1534 112.851 16.5634 109.681 16.1634C107.123 15.7776 104.527 15.7071 101.951 15.9534C100.021 16.141 98.1516 16.7298 96.4622 17.6821C94.7729 18.6344 93.3012 19.9292 92.1414 21.4834C90.9467 23.0904 89.9777 24.8535 89.2614 26.7234C88.1369 29.6715 87.3193 32.7277 86.8214 35.8434C86.0591 40.3676 85.8009 44.9624 86.0514 49.5434C86.2814 54.6634 86.6214 59.7834 86.9814 64.9034C87.1749 67.8329 87.118 70.7736 86.8114 73.6934C86.6997 75.1565 86.3624 76.5935 85.8114 77.9534C85.6114 78.4334 85.4114 78.9534 84.6914 79.0634C84.344 78.8869 84.0351 78.643 83.7827 78.3461C83.5303 78.0491 83.3395 77.7048 83.2214 77.3334C82.7195 76.1729 82.2952 74.9802 81.9514 73.7634C81.2296 70.7818 80.8339 67.7306 80.7714 64.6634C80.5842 58.1305 80.9186 51.5931 81.7714 45.1134C82.4933 39.1597 83.7484 33.2827 85.5214 27.5534C86.1914 25.3834 86.9414 23.2434 87.6014 21.0834C87.9138 20.1345 88.1283 19.1561 88.2414 18.1634C88.3243 17.7713 88.3191 17.3657 88.2263 16.9758C88.1335 16.586 87.9554 16.2215 87.7048 15.9088C87.4542 15.596 87.1374 15.3427 86.7771 15.1671C86.4169 14.9916 86.0222 14.8981 85.6214 14.8934C84.4943 14.8 83.3601 14.8369 82.2414 15.0034C78.8719 15.4702 75.5538 16.2537 72.3314 17.3434C70.609 17.9105 68.9366 18.6196 67.3314 19.4634C65.6417 20.3494 64.1553 21.578 62.9672 23.0709C61.7792 24.5637 60.9155 26.288 60.4314 28.1334C60.0889 29.3485 59.8448 30.5892 59.7014 31.8434C58.9851 37.7435 59.1672 43.718 60.2414 49.5634C60.8714 53.0334 61.7914 56.4534 62.6514 59.8734C63.8765 64.2357 64.8052 68.6759 65.4314 73.1634C65.7886 75.3409 65.7343 77.566 65.2714 79.7234C65.0965 80.2886 64.8512 80.8295 64.5414 81.3334C64.497 81.4065 64.4365 81.4685 64.3645 81.5146C64.2925 81.5606 64.2109 81.5896 64.1259 81.5993C64.041 81.6089 63.955 81.599 63.8744 81.5703C63.7939 81.5415 63.721 81.4947 63.6614 81.4334C63.1321 80.9355 62.6924 80.3503 62.3614 79.7034C61.7298 78.2366 61.2051 76.726 60.7914 75.1834C59.8644 71.093 59.1964 66.9481 58.7914 62.7734C58.2266 57.6742 57.3483 52.6147 56.1614 47.6234C55.3814 44.4534 54.5814 41.2834 53.8514 38.1034C53.0957 34.9724 53.2484 31.6908 54.2914 28.6434C54.604 27.7646 54.8578 26.8659 55.0514 25.9534C55.3514 24.4634 54.5014 23.5834 53.0514 23.9534C52.0845 24.1952 51.1509 24.5546 50.2714 25.0234C47.0911 26.7192 44.1349 28.8053 41.4714 31.2334C39.465 33.0024 37.6909 35.0184 36.1914 37.2334C34.211 40.0957 32.8805 43.3564 32.2932 46.7871C31.7059 50.2178 31.8759 53.7354 32.7914 57.0934C33.6751 60.3774 34.9793 63.5335 36.6714 66.4834C38.744 70.215 41.0036 73.8396 43.4414 77.3434C45.7014 80.6434 48.0214 83.8934 50.2214 87.2334C51.8014 89.6234 53.2814 92.0734 54.7014 94.5634C55.4491 95.9782 56.1168 97.4339 56.7014 98.9234C56.8525 99.4135 56.9629 99.9152 57.0314 100.423L56.6514 100.593C56.1114 100.023 55.5514 99.4634 55.0314 98.8734C52.9534 96.5263 50.6339 94.4046 48.1114 92.5434C47.4114 92.0334 46.7414 91.4834 46.0414 90.9634C41.8833 87.9159 38.6701 83.7564 36.7714 78.9634C35.3114 75.3834 34.0514 71.7334 32.8614 68.0534C32.3214 66.4134 31.8014 64.7534 31.2014 63.1334C30.8971 62.3479 30.4757 61.6129 29.9514 60.9534C29.8177 60.7657 29.643 60.6108 29.4407 60.5005C29.2383 60.3902 29.0134 60.3274 28.7832 60.3168C28.5529 60.3062 28.3233 60.3481 28.1116 60.4393C27.8999 60.5306 27.7118 60.6688 27.5614 60.8434C27.0736 61.3858 26.6508 61.9831 26.3014 62.6234C24.3014 66.0934 22.3014 69.5434 20.3614 73.0434C19.2814 75.0434 18.3014 77.0434 17.4114 79.1534C16.634 81.0012 16.1645 82.9639 16.0214 84.9634C15.6717 89.4747 17.0798 93.9465 19.9514 97.4434C21.4639 99.3098 23.2234 100.962 25.1814 102.353C27.6238 104.099 30.1906 105.663 32.8614 107.033C34.5714 107.933 36.3114 108.783 38.0014 109.713C39.0382 110.287 40.04 110.921 41.0014 111.613C41.5289 112.018 41.988 112.504 42.3614 113.053C42.4472 113.179 42.5049 113.322 42.5306 113.472C42.5564 113.621 42.5496 113.775 42.5107 113.922C42.4718 114.069 42.4017 114.206 42.3052 114.324C42.2087 114.441 42.0881 114.537 41.9514 114.603C41.2683 115.025 40.4838 115.253 39.6814 115.263C37.5398 115.346 35.4045 114.981 33.4114 114.193C27.815 112.144 22.9459 108.492 19.4114 103.693C18.5014 102.473 17.6914 101.153 16.8114 99.9034C16.4455 99.3486 16.0159 98.8384 15.5314 98.3834C15.3648 98.217 15.1637 98.0891 14.9423 98.0088C14.7209 97.9285 14.4846 97.8978 14.25 97.9187C14.0154 97.9397 13.7883 98.0119 13.5847 98.1302C13.381 98.2485 13.2058 98.4101 13.0714 98.6034C12.5875 99.2459 12.2094 99.9616 11.9514 100.723C10.49 104.994 10.5963 109.645 12.2514 113.843C12.8581 115.397 13.5247 116.927 14.2514 118.433C15.9379 121.985 17.3455 125.663 18.4614 129.433C18.7814 130.513 19.1814 131.573 19.5914 132.633C20.0541 133.89 20.7796 135.033 21.7195 135.987C22.6593 136.94 23.7919 137.682 25.0414 138.163C26.021 138.555 27.0227 138.889 28.0414 139.163C31.6077 140.094 35.2674 140.621 38.9514 140.733C41.4804 140.843 44.0142 140.723 46.5214 140.373C51.0814 139.703 54.5214 137.613 56.3514 133.213C56.8452 132.057 57.4096 130.931 58.0414 129.843C58.7221 128.615 59.6082 127.512 60.6614 126.583C61.4472 125.851 62.4523 125.398 63.5214 125.293C63.8514 125.293 64.2014 125.293 64.3114 125.743C64.2305 125.912 64.1298 126.069 64.0114 126.213C59.6414 130.843 55.7914 135.843 51.7914 140.743C49.1247 143.997 46.4047 147.197 43.6314 150.343C39.917 154.534 35.834 158.383 31.4314 161.843C30.2602 162.737 29.1785 163.741 28.2014 164.843C26.5514 166.763 26.7314 168.933 28.5114 170.743C29.5454 171.852 30.9319 172.568 32.4345 172.768C33.9372 172.969 35.4628 172.642 36.7514 171.843C38.0072 171.074 39.1231 170.097 40.0514 168.953C41.4214 167.313 42.7714 165.663 44.0514 163.953C47.0514 159.853 49.9014 155.693 52.8414 151.563C53.1214 151.163 53.2814 150.563 54.0314 150.563C53.9614 151.123 53.9014 151.643 53.8314 152.153C53.5313 154.067 53.5515 156.017 53.8914 157.923C54.5788 161.14 56.1876 164.086 58.5214 166.403C60.9209 168.828 63.7755 170.755 66.9214 172.073C71.6653 174.092 76.7658 175.14 81.9214 175.153C85.861 175.208 89.783 174.617 93.5314 173.403C95.0514 172.933 96.5314 172.403 98.0314 171.753C98.6358 171.48 99.1796 171.089 99.6314 170.603C99.7687 170.472 99.876 170.312 99.9458 170.135C100.016 169.958 100.046 169.768 100.036 169.578C100.025 169.388 99.974 169.203 99.8852 169.035C99.7964 168.866 99.6723 168.719 99.5214 168.603C99.0564 168.228 98.5372 167.924 97.9814 167.703C96.9814 167.283 95.9814 166.963 94.9814 166.573C88.5414 164.083 83.9114 159.573 80.5614 153.623C80.0514 152.688 79.6392 151.703 79.3314 150.683C79.0441 149.795 78.8694 148.875 78.8114 147.943C78.7014 145.393 79.9214 144.503 82.3114 145.313C83.5133 145.732 84.6186 146.388 85.5614 147.243C87.1914 148.713 88.8014 150.243 90.3514 151.773C92.3514 153.773 94.2014 155.843 96.1714 157.833C98.2538 159.953 100.523 161.881 102.951 163.593C104.625 164.807 106.468 165.768 108.421 166.443C110.366 167.173 112.45 167.453 114.518 167.262C116.585 167.072 118.583 166.416 120.361 165.343C120.931 165.003 121.511 164.673 122.071 164.343C123.521 163.343 124.961 162.433 126.391 161.453C129.153 159.569 132.259 158.248 135.531 157.563C137.485 157.15 139.441 156.75 141.401 156.363C147.866 155.165 153.864 152.175 158.711 147.733C159.261 147.249 159.769 146.721 160.231 146.153C161.111 145.003 160.641 143.933 159.181 143.723C158.531 143.633 157.851 143.723 157.181 143.653C155.651 143.583 154.111 143.583 152.591 143.423C149.413 143.003 146.321 142.082 143.431 140.693C141.191 139.693 138.961 138.613 136.771 137.493C131.426 134.767 125.903 132.402 120.241 130.413C118.241 129.713 116.241 128.883 114.331 127.993C113.209 127.404 112.13 126.735 111.101 125.993C110.851 125.833 110.541 125.613 110.691 125.183C111.121 124.733 111.691 124.873 112.181 124.933C113.841 125.128 115.462 125.569 116.991 126.243C119.601 127.403 122.211 128.593 124.791 129.823C128.041 131.373 131.241 133.013 134.491 134.563C137.195 135.866 140.001 136.943 142.881 137.783C147.34 139.229 152.082 139.572 156.701 138.783C162.241 137.723 166.411 134.853 168.701 129.553C170.136 126.018 170.738 122.199 170.461 118.393C170.437 117.926 170.356 117.462 170.221 117.013C170.103 116.554 169.813 116.157 169.412 115.904C169.01 115.652 168.527 115.562 168.061 115.653C167.602 115.719 167.152 115.84 166.721 116.013C166.041 116.273 165.371 116.593 164.721 116.873C161.421 118.383 157.724 118.796 154.171 118.053C152.931 117.783 151.691 117.533 150.491 117.153C144.623 115.362 138.625 114.025 132.551 113.153C130.121 112.773 127.721 112.153 125.331 111.573C123.899 111.238 122.553 110.604 121.381 109.713C120.754 109.225 120.207 108.641 119.761 107.983C119.514 107.618 119.418 107.17 119.495 106.735C119.571 106.301 119.814 105.913 120.171 105.653C120.701 105.254 121.292 104.943 121.921 104.733C123.548 104.266 125.262 104.194 126.921 104.523C129.615 104.972 132.267 105.641 134.851 106.523C137.901 107.523 140.941 108.523 144.021 109.323C149.818 110.968 155.907 111.309 161.851 110.323C166.024 109.701 169.967 108.017 173.301 105.433C175.18 103.993 176.74 102.18 177.885 100.108C179.029 98.0365 179.733 95.7503 179.951 93.3934C180.254 89.7975 179.988 86.1763 179.161 82.6634ZM42.7314 162.443C41.3705 164.335 39.9154 166.158 38.3714 167.903C37.5833 168.807 36.6629 169.586 35.6414 170.213C34.6916 170.808 33.5572 171.034 32.452 170.85C31.3468 170.666 30.3471 170.084 29.6414 169.213C29.2186 168.819 28.9695 168.274 28.9488 167.696C28.9282 167.119 29.1377 166.557 29.5314 166.133C29.8567 165.713 30.218 165.321 30.6114 164.963C31.1014 164.513 31.6114 164.083 32.1314 163.673C37.8101 159.242 42.9965 154.213 47.6014 148.673C50.7414 144.963 53.8114 141.183 56.8514 137.403C60.7402 132.423 64.9989 127.743 69.5914 123.403C75.6899 117.928 82.1879 112.914 89.0314 108.403C89.3004 108.254 89.5856 108.137 89.8814 108.053C89.7814 108.703 89.1814 108.923 88.7414 109.253C85.0814 112.143 81.5114 115.143 78.1214 118.343C69.4782 126.431 61.7119 135.407 54.9514 145.123C50.9514 150.933 46.8314 156.703 42.7314 162.443ZM177.851 94.4434C177.203 98.3008 175.089 101.758 171.951 104.093C169.017 106.322 165.585 107.804 161.951 108.413C156.545 109.42 150.984 109.226 145.661 107.843C142.431 107.033 139.271 105.993 136.091 105.003C133.066 103.962 129.958 103.176 126.801 102.653C125.084 102.393 123.332 102.464 121.641 102.863C120.595 103.099 119.625 103.594 118.821 104.303C118.159 104.877 117.721 105.666 117.584 106.532C117.447 107.397 117.619 108.283 118.071 109.033C118.693 110.066 119.554 110.934 120.581 111.563C121.976 112.486 123.518 113.163 125.141 113.563C127.601 114.153 130.071 114.743 132.561 115.133C138.445 115.957 144.258 117.224 149.951 118.923C151.291 119.333 152.661 119.643 154.021 119.923C157.914 120.681 161.945 120.202 165.551 118.553C166.379 118.087 167.272 117.75 168.201 117.553C168.652 118.218 168.831 119.031 168.701 119.823C168.639 122.158 168.303 124.477 167.701 126.733C166.081 132.343 162.361 135.643 156.701 136.803C152.62 137.558 148.418 137.349 144.431 136.193C141.469 135.401 138.587 134.337 135.821 133.013C132.201 131.303 128.651 129.473 125.041 127.753C122.451 126.523 119.841 125.363 117.201 124.233C115.676 123.549 114.04 123.146 112.371 123.043C111.512 122.986 110.649 123.06 109.811 123.263C109.515 123.324 109.24 123.46 109.012 123.658C108.784 123.856 108.611 124.11 108.51 124.395C108.409 124.68 108.384 124.986 108.437 125.284C108.49 125.582 108.619 125.86 108.811 126.093C109.209 126.709 109.726 127.24 110.331 127.653C111.529 128.494 112.794 129.237 114.111 129.873C116.111 130.783 118.111 131.583 120.231 132.323C125.417 134.184 130.483 136.362 135.401 138.843C137.961 140.133 140.531 141.393 143.141 142.563C146.238 144.019 149.552 144.958 152.951 145.343C154.081 145.453 155.211 145.463 156.341 145.533L157.641 145.643C157.701 146.353 157.201 146.543 156.881 146.833C152.915 150.359 148.124 152.828 142.951 154.013C140.491 154.583 138.011 155.083 135.531 155.593C131.797 156.347 128.252 157.847 125.111 160.003C123.451 161.133 121.771 162.213 120.111 163.313C115.911 166.073 111.561 165.993 107.191 163.863C105.651 163.075 104.185 162.147 102.811 161.093C100.112 159.024 97.5991 156.722 95.3014 154.213C93.3614 152.213 91.4814 150.113 89.4814 148.163C88.1758 146.927 86.793 145.775 85.3414 144.713C84.2199 143.856 82.8917 143.311 81.4914 143.133C78.9914 142.833 77.3114 144.013 76.9614 146.503C76.8454 147.503 76.8825 148.515 77.0714 149.503C77.4302 151.545 78.1806 153.497 79.2814 155.253C82.7647 161.4 88.3182 166.11 94.9514 168.543C95.7014 168.813 96.4214 169.143 97.1514 169.453C97.1514 169.453 97.2114 169.563 97.2514 169.633C97.2514 170.063 96.8514 170.123 96.5814 170.233C91.0114 172.554 84.963 173.494 78.9514 172.973C75.9621 172.714 73.0107 172.123 70.1514 171.213C67.2343 170.256 64.4968 168.82 62.0514 166.963C60.1306 165.509 58.5106 163.696 57.2814 161.623C55.6304 158.764 55.0625 155.407 55.6814 152.163C56.1932 149.279 57.1019 146.479 58.3814 143.843C58.6238 143.293 58.9292 142.773 59.2914 142.293C61.2914 139.663 63.4014 137.043 65.4714 134.433C65.7847 134.133 66.1189 133.856 66.4714 133.603C66.2314 134.523 66.1014 135.093 65.9414 135.603C64.9794 138.516 64.2766 141.507 63.8414 144.543C63.2566 149.799 63.8861 155.119 65.6814 160.093C66.3318 161.848 67.2566 163.489 68.4214 164.953C68.6814 165.283 68.9714 165.533 69.4214 165.283C68.278 163.728 67.505 161.933 67.1614 160.033C66.7114 158.033 66.3514 155.973 66.0914 153.933C65.5638 150.624 65.5133 147.257 65.9414 143.933C66.2314 142.163 66.6214 140.403 67.0114 138.653C67.5804 136.597 67.8829 134.477 67.9114 132.343C67.9114 131.273 67.9914 131.203 69.4814 130.073C69.9514 130.443 69.6914 130.933 69.6814 131.353C69.5714 134.353 69.2914 137.353 69.3414 140.353C69.3584 148.024 71.962 155.465 76.7314 161.473C78.5587 163.77 80.7074 165.79 83.1114 167.473C83.2509 167.584 83.4118 167.664 83.584 167.709C83.7562 167.754 83.9358 167.762 84.1114 167.733L82.9514 166.533C77.7114 160.663 73.8214 154.073 72.2514 146.283C71.9127 144.45 71.6989 142.596 71.6114 140.733C71.5014 139.143 71.5514 137.533 71.6114 135.943C71.6785 133.742 71.4463 131.542 70.9214 129.403C70.8668 129.126 70.8301 128.846 70.8114 128.563C71.354 127.783 72.0313 127.106 72.8114 126.563C73.2464 126.873 73.6637 127.207 74.0614 127.563C75.8914 129.303 77.7214 131.053 79.5314 132.833C82.3314 135.593 85.0814 138.413 87.9214 141.133C93.7108 146.754 99.9703 151.869 106.631 156.423C107.131 156.753 107.631 157.083 108.141 157.423C108.267 157.441 108.395 157.441 108.521 157.423C108.631 157.003 108.261 156.873 108.051 156.693C99.6814 149.453 91.5814 141.913 83.6914 134.153C80.8046 131.139 77.5291 128.523 73.9514 126.373C73.7214 126.243 73.5014 126.093 73.1814 125.883C75.1814 123.723 77.1814 121.803 79.1814 119.883C79.6714 120.033 80.1214 120.143 80.5414 120.303C84.641 121.902 88.5928 123.856 92.3514 126.143C96.1414 128.503 99.8814 130.943 103.631 133.373C107.151 135.653 110.631 137.993 114.181 140.243C118.72 143.175 123.525 145.673 128.531 147.703C131.558 148.942 134.736 149.773 137.981 150.173C137.241 149.813 136.871 149.603 136.491 149.453C133.69 148.381 130.955 147.142 128.301 145.743C121.158 142.042 114.231 137.938 107.551 133.453C103.445 130.72 99.2981 128.053 95.1114 125.453C93.1114 124.183 90.9514 123.073 88.8214 121.963C86.5755 120.786 84.1544 119.979 81.6514 119.573C81.2886 119.501 80.9311 119.404 80.5814 119.283C80.3414 118.773 80.6614 118.563 80.8914 118.373C84.0014 115.753 87.1314 113.153 90.2214 110.513C90.5216 110.25 90.8863 110.072 91.2782 109.996C91.6701 109.921 92.075 109.951 92.4514 110.083C95.3582 110.82 98.2008 111.789 100.951 112.983C106.011 115.203 111.061 117.473 116.091 119.753C121.649 122.344 127.348 124.621 133.161 126.573C137.974 128.14 142.927 129.235 147.951 129.843C150.448 130.076 152.959 130.116 155.461 129.963C154.837 129.645 154.159 129.449 153.461 129.383C141.147 127.378 129.151 123.76 117.781 118.623C113.421 116.623 109.031 114.693 104.651 112.733C103.441 112.193 102.201 111.733 100.971 111.183C98.4546 110.018 95.7403 109.34 92.9714 109.183C92.6714 108.723 92.9714 108.523 93.2214 108.333C94.4714 107.433 95.7014 106.513 96.9614 105.653C101.801 102.333 106.651 99.0334 111.471 95.6534C111.817 95.3996 112.211 95.219 112.629 95.1227C113.046 95.0264 113.48 95.0165 113.901 95.0934C118.321 95.7434 122.681 96.6834 127.011 97.7534C131.073 98.8168 135.203 99.5986 139.371 100.093C144.017 100.596 148.709 100.471 153.321 99.7234L155.241 99.3934C155.321 98.8834 154.991 98.9534 154.771 98.9434C151.171 98.7834 147.581 98.6434 143.991 98.4734C138.13 98.1483 132.31 97.2983 126.601 95.9334C122.72 94.9683 118.741 94.4483 114.741 94.3834C114.548 94.3661 114.357 94.3293 114.171 94.2734C114.031 93.8334 114.351 93.6634 114.611 93.4734C119.251 90.0034 123.911 86.5434 128.531 83.0534C129.101 82.6062 129.807 82.3695 130.531 82.3834C132.591 82.3834 134.661 82.3834 136.731 82.3834C141.996 82.309 147.245 81.7871 152.421 80.8234C154.65 80.3722 156.835 79.7264 158.951 78.8934C159.371 78.7334 159.761 78.4934 160.311 78.2134C155.311 78.7634 150.471 79.2634 145.641 79.8134C140.811 80.3634 136.001 80.9434 130.951 81.5534C131.168 81.2301 131.416 80.9287 131.691 80.6534C138.631 75.2601 145.585 69.8734 152.551 64.4934C153.231 63.9634 153.981 63.4934 154.691 63.0234C155.042 62.8077 155.376 62.5671 155.691 62.3034C155.848 62.1758 155.951 61.9933 155.979 61.793C156.007 61.5926 155.958 61.3891 155.841 61.2234C155.751 61.0469 155.601 60.9086 155.417 60.8334C155.234 60.7582 155.03 60.7511 154.841 60.8134C154.286 61.0329 153.759 61.3183 153.271 61.6634C147.165 65.9501 141.061 70.2468 134.961 74.5534L133.391 75.6334C133.031 75.2934 133.211 75.0234 133.301 74.8034C135.147 70.2995 136.541 65.6232 137.461 60.8434C137.671 59.9434 137.921 59.0534 138.151 58.1634C137.995 58.124 137.829 58.1482 137.691 58.2306C137.552 58.3131 137.451 58.4471 137.411 58.6034C136.671 60.2434 135.861 61.8534 135.231 63.5334C133.769 67.3979 132.583 71.3612 131.681 75.3934C131.564 76.0011 131.326 76.5792 130.983 77.0942C130.639 77.6093 130.197 78.0509 129.681 78.3934C126.781 80.3934 123.951 82.5334 121.081 84.5934C120.611 84.9334 120.081 85.2034 119.451 85.5934C119.381 85.2951 119.345 84.9899 119.341 84.6834C119.681 81.4351 119.772 78.1656 119.611 74.9034C119.551 72.9734 119.511 71.0434 119.491 69.1034C119.46 64.1001 120.103 59.1154 121.401 54.2834C122.647 49.1874 124.221 44.177 126.111 39.2834C126.214 39.0233 126.214 38.7336 126.111 38.4734C125.901 38.7534 125.661 39.0234 125.471 39.3334C121.552 45.795 118.993 52.9885 117.951 60.4734C117.38 65.5071 117.303 70.5847 117.721 75.6334C117.891 78.8334 118.041 82.0234 118.261 85.2134C118.32 85.639 118.249 86.0725 118.056 86.4565C117.863 86.8404 117.558 87.1567 117.181 87.3634C115.611 88.3634 114.101 89.4834 112.551 90.5134C109.405 92.6268 106.241 94.7368 103.061 96.8434C102.641 97.1234 102.271 97.5534 101.691 97.5334C101.601 97.4034 101.461 97.3034 101.461 97.2134C101.531 93.2134 100.561 89.2834 99.6214 85.3934C98.6214 81.1234 97.6214 76.8434 96.9514 72.4834C95.9272 65.8278 95.6855 59.0752 96.2314 52.3634C97.1299 43.3329 99.4484 34.5009 103.101 26.1934C103.31 25.7933 103.558 25.4148 103.841 25.0634V25.1434C103.614 25.1626 103.398 25.2489 103.22 25.3914C103.042 25.5338 102.91 25.726 102.841 25.9434C102.071 27.5734 101.201 29.1534 100.531 30.8134C97.687 37.724 95.8937 45.0216 95.2114 52.4634C94.6995 58.5764 94.8235 64.7261 95.5814 70.8134C96.3194 76.1569 97.3544 81.4551 98.6814 86.6834C99.4714 90.1134 100.141 93.5834 100.851 97.0434C100.906 97.4545 100.932 97.8688 100.931 98.2834L83.2914 109.933C83.1384 109.549 83.0245 109.151 82.9514 108.743C82.6714 102.743 80.9514 97.0834 79.2214 91.4134C77.8214 86.8234 76.3914 82.2534 75.0914 77.6334C72.7804 69.2746 71.59 60.6458 71.5514 51.9734C71.4266 47.2597 71.5601 42.5426 71.9514 37.8434C72.1114 36.2534 72.3414 34.6734 72.5314 33.0934C72.1214 33.1434 72.0214 33.4634 71.9514 33.7934C71.4414 35.9334 70.8114 38.0534 70.4714 40.2134C69.3423 47.5198 69.1675 54.942 69.9514 62.2934C70.8941 70.5747 72.7453 78.7271 75.4714 86.6034C77.9214 94.0034 80.0414 101.503 82.2414 108.983C82.3714 109.423 82.4514 109.883 82.5614 110.353C81.7919 111.192 80.9062 111.916 79.9314 112.503C79.0014 113.253 78.0414 113.973 77.0714 114.683C76.195 115.445 75.2434 116.115 74.2314 116.683C74.0214 116.103 73.8214 115.623 73.6914 115.133C73.0098 112.694 72.0852 110.329 70.9314 108.073C69.0514 104.243 66.9314 100.563 64.6714 96.9134C62.6714 93.6134 60.6714 90.3134 58.6714 86.9834C52.7541 76.9169 48.3725 66.0236 45.6714 54.6634C44.8714 51.3634 44.3014 48.0134 43.6114 44.6634C43.5128 44.1709 43.3585 43.6911 43.1514 43.2334C43.3261 54.3235 45.7447 65.2633 50.2614 75.3934C52.9641 81.4128 56.0643 87.2457 59.5414 92.8534C61.3414 95.8534 63.2314 98.7234 64.9414 101.743C67.7014 106.613 70.3314 111.553 73.0114 116.463C73.1527 116.748 73.273 117.042 73.3714 117.343C73.2646 117.537 73.1372 117.718 72.9914 117.883C71.2914 119.373 69.5814 120.883 67.8014 122.383C67.4414 121.993 67.1114 121.673 66.8014 121.313C64.4209 118.259 61.6314 115.547 58.5114 113.253C54.6014 110.473 50.7514 107.613 46.8414 104.843C41.041 100.683 35.5743 96.0754 30.4914 91.0634C28.9214 89.5334 27.4914 87.8334 26.0414 86.2034C25.8014 86.5134 26.0414 86.8034 26.1814 87.0534C27.3173 89.3967 28.7636 91.5763 30.4814 93.5334C33.504 97.0053 36.89 100.143 40.5814 102.893C44.3214 105.683 48.1414 108.373 51.9114 111.113C55.4714 113.693 59.0314 116.273 62.5614 118.903C64.0014 119.973 65.3614 121.163 66.7414 122.313C66.9104 122.484 67.0613 122.672 67.1914 122.873L66.1914 123.873C65.6814 123.643 65.1914 123.473 64.7414 123.223C62.3385 121.899 59.685 121.091 56.9514 120.853C54.9514 120.643 52.8314 120.493 50.7714 120.393C46.1098 120.232 41.46 119.825 36.8414 119.173C32.2097 118.59 27.6516 117.524 23.2414 115.993C22.7601 115.791 22.2894 115.564 21.8314 115.313C21.8314 115.553 21.8314 115.893 21.9814 116.003C22.4041 116.326 22.8523 116.613 23.3214 116.863C27.1206 118.965 31.255 120.393 35.5414 121.083C39.4201 121.724 43.3339 122.132 47.2614 122.303C51.1914 122.533 55.1114 122.813 59.0314 123.093C59.5628 123.138 60.0906 123.219 60.6114 123.333C60.8461 123.428 61.0679 123.553 61.2714 123.703C60.8771 123.967 60.4544 124.185 60.0114 124.353C57.629 124.987 55.3041 125.82 53.0614 126.843C48.9231 128.53 44.5945 129.705 40.1714 130.343C37.1147 130.938 34.0053 131.22 30.8914 131.183C31.4959 131.604 32.2061 131.846 32.9414 131.883C39.5239 132.724 46.2114 131.802 52.3214 129.213C53.8014 128.613 55.2614 127.973 56.6814 127.373C57.0914 127.623 56.8914 127.863 56.7814 128.083C55.9414 129.683 55.0414 131.233 54.2814 132.863C53.708 134.223 52.8007 135.417 51.6435 136.332C50.4863 137.248 49.1166 137.858 47.6614 138.103C46.4948 138.371 45.3125 138.565 44.1214 138.683C38.7235 139.042 33.3028 138.543 28.0614 137.203C26.2494 136.856 24.5768 135.991 23.2458 134.713C21.9148 133.436 20.9824 131.8 20.5614 130.003C19.14 125.028 17.2793 120.189 15.0014 115.543C14.0016 113.511 13.3268 111.335 13.0014 109.093C12.6902 106.307 13.015 103.486 13.9514 100.843C14.0849 100.576 14.253 100.327 14.4514 100.103C14.8059 100.461 15.1398 100.838 15.4514 101.233C16.2114 102.323 16.9214 103.453 17.7014 104.533C21.3547 109.596 26.3986 113.491 32.2214 115.743C34.5519 116.761 37.0799 117.246 39.6214 117.163C40.5516 117.119 41.4692 116.93 42.3414 116.603C44.7114 115.603 45.2514 113.393 43.6114 111.433C43.0448 110.779 42.3922 110.203 41.6714 109.723C40.5114 108.953 39.2814 108.263 38.0514 107.593C35.8314 106.393 33.5714 105.253 31.3414 104.033C29.1573 102.887 27.0965 101.52 25.1914 99.9534C23.9541 98.9409 22.8065 97.8234 21.7614 96.6134C19.9829 94.5997 18.7584 92.1583 18.2079 89.5286C17.6574 86.899 17.7999 84.1714 18.6214 81.6134C19.2812 79.3723 20.1973 77.2147 21.3514 75.1834C22.1014 73.8434 22.9214 72.5534 23.6814 71.1834C24.9414 68.9834 26.1814 66.7734 27.4214 64.5734L28.6114 62.5034C28.8914 62.8388 29.1329 63.2044 29.3314 63.5934C30.0114 65.5934 30.6614 67.5034 31.3314 69.4634C32.5114 73.0734 33.7614 76.6534 35.2514 80.1534C37.1683 84.8723 40.3097 88.9941 44.3514 92.0934C45.1014 92.6534 45.8214 93.2434 46.5714 93.7934C49.2168 95.721 51.6384 97.9381 53.7914 100.403C54.2714 100.953 54.7914 101.483 55.3014 101.993C55.6249 102.331 55.9837 102.632 56.3714 102.893C57.7214 103.753 59.0014 103.153 59.0214 101.563C59.0161 100.638 58.8608 99.7193 58.5614 98.8434C58.1385 97.5025 57.5998 96.201 56.9514 94.9534C55.6614 92.5534 54.3214 90.1634 52.8314 87.8734C50.6614 84.5134 48.3614 81.2434 46.0914 77.9534C43.4414 74.1034 40.8614 70.2234 38.5814 66.1534C37.1374 63.6745 35.9512 61.0542 35.0414 58.3334C32.4714 50.2034 33.7914 42.8434 39.2314 36.2034C42.5531 32.2667 46.6083 29.013 51.1714 26.6234C51.5253 26.4399 51.8892 26.2763 52.2614 26.1334C52.4342 26.1137 52.6086 26.1137 52.7814 26.1334C52.8036 26.5125 52.7733 26.8927 52.6914 27.2634C50.8814 31.9734 51.3414 36.6834 52.5714 41.4134C53.4047 44.6401 54.1981 47.8768 54.9514 51.1234C55.7829 54.9642 56.4105 58.8463 56.8314 62.7534C57.2468 66.93 57.9147 71.0776 58.8314 75.1734C59.2679 76.9161 59.8327 78.6241 60.5214 80.2834C60.9134 81.2039 61.4806 82.0394 62.1914 82.7434C62.4481 83.0477 62.7759 83.284 63.1458 83.4313C63.5156 83.5786 63.9161 83.6324 64.3117 83.5879C64.7073 83.5434 65.0859 83.402 65.4137 83.1762C65.7416 82.9504 66.0087 82.6472 66.1914 82.2934C66.6042 81.609 66.9047 80.8629 67.0814 80.0834C67.5508 77.9318 67.6321 75.7136 67.3214 73.5334C66.8288 69.3587 66.0367 65.2247 64.9514 61.1634C64.0214 57.4834 63.0414 53.8034 62.2914 50.0934C61.1004 44.1317 60.8708 38.0177 61.6114 31.9834C61.7211 31.1247 61.8814 30.2733 62.0914 29.4334C62.4931 27.5318 63.3358 25.751 64.5516 24.2347C65.7675 22.7183 67.3225 21.5088 69.0914 20.7034C70.5873 19.972 72.1429 19.3698 73.7414 18.9034C76.5014 18.1434 79.3014 17.5134 82.1014 16.9034C83.2158 16.7599 84.3426 16.7398 85.4614 16.8434C85.5905 16.8417 85.7185 16.8668 85.8374 16.9173C85.9562 16.9677 86.0633 17.0423 86.1517 17.1364C86.2401 17.2305 86.308 17.3419 86.351 17.4636C86.394 17.5854 86.4111 17.7147 86.4014 17.8434C86.3792 18.3747 86.2953 18.9016 86.1514 19.4134C85.6614 21.0734 85.1514 22.7334 84.6014 24.4134C81.9977 32.1918 80.303 40.2454 79.5514 48.4134C78.9819 53.6497 78.7514 58.9174 78.8614 64.1834C78.9358 67.4504 79.3277 70.7023 80.0314 73.8934C80.345 75.5324 80.9225 77.1096 81.7414 78.5634C82.1738 79.319 82.7318 79.9954 83.3914 80.5634C83.6172 80.7675 83.8831 80.9223 84.1721 81.0179C84.4611 81.1135 84.7668 81.1479 85.0698 81.1187C85.3728 81.0895 85.6664 80.9975 85.9318 80.8485C86.1972 80.6995 86.4287 80.4969 86.6114 80.2534C87.2779 79.5659 87.7416 78.7077 87.9514 77.7734C88.33 76.2221 88.6138 74.6492 88.8014 73.0634C89.1315 68.4761 89.0613 63.8686 88.5914 59.2934C88.1032 54.115 87.8896 48.9144 87.9514 43.7134C88.066 39.1817 88.7377 34.6812 89.9514 30.3134C90.6419 27.6616 91.7964 25.1529 93.3614 22.9034C94.2434 21.6308 95.3678 20.5446 96.6702 19.7072C97.9726 18.8698 99.4275 18.2976 100.951 18.0234C102.785 17.6369 104.668 17.5391 106.531 17.7334C109.701 18.1234 112.861 18.5634 116.031 19.0234C117.031 19.1734 118.131 19.3834 119.171 19.6134C119.467 19.7181 119.752 19.8521 120.021 20.0134C119.851 20.8234 119.241 21.1834 118.801 21.6634C117.431 23.1234 116.011 24.5334 114.681 26.0234C109.471 31.8947 106.056 39.1382 104.841 46.8934C103.825 52.8241 103.684 58.8717 104.421 64.8434C104.563 66.4391 104.958 68.002 105.591 69.4734C105.912 70.2069 106.351 70.8826 106.891 71.4734C107.078 71.6655 107.301 71.8181 107.547 71.9224C107.794 72.0266 108.059 72.0803 108.326 72.0803C108.594 72.0803 108.859 72.0266 109.105 71.9224C109.352 71.8181 109.575 71.6655 109.761 71.4734C110.357 70.8506 110.847 70.1345 111.211 69.3534C112.012 67.662 112.532 65.8517 112.751 63.9934C113.201 60.7634 113.591 57.5234 113.961 54.2834C114.445 49.0356 115.508 43.8574 117.131 38.8434C117.869 36.633 118.813 34.4969 119.951 32.4634C120.806 30.9539 121.837 29.5509 123.021 28.2834C124.221 26.9206 125.75 25.8885 127.462 25.2862C129.175 24.6839 131.013 24.5314 132.801 24.8434C136.484 25.4695 140.072 26.5581 143.481 28.0834C143.679 28.2103 143.858 28.3653 144.011 28.5434C143.807 28.8682 143.573 29.1729 143.311 29.4534C142.451 30.1934 141.551 30.8834 140.701 31.6234C138.701 33.3834 136.591 35.0434 134.701 36.9334C129.938 41.6586 126.595 47.6243 125.051 54.1534C124.593 55.758 124.401 57.4267 124.481 59.0934C124.537 60.1564 124.753 61.2049 125.121 62.2034C125.247 62.6063 125.469 62.973 125.766 63.2724C126.064 63.5718 126.429 63.7952 126.831 63.9236C127.233 64.0521 127.66 64.0819 128.076 64.0105C128.492 63.9391 128.885 63.7686 129.221 63.5134C130.149 62.9718 130.929 62.2092 131.491 61.2934C132.511 59.7336 133.436 58.114 134.261 56.4434C135.261 54.2134 136.181 51.9034 137.131 49.6234C137.931 47.7234 138.681 45.7934 139.531 43.9134C140.053 42.7611 140.658 41.6481 141.341 40.5834C141.881 39.7432 142.511 38.9651 143.221 38.2634C144.032 37.4089 145.059 36.7909 146.193 36.4756C147.328 36.1603 148.527 36.1595 149.661 36.4734C152.649 37.2205 155.417 38.663 157.741 40.6834C157.846 40.8262 157.933 40.9806 158.001 41.1434C157.81 41.3646 157.588 41.5566 157.341 41.7134C156.491 42.0934 155.611 42.4234 154.751 42.7634C152.752 43.513 150.841 44.4787 149.051 45.6434C147.638 46.5349 146.386 47.661 145.351 48.9734C144.634 49.8422 144.136 50.8713 143.901 51.9734C143.481 54.2934 144.901 55.9734 147.221 55.8134C148.213 55.7193 149.186 55.4836 150.111 55.1134C151.732 54.4817 153.238 53.59 154.571 52.4734C155.881 51.4734 157.131 50.3434 158.451 49.3234C159.201 48.7726 159.986 48.2715 160.801 47.8234C161.091 47.6431 161.44 47.5839 161.773 47.6588C162.106 47.7336 162.397 47.9364 162.581 48.2234C163.003 48.739 163.363 49.303 163.651 49.9034C164.171 50.9734 164.651 52.0834 165.091 53.1934C166.021 55.8704 167.71 58.2192 169.951 59.9534C170.144 60.1205 170.309 60.3161 170.441 60.5334C170.233 61.3296 169.734 62.0185 169.041 62.4634C167.586 63.7446 165.961 64.8182 164.211 65.6534C162.211 66.6534 160.091 67.5234 158.031 68.4534C156.631 69.0934 155.221 69.6934 153.841 70.3634C153.175 70.6947 152.542 71.0899 151.951 71.5434C151.605 71.7544 151.341 72.0781 151.204 72.4605C151.068 72.8428 151.067 73.2605 151.201 73.6434C151.342 73.9941 151.583 74.2952 151.894 74.5088C152.206 74.7224 152.574 74.8389 152.951 74.8434C154.344 75.0158 155.755 74.9414 157.121 74.6234C159.136 74.1649 161.097 73.4945 162.971 72.6234C165.882 71.2862 168.655 69.6685 171.251 67.7934C171.841 67.3585 172.459 66.9643 173.101 66.6134C173.329 66.4665 173.603 66.4087 173.87 66.4511C174.138 66.4936 174.38 66.6333 174.551 66.8434C175.635 67.9925 176.29 69.4787 176.409 71.0533C176.527 72.6279 176.101 74.1955 175.201 75.4934C174.322 76.6577 173.315 77.7209 172.201 78.6634C168.295 81.9494 163.483 83.9719 158.401 84.4634C154.831 84.8634 151.221 84.9734 147.641 85.2934C145.921 85.4434 144.211 85.7634 142.511 86.0734C141.924 86.1925 141.358 86.398 140.831 86.6834C139.971 87.1234 139.191 87.6834 139.281 88.8034C139.371 89.9234 140.221 90.4034 141.141 90.6634C142.157 90.9804 143.209 91.1652 144.271 91.2134C146.671 91.2734 149.071 91.2834 151.461 91.1134C155.588 90.8632 159.696 90.3622 163.761 89.6134C164.761 89.4234 165.711 89.1834 166.681 88.9534C170.003 88.1614 173.025 86.4249 175.381 83.9534C175.831 83.4834 176.311 83.0434 176.761 82.6034C176.971 82.7334 177.141 82.7734 177.161 82.8634C178.199 86.6327 178.434 90.5777 177.851 94.4434ZM90.0014 107.953C90.0844 107.814 90.1853 107.686 90.3014 107.573C90.448 107.478 90.6106 107.41 90.7814 107.373C90.6614 107.843 90.3814 108.013 90.0014 107.953Z" fill="#B5A08B"/>
<path d="M88.7016 88.9434C88.2164 88.3947 87.6538 87.9197 87.0316 87.5334C86.6892 87.2613 86.2844 87.0788 85.8537 87.0026C85.4231 86.9263 84.9802 86.9586 84.5652 87.0966C84.1502 87.2347 83.7762 87.474 83.4769 87.7929C83.1777 88.1119 82.9628 88.5005 82.8516 88.9234C82.6208 89.7019 82.4535 90.4979 82.3516 91.3034C82.4387 94.4245 83.4286 97.4534 85.2016 100.023C85.9566 101.043 86.9305 101.88 88.0516 102.473C88.4028 102.703 88.8021 102.849 89.2186 102.901C89.6352 102.953 90.058 102.908 90.4547 102.771C90.8514 102.634 91.2115 102.408 91.5074 102.11C91.8032 101.813 92.027 101.451 92.1616 101.053C92.5498 100.129 92.7044 99.1222 92.6116 98.1234C92.3397 94.72 90.9672 91.4976 88.7016 88.9434ZM90.4316 100.153C90.3944 100.315 90.3176 100.465 90.2079 100.59C90.0982 100.715 89.9592 100.81 89.8034 100.868C89.6476 100.926 89.4799 100.943 89.3155 100.92C89.151 100.896 88.995 100.832 88.8616 100.733C87.9878 100.137 87.2091 99.4122 86.5516 98.5834C85.0405 96.3694 84.248 93.7437 84.2816 91.0634C84.3716 90.7434 84.5316 90.0634 84.7816 89.3734C84.8197 89.281 84.8778 89.1982 84.9516 89.1308C85.0255 89.0634 85.1132 89.0131 85.2087 88.9835C85.3042 88.9539 85.4051 88.9457 85.5041 88.9595C85.6031 88.9733 85.6978 89.0088 85.7816 89.0634C86.2477 89.3112 86.6782 89.6206 87.0616 89.9834C89.1729 92.2307 90.4567 95.1296 90.7016 98.2034C90.7255 98.8642 90.6342 99.5241 90.4316 100.153Z" fill="#B5A08B"/>
<path d="M95.0916 112.313C94.2587 112.105 93.4137 111.948 92.5616 111.843V111.953C92.3616 111.953 92.1616 111.953 91.9616 111.953C91.425 111.951 90.8951 112.073 90.4134 112.31C89.9317 112.547 89.5113 112.891 89.185 113.317C88.8587 113.743 88.6353 114.239 88.5324 114.766C88.4295 115.293 88.4497 115.836 88.5916 116.353C88.7194 117.005 88.9137 117.642 89.1716 118.253C90.2616 120.833 92.1716 122.413 95.4416 122.093L96.2316 122.023C97.6177 121.858 99.021 121.909 100.392 122.173C100.781 122.266 101.182 122.3 101.582 122.273C101.815 122.271 102.046 122.221 102.26 122.127C102.474 122.032 102.666 121.895 102.825 121.724C102.984 121.553 103.107 121.351 103.185 121.131C103.264 120.911 103.297 120.677 103.282 120.443C103.271 119.507 102.975 118.596 102.432 117.833C100.738 115.162 98.1284 113.199 95.0916 112.313ZM100.562 120.313C98.8524 120.019 97.1071 119.998 95.3916 120.253C94.7434 120.328 94.0866 120.261 93.467 120.056C92.8474 119.852 92.2799 119.514 91.8039 119.068C91.328 118.622 90.9551 118.077 90.7112 117.472C90.4673 116.866 90.3582 116.215 90.3916 115.563C90.3709 115.362 90.3919 115.159 90.4533 114.966C90.5147 114.774 90.6151 114.596 90.7484 114.444C90.8817 114.292 91.0449 114.169 91.2278 114.083C91.4108 113.997 91.6095 113.949 91.8116 113.943C92.6031 113.846 93.4055 113.89 94.1816 114.073C96.9188 114.76 99.2904 116.466 100.812 118.843C101.013 119.255 101.167 119.688 101.272 120.133C101.043 120.213 100.803 120.256 100.562 120.263V120.313Z" fill="#B5A08B"/>
<path d="M68.361 95.7634C68.304 97.6289 68.6205 99.4869 69.292 101.228C69.9634 102.97 70.9763 104.559 72.271 105.903C72.546 106.195 72.851 106.456 73.181 106.683C74.181 107.383 75.281 107.933 76.511 107.293C77.741 106.653 78.011 105.503 78.081 104.223C77.931 103.443 77.831 102.653 77.631 101.883C76.9033 99.3948 75.8969 96.9963 74.631 94.7334C74.2209 93.9627 73.6598 93.2825 72.981 92.7334C72.6703 92.4241 72.284 92.2016 71.8606 92.088C71.4371 91.9744 70.9913 91.9737 70.5675 92.086C70.1437 92.1983 69.7567 92.4196 69.445 92.7279C69.1333 93.0363 68.9079 93.4209 68.791 93.8434C68.5305 94.4514 68.3847 95.1024 68.361 95.7634ZM70.361 94.9234C70.581 93.9834 71.301 93.7534 71.961 94.4034C72.4193 94.8134 72.8018 95.3008 73.091 95.8434C74.031 97.9634 74.951 100.093 75.751 102.273C75.9826 103.099 76.0738 103.958 76.021 104.813C76.021 105.543 75.391 105.813 74.741 105.433C74.228 105.131 73.7629 104.753 73.361 104.313C71.4257 102.113 70.3095 99.3118 70.201 96.3834C70.2359 95.8929 70.3027 95.4052 70.401 94.9234H70.361Z" fill="#B5A08B"/>
<path d="M90.4519 129.143C89.5154 127.429 88.1721 125.97 86.5401 124.896C84.908 123.822 83.0372 123.165 81.0919 122.983C80.458 123.057 79.8321 123.187 79.2219 123.373C78.8859 123.486 78.5859 123.686 78.3525 123.952C78.1192 124.219 77.9608 124.543 77.8937 124.891C77.8265 125.239 77.853 125.598 77.9704 125.933C78.0878 126.267 78.2919 126.564 78.5619 126.793C79.0264 127.172 79.5252 127.507 80.0519 127.793C81.4019 128.643 82.7619 129.463 84.1019 130.333C84.9919 130.913 85.8219 131.593 86.7219 132.153C87.2794 132.522 87.8852 132.811 88.5219 133.013C88.8356 133.12 89.1722 133.142 89.4971 133.076C89.822 133.01 90.1235 132.859 90.3707 132.638C90.618 132.417 90.8021 132.135 90.9042 131.82C91.0063 131.504 91.0228 131.167 90.9519 130.843C90.8929 130.251 90.7233 129.674 90.4519 129.143ZM87.2819 130.253C86.7819 129.943 86.2819 129.573 85.8219 129.253C85.3619 128.933 84.8219 128.553 84.3719 128.253C83.9219 127.953 83.5119 127.643 83.0619 127.363C82.6119 127.083 82.0619 126.773 81.5119 126.473C80.9619 126.173 80.5119 125.863 79.8519 125.473C80.2319 125.263 80.4419 125.053 80.6519 125.043C81.783 124.99 82.909 125.227 83.9219 125.733C85.5741 126.44 87.0145 127.563 88.1019 128.993C88.6215 129.532 88.9211 130.245 88.9419 130.993C88.1819 131.033 87.7619 130.553 87.2819 130.253Z" fill="#B5A08B"/>
<path d="M105.351 77.5935C105.064 77.4251 104.746 77.3154 104.416 77.2705C104.087 77.2257 103.751 77.2466 103.429 77.3322C103.108 77.4177 102.806 77.5662 102.542 77.7689C102.278 77.9717 102.057 78.2247 101.891 78.5134C101.425 79.246 101.176 80.0953 101.171 80.9635C101.094 83.7632 101.891 86.5174 103.451 88.8435C103.747 89.2832 104.124 89.6632 104.561 89.9635C104.871 90.2402 105.245 90.4341 105.65 90.5272C106.054 90.6202 106.476 90.6093 106.875 90.4955C107.275 90.3817 107.638 90.1687 107.933 89.8764C108.228 89.584 108.444 89.2218 108.561 88.8235C108.863 87.8854 109.093 86.926 109.251 85.9535C109.136 83.8161 108.552 81.7301 107.541 79.8435C107.047 78.8952 106.286 78.1128 105.351 77.5935ZM106.801 88.1435C106.759 88.2521 106.691 88.3488 106.603 88.4249C106.515 88.5011 106.409 88.5543 106.295 88.58C106.182 88.6057 106.064 88.603 105.951 88.5722C105.839 88.5415 105.736 88.4835 105.651 88.4034C105.38 88.2154 105.143 87.982 104.951 87.7135C103.684 85.7596 103.029 83.4718 103.071 81.1435C103.108 80.6989 103.205 80.2614 103.361 79.8435C103.402 79.7158 103.473 79.6001 103.569 79.5068C103.665 79.4135 103.783 79.3455 103.912 79.3089C104.04 79.2722 104.176 79.268 104.307 79.2968C104.438 79.3255 104.56 79.3862 104.661 79.4734C105.163 79.8804 105.598 80.3628 105.951 80.9034C106.861 82.5581 107.314 84.4257 107.261 86.3135C107.181 86.6235 107.041 87.3935 106.801 88.1435Z" fill="#B5A08B"/>
<path d="M104.541 103.413C102.971 103.313 101.671 103.893 101.311 104.853C101.127 105.393 101.111 105.976 101.266 106.524C101.422 107.073 101.741 107.561 102.181 107.923C103.49 109.334 105.016 110.526 106.701 111.453C107.631 111.986 108.712 112.19 109.771 112.033C110.267 111.969 110.725 111.735 111.066 111.37C111.407 111.005 111.611 110.532 111.641 110.033C111.733 109.169 111.521 108.299 111.041 107.573C110.337 106.439 109.388 105.476 108.263 104.756C107.139 104.036 105.867 103.577 104.541 103.413ZM108.951 110.163C108.432 110.078 107.927 109.92 107.451 109.693C105.936 108.868 104.581 107.777 103.451 106.473C103.29 106.221 103.162 105.949 103.071 105.663C103.491 105.523 103.861 105.273 104.191 105.313C105.247 105.418 106.265 105.764 107.167 106.324C108.068 106.884 108.829 107.643 109.391 108.543C109.521 108.771 109.616 109.017 109.671 109.273C109.713 109.382 109.726 109.499 109.708 109.614C109.69 109.729 109.642 109.837 109.569 109.927C109.496 110.017 109.4 110.087 109.292 110.128C109.183 110.17 109.066 110.182 108.951 110.163Z" fill="#B5A08B"/>
<path d="M61.6319 109.683C62.6319 111.613 63.7519 113.503 64.8519 115.393C65.2874 116.167 66.0034 116.743 66.8519 117.003C67.0866 117.086 67.3359 117.12 67.584 117.101C67.8322 117.083 68.0739 117.013 68.2938 116.897C68.5137 116.78 68.707 116.619 68.8616 116.424C69.0162 116.229 69.1286 116.004 69.1919 115.763C69.2819 115.443 69.2919 115.113 69.3519 114.763C69.3154 114.303 69.2486 113.845 69.1519 113.393C68.4134 110.823 66.8584 108.562 64.7219 106.953C64.2361 106.612 63.6947 106.359 63.1219 106.203C62.8819 106.117 62.6237 106.093 62.3718 106.134C62.12 106.175 61.8827 106.279 61.6825 106.437C61.4822 106.595 61.3257 106.802 61.2276 107.038C61.1295 107.273 61.0931 107.53 61.1219 107.783C61.1577 108.445 61.3314 109.093 61.6319 109.683ZM65.8319 110.943C66.5419 112.083 67.4419 113.203 67.1819 114.793C66.9219 114.673 66.7019 114.643 66.5919 114.513C65.4075 112.712 64.374 110.815 63.5019 108.843C64.4519 109.123 64.9519 109.493 65.8319 110.943Z" fill="#B5A08B"/>
<path d="M122.442 68.4934C121.78 69.1598 121.351 70.023 121.222 70.9534C121.02 72.2745 121.126 73.6244 121.532 74.8976C121.938 76.1709 122.632 77.3331 123.562 78.2934C123.648 78.4409 123.773 78.5621 123.923 78.644C124.073 78.7259 124.242 78.7653 124.413 78.7581C124.584 78.7509 124.749 78.6974 124.892 78.6031C125.034 78.5089 125.148 78.3777 125.222 78.2234C126.533 76.2764 127.229 73.9807 127.222 71.6334C127.263 70.5453 126.908 69.4791 126.222 68.6334C126 68.349 125.719 68.1166 125.398 67.9523C125.077 67.7881 124.725 67.6961 124.364 67.6827C124.004 67.6694 123.645 67.735 123.313 67.8751C122.981 68.0152 122.684 68.2262 122.442 68.4934ZM124.232 75.9334C123.68 75.2099 123.302 74.3688 123.129 73.4755C122.956 72.5822 122.991 71.6609 123.232 70.7834C123.272 70.521 123.388 70.2761 123.566 70.0788C123.743 69.8816 123.975 69.7407 124.232 69.6734C124.652 69.5934 125.142 70.1834 125.232 70.9534C125.503 72.6796 125.149 74.446 124.232 75.9334Z" fill="#B5A08B"/>
<path d="M93.001 84.6034C92.5397 84.4814 92.0492 84.5423 91.6318 84.7733C91.2144 85.0044 90.9024 85.3878 90.761 85.8434C90.5925 86.342 90.5513 86.8748 90.641 87.3934C90.9077 88.6341 91.4658 89.7935 92.2691 90.776C93.0724 91.7584 94.0979 92.5356 95.261 93.0434C95.4969 93.1706 95.7616 93.2348 96.0295 93.2299C96.2975 93.225 96.5597 93.1512 96.7908 93.0155C97.0219 92.8799 97.2142 92.687 97.3491 92.4554C97.484 92.2238 97.557 91.9614 97.561 91.6934C97.561 91.5634 97.561 91.4234 97.561 90.9334C97.4241 89.7691 97.0413 88.6472 96.4379 87.642C95.8345 86.6369 95.0242 85.7716 94.061 85.1034C93.7401 84.8752 93.3812 84.7059 93.001 84.6034ZM95.451 90.4734C95.451 90.5234 95.381 90.5834 95.291 90.7134C94.5563 90.3244 93.9192 89.7741 93.4274 89.1039C92.9355 88.4337 92.6017 87.6609 92.451 86.8434C92.761 86.8434 93.061 86.7134 93.201 86.8434C93.8116 87.2547 94.3279 87.791 94.7158 88.4168C95.1037 89.0425 95.3543 89.7435 95.451 90.4734Z" fill="#B5A08B"/>
<path d="M113.952 77.3834C113.61 77.1699 113.219 77.0486 112.817 77.0312C112.415 77.0139 112.015 77.1011 111.656 77.2844C111.297 77.4678 110.992 77.7409 110.771 78.0772C110.549 78.4136 110.419 78.8016 110.392 79.2034C110.337 79.5982 110.337 79.9987 110.392 80.3934C110.612 81.9131 111.273 83.3349 112.292 84.4834C112.602 84.833 112.967 85.1301 113.372 85.3634C113.625 85.5332 113.915 85.6427 114.217 85.6836C114.52 85.7244 114.827 85.6954 115.117 85.5989C115.407 85.5024 115.67 85.3408 115.888 85.1267C116.105 84.9125 116.271 84.6514 116.372 84.3634C116.549 83.8719 116.686 83.367 116.782 82.8534C116.727 81.1025 116.062 79.4258 114.902 78.1134C114.623 77.825 114.302 77.579 113.952 77.3834ZM114.592 83.6734C114.331 83.5931 114.082 83.4788 113.852 83.3334C112.906 82.4063 112.333 81.1646 112.242 79.8434C112.237 79.7191 112.262 79.5954 112.314 79.4825C112.366 79.3695 112.444 79.2705 112.542 79.1934C112.657 79.148 112.781 79.1325 112.903 79.1482C113.026 79.1639 113.142 79.2105 113.242 79.2834C113.858 79.8124 114.311 80.5071 114.544 81.2852C114.778 82.0632 114.784 82.892 114.562 83.6734H114.592Z" fill="#B5A08B"/>
<path d="M131.481 88.8934C131.361 88.8934 131.231 88.8134 131.101 88.7734C129.836 88.368 128.49 88.2788 127.181 88.5134C126.6 88.6353 126.038 88.8372 125.511 89.1134C125.032 89.2702 124.618 89.5824 124.335 90.0008C124.053 90.4192 123.918 90.9198 123.951 91.4234C124.071 92.6034 124.951 93.0734 125.951 93.3634C126.53 93.503 127.118 93.5966 127.711 93.6434C128.241 93.6494 128.77 93.6059 129.291 93.5134C130.176 93.2566 131.036 92.922 131.861 92.5134C132.24 92.3483 132.553 92.0625 132.752 91.7007C132.951 91.339 133.025 90.9215 132.961 90.5134C132.884 90.135 132.705 89.7845 132.445 89.4993C132.184 89.2141 131.851 89.0047 131.481 88.8934ZM126.311 91.3834C126.141 90.9634 126.421 90.7734 126.731 90.6434C127.905 90.1835 129.208 90.1835 130.381 90.6434C130.471 90.6434 130.511 90.8534 130.581 90.9634C129.963 91.3885 129.247 91.65 128.501 91.7235C127.754 91.7969 127.001 91.6799 126.311 91.3834Z" fill="#B5A08B"/>
<path d="M112.882 98.2734C112.612 98.4419 112.389 98.675 112.232 98.9515C112.076 99.2281 111.991 99.5394 111.985 99.8572C111.979 100.175 112.052 100.489 112.198 100.771C112.345 101.054 112.559 101.295 112.822 101.473C113.686 102.113 114.75 102.422 115.822 102.343C116.705 102.356 117.568 102.082 118.282 101.563C118.528 101.418 118.735 101.215 118.885 100.972C119.035 100.729 119.125 100.453 119.145 100.168C119.166 99.8834 119.117 99.5977 119.003 99.3356C118.89 99.0735 118.714 98.8429 118.492 98.6634C117.71 98.0303 116.752 97.6533 115.748 97.5835C114.745 97.5137 113.744 97.7546 112.882 98.2734ZM115.782 100.413C115.232 100.413 114.532 100.623 114.332 99.7834C114.682 99.6022 115.072 99.5135 115.466 99.5258C115.86 99.538 116.244 99.6508 116.582 99.8534C116.632 100.473 116.122 100.423 115.782 100.413Z" fill="#B5A08B"/>
<path d="M69.3418 165.753L69.4318 165.323C69.3918 165.453 69.3718 165.603 69.3418 165.753Z" fill="#B5A08B"/>
<path d="M138.071 57.8434L138.151 58.0534C138.151 58.0534 138.151 57.9734 138.151 57.9434C138.131 57.9052 138.104 57.8712 138.071 57.8434Z" fill="#B5A08B"/>
<path d="M72.5117 32.8434V33.0934C72.519 33.0103 72.519 32.9266 72.5117 32.8434Z" fill="#B5A08B"/>
<path d="M103.661 24.8435L103.791 25.0235V24.7935L103.661 24.8435Z" fill="#B5A08B"/>
</svg>
