<svg width="201" height="200" viewBox="0 0 201 200" fill="none" xmlns="http://www.w3.org/2000/svg">
<path d="M183.274 107.554C181.893 98.1882 179.654 88.9694 176.584 80.0141C172.111 66.5277 165.711 53.7589 157.584 42.1041C149.215 30.0825 138.449 19.9228 125.964 12.2641C119.294 8.06977 112.005 4.95476 104.364 3.03406C97.5315 1.35612 90.4263 1.10759 83.4936 2.30406C76.4587 3.57765 69.7067 6.09358 63.5536 9.73406C56.2574 14.0518 49.628 19.4079 43.8736 25.6341C41.2816 28.3266 38.9913 31.2942 37.0436 34.4841C36.7736 34.9441 36.4436 35.3641 36.1736 35.8241C35.9873 36.1377 35.7353 36.4073 35.435 36.6145C35.1346 36.8216 34.793 36.9613 34.4336 37.0241C32.5009 37.5632 30.6816 38.4474 29.0636 39.6341C26.2866 41.6125 23.9507 44.146 22.2036 47.0741C18.3478 53.367 16.3317 60.614 16.3836 67.9941C16.3248 75.1956 17.7087 82.3359 20.4536 88.9941C23.3973 95.9346 27.1499 102.503 31.6336 108.564C37.2457 116.203 43.6331 123.24 50.6936 129.564C61.6802 139.393 73.494 148.256 86.0036 156.054C101.365 165.981 118.204 173.406 135.894 178.054C140.734 179.294 145.544 180.654 150.274 182.284C158.129 184.959 165.245 189.447 171.044 195.384C171.704 196.054 172.354 196.724 173.044 197.384C173.429 197.748 173.867 198.052 174.344 198.284C174.523 198.378 174.72 198.431 174.922 198.439C175.124 198.447 175.325 198.41 175.511 198.33C175.697 198.251 175.863 198.131 175.996 197.979C176.13 197.828 176.228 197.648 176.284 197.454C176.449 196.949 176.55 196.425 176.584 195.894C176.714 194.504 176.814 193.104 176.894 191.704C177.378 184.592 178.269 177.514 179.564 170.504C181.054 161.974 182.564 153.454 183.504 144.824C184.064 139.524 184.504 134.214 184.584 128.884C184.753 121.75 184.315 114.614 183.274 107.554ZM169.804 191.554C169.744 191.52 169.69 191.476 169.644 191.424C163.104 185.424 155.384 181.674 146.964 179.204C142.044 177.764 137.094 176.424 132.154 175.034C119.701 171.503 107.726 166.466 96.4936 160.034C80.708 151.147 65.9202 140.593 52.3836 128.554C45.2736 122.25 38.8511 115.211 33.2236 107.554C28.8921 101.723 25.2543 95.4068 22.3836 88.7341C19.5472 82.0185 18.1504 74.7828 18.2836 67.4941C18.3138 60.5846 20.2555 53.8182 23.8936 47.9441C25.6578 44.9292 28.1332 42.392 31.1036 40.5541C32.2075 39.9447 33.3461 39.4004 34.5136 38.9241C34.8463 38.7639 35.214 38.69 35.5827 38.7092C35.9514 38.7284 36.3094 38.8401 36.6236 39.0341C37.2536 39.4041 37.9136 39.7141 38.6236 40.0341C38.6029 40.2554 38.5455 40.4717 38.4536 40.6741C35.7862 44.3492 33.7951 48.4703 32.5736 52.8441C30.7924 58.6456 29.6752 64.6306 29.2436 70.6841C29.2436 70.6841 29.2436 70.7741 29.3836 70.9441C29.5636 70.4341 29.7436 70.0141 29.8636 69.5741C30.5336 67.1341 31.1636 64.6841 31.8636 62.2441C33.7274 55.7076 35.9473 49.278 38.5136 42.9841C38.7417 42.1352 39.1588 41.349 39.7336 40.6841C40.5486 40.8807 41.2993 41.2836 41.9136 41.8541C41.9136 42.1041 41.9636 42.2541 41.9136 42.3541C40.3145 45.8077 39.2748 49.4938 38.8336 53.2741C38.051 58.0783 37.6465 62.9365 37.6236 67.8041C37.6264 79.0283 39.5508 90.1693 43.3136 100.744C45.5579 107.593 48.4196 114.223 51.8636 120.554C52.1827 121.139 52.5332 121.707 52.9136 122.254C53.0336 122.414 53.3736 122.424 53.6036 122.504H53.6536C53.4349 122.267 53.2498 122.001 53.1036 121.714C48.984 111.889 45.5459 101.792 42.8136 91.4941C40.7179 83.4175 39.709 75.0974 39.8136 66.7541C39.9362 61.3568 40.5014 55.9788 41.5036 50.6741C41.9236 48.3841 42.2336 46.0641 42.6136 43.7641C42.6736 43.3941 42.7836 43.0241 42.9036 42.5141C43.4436 42.7341 43.9036 42.8641 44.2636 43.0741C50.7166 46.5435 56.9912 50.3349 63.0636 54.4341C63.0636 55.0741 63.0036 55.6041 62.9636 56.1341C62.8136 57.9841 62.5636 59.8441 62.5236 61.7041C62.4051 68.6382 62.6923 75.5734 63.3836 82.4741C64.0719 89.9738 65.3052 97.4134 67.0736 104.734C68.8486 111.986 71.2785 119.062 74.3336 125.874C76.6824 131.266 79.3711 136.503 82.3836 141.554C82.7736 142.174 83.1536 142.804 83.5536 143.414C83.7164 143.632 83.9007 143.833 84.1036 144.014C83.9313 143.136 83.6172 142.291 83.1736 141.514C79.9636 134.254 76.8836 126.954 74.0736 119.514C70.4369 109.912 67.9007 99.9279 66.5136 89.7541C65.6726 83.816 65.1452 77.8377 64.9336 71.8441C64.8536 69.1741 64.8036 66.5041 64.6836 63.8441C64.5836 61.7141 64.4036 59.5941 64.2536 57.4641C64.2536 56.8741 64.1836 56.2841 64.1436 55.5341C64.426 55.5681 64.7021 55.6422 64.9636 55.7541C72.1185 60.6248 78.9741 65.921 85.4936 71.6141C85.6196 71.7517 85.7302 71.9026 85.8236 72.0641C85.8236 72.2541 85.8236 72.5841 85.8236 72.9141C85.5936 77.5092 85.7039 82.1151 86.1536 86.6941C86.6036 92.0041 86.9736 97.3241 87.4936 102.634C88.1757 110.937 89.3713 119.189 91.0736 127.344C92.2196 133.029 93.8283 138.611 95.8836 144.034C96.25 144.98 96.7556 145.867 97.3836 146.664C97.2136 145.924 97.0536 145.174 96.8836 144.424C94.6236 134.954 92.7336 125.424 91.3636 115.784C90.3036 108.254 89.5336 100.704 88.9536 93.1241C88.6036 88.6041 88.2536 84.1241 87.8536 79.5741C87.7136 77.9841 87.4136 76.4141 87.1936 74.8241C87.1336 74.3741 87.0936 73.9141 87.0436 73.4741C87.6936 73.1941 87.9536 73.6941 88.2536 73.9841C91.8236 77.3841 95.4236 80.7641 98.9236 84.2341C101.004 86.3041 102.924 88.5241 104.924 90.6641C105.182 90.9274 105.384 91.2404 105.518 91.5842C105.653 91.9279 105.716 92.2953 105.704 92.6641C105.822 96.6464 106.189 100.618 106.804 104.554C107.37 109.221 107.987 113.911 108.654 118.624C110.094 128.734 111.984 138.744 115.454 148.374C117.364 153.908 119.76 159.262 122.614 164.374C123.014 165.054 123.454 165.714 123.974 166.554C124.284 165.694 123.844 165.204 123.654 164.704C121.114 157.904 118.654 151.094 116.434 144.154C114.369 137.537 112.818 130.77 111.794 123.914C110.794 116.914 109.874 109.914 108.904 102.914C108.504 100.014 108.054 97.1241 107.624 94.1841C108.254 94.1841 108.474 94.7241 108.764 95.0941C112.234 99.4941 115.764 103.854 119.104 108.334C123.354 113.984 127.234 119.884 130.974 125.884C131.49 126.738 131.938 127.63 132.314 128.554C134.374 133.414 135.624 138.554 137.084 143.554C138.544 148.554 139.894 153.424 141.484 158.294C142.826 162.625 144.536 166.834 146.594 170.874C146.828 171.555 147.251 172.155 147.814 172.604L137.584 137.554C138.194 137.624 138.314 138.134 138.504 138.464C140.837 142.511 143.15 146.561 145.444 150.614C147.814 154.794 150.154 158.984 152.534 163.144C157.964 172.644 163.734 181.924 170.044 190.854C170.224 191.114 170.374 191.404 170.524 191.664C170.174 192.014 170.014 191.684 169.804 191.554ZM182.404 135.754C181.626 145.92 180.291 156.035 178.404 166.054C177.314 172.214 176.224 178.384 175.564 184.614C175.314 187.004 175.174 189.394 174.984 191.784C174.894 192.844 174.784 193.894 174.664 195.204C174.354 194.993 174.072 194.744 173.824 194.464C173.03 193.237 172.257 191.994 171.504 190.734C162.324 175.414 153.214 160.064 144.574 144.424C144.324 143.964 144.094 143.494 143.874 143.054C144.164 142.654 144.404 142.904 144.574 143.054C145.514 143.904 146.444 144.764 147.354 145.634C152.777 150.965 157.643 156.835 161.874 163.154C163.274 165.154 164.614 167.254 165.984 169.304L166.884 170.644C167.324 170.314 167.024 170.004 166.934 169.784C166.414 168.484 165.934 167.174 165.284 165.934C161.913 159.205 157.566 153.011 152.384 147.554C149.541 144.544 146.281 141.958 142.704 139.874C141.907 139.387 141.255 138.697 140.814 137.874C137.644 132.624 134.504 127.364 131.254 122.164C127.474 116.164 123.394 110.264 119.114 104.554C118.754 104.084 118.444 103.554 118.114 103.094C118.304 102.984 118.434 102.864 118.514 102.884C124.814 105.074 131.324 106.494 137.714 108.364C142.384 109.734 146.984 111.364 151.514 113.084C155.931 114.79 160.141 116.991 164.064 119.644C167.129 121.657 170.062 123.864 172.844 126.254C173.122 126.499 173.435 126.702 173.774 126.854C172.752 125.467 171.575 124.202 170.264 123.084C162.441 115.97 153.128 110.695 143.004 107.644C137.394 105.954 131.734 104.424 126.094 102.844C123.101 101.923 120.047 101.218 116.954 100.734C116.689 100.702 116.433 100.618 116.201 100.486C115.969 100.353 115.766 100.176 115.604 99.9641C115.364 99.6441 115.104 99.3341 114.864 99.0241C107.598 89.7941 99.5694 81.1905 90.8636 73.3041C90.4336 72.9141 90.0336 72.4841 89.6636 72.1241C89.7536 71.6141 90.0536 71.6741 90.3036 71.6841L108.884 72.3141C118.617 72.516 128.294 73.8414 137.724 76.2641C143.645 77.8634 149.378 80.0928 154.824 82.9141C160.912 86.057 166.779 89.612 172.384 93.5541C172.714 93.7841 173.054 93.9841 173.384 94.1841C173.384 94.1841 173.494 94.1841 173.684 94.0641C173.54 93.7979 173.365 93.5495 173.164 93.3241C171.804 92.0541 170.484 90.7241 169.024 89.5741C157.906 80.7442 144.769 74.8134 130.794 72.3141C125.217 71.3229 119.587 70.6552 113.934 70.3141C108.214 69.9541 102.484 69.7641 96.7536 69.9741C94.1636 70.0741 91.5736 70.3641 88.9936 70.6241C88.7108 70.6686 88.4218 70.6543 88.1448 70.5821C87.8678 70.5098 87.6086 70.3811 87.3836 70.2041L73.8436 59.2641C73.7305 59.1289 73.6332 58.9813 73.5536 58.8241C73.8115 58.6623 74.091 58.5378 74.3836 58.4541C78.3836 57.9241 82.4336 57.3241 86.4736 56.9141C91.4268 56.4073 96.4118 56.2869 101.384 56.5541C116.854 57.4141 131.844 60.7741 146.584 65.3241C151.344 66.7941 156.014 68.5041 160.734 70.1041C160.604 69.5841 160.134 69.4241 159.734 69.2441C158.094 68.5141 156.464 67.7641 154.794 67.0941C144.974 63.1278 134.868 59.9087 124.564 57.4641C118.979 56.1883 113.317 55.2797 107.614 54.7441C101.376 54.1276 95.0975 54.0306 88.8436 54.4541C84.9874 54.6476 81.1541 55.1627 77.3836 55.9941C75.8336 56.3741 74.3136 56.8841 72.8036 57.3941C72.504 57.5301 72.1735 57.5833 71.8463 57.5481C71.5192 57.5129 71.2075 57.3906 70.9436 57.1941C67.1836 54.5541 63.3836 52.0141 59.5836 49.4141C59.4654 49.3067 59.3642 49.1819 59.2836 49.0441C59.4136 48.9441 59.5336 48.7541 59.6736 48.7441C64.8031 47.9079 69.8786 46.7692 74.8736 45.3341C80.8136 43.8441 86.7636 42.3341 92.8036 41.3341C99.8231 40.0572 106.95 39.4611 114.084 39.5541C118.538 39.7035 122.979 40.1175 127.384 40.7941C133.188 41.5915 138.933 42.7673 144.584 44.3141C144.784 44.3741 144.964 44.4441 145.154 44.5141C145.044 43.8641 144.454 43.7741 144.004 43.5141C141.395 42.3275 138.693 41.3608 135.924 40.6241C127.499 38.2732 118.779 37.155 110.034 37.3041C102.977 37.4926 95.9498 38.2991 89.0336 39.7141C79.8736 41.5541 70.8536 43.9541 61.8436 46.3941C60.3036 46.8141 58.7936 47.3441 57.3136 47.8041C54.8715 46.5863 52.5307 45.1752 50.3136 43.5841C50.3136 43.1241 50.7236 43.1341 51.0136 43.0441C54.3733 41.9628 57.6601 40.6668 60.8536 39.1641C67.1962 36.2026 73.7634 33.7483 80.4936 31.8241C87.2572 30.0249 94.168 28.8335 101.144 28.2641C108.252 27.636 115.39 27.4023 122.524 27.5641C123.914 27.5641 125.304 27.7041 127.164 27.8041C126.284 27.5041 125.864 27.3041 125.424 27.2041C122.423 26.5649 119.377 26.1636 116.314 26.0041C111.387 25.7541 106.45 25.7541 101.524 26.0041C93.0626 26.4855 84.6946 28.0207 76.6136 30.5741C67.6311 33.3901 58.9674 37.1372 50.7636 41.7541C50.1236 42.1141 49.4836 42.4541 48.7636 42.8141C47.646 42.4306 46.5988 41.8664 45.6636 41.1441C45.91 40.8854 46.1776 40.648 46.4636 40.4341C49.145 38.6905 51.7043 36.766 54.1236 34.6741C57.8636 31.5541 61.6036 28.5541 65.5636 25.8741C71.5271 21.8339 77.8466 18.3462 84.4436 15.4541C85.1236 15.1441 85.7736 14.7641 86.4436 14.4541C85.8381 14.4713 85.2355 14.5449 84.6436 14.6741C82.8536 15.1841 81.0536 15.6741 79.3136 16.3541C72.6856 18.8316 66.4536 22.2609 60.8136 26.5341C55.5582 30.41 50.6071 34.6825 46.0036 39.3141C45.5936 39.7341 45.1336 40.1141 44.6636 40.5541C43.5372 40.1601 42.4574 39.6437 41.4436 39.0141C41.7053 38.7145 42.0006 38.4461 42.3236 38.2141C44.6693 36.8069 46.8208 35.0991 48.7236 33.1341C50.6136 31.2541 52.5236 29.3941 54.4036 27.4941C54.9612 27.0443 55.4178 26.4821 55.7436 25.8441C55.6436 25.7541 55.6036 25.6941 55.5436 25.6741C55.4828 25.6491 55.4145 25.6491 55.3536 25.6741C55.0638 25.8329 54.7863 26.0134 54.5236 26.2141C51.0936 28.9641 47.6236 31.6741 44.2536 34.5041C42.9166 35.7299 41.6449 37.025 40.4436 38.3841C39.4373 38.2186 38.4864 37.8101 37.6736 37.1941C37.8536 36.8441 37.9936 36.5541 38.1536 36.2741C40.131 32.943 42.4793 29.8466 45.1536 27.0441C50.8046 20.9183 57.316 15.6465 64.4836 11.3941C70.3496 7.91478 76.7804 5.4914 83.4836 4.23406C90.3963 2.99627 97.493 3.24169 104.304 4.95406C111.024 6.68218 117.458 9.37696 123.404 12.9541C135.392 19.9844 145.829 29.3737 154.084 40.5541C162.261 51.615 168.779 63.8102 173.434 76.7541C176.789 85.8354 179.293 95.2091 180.914 104.754C182.603 115.006 183.097 125.419 182.384 135.784L182.404 135.754Z" fill="#B5A08B"/>
<path d="M175.514 106.284C175.415 105.288 175.101 104.326 174.594 103.464C173.368 101.244 171.84 99.2045 170.054 97.404C165.929 93.1353 161.19 89.5054 155.994 86.634C147.953 81.9555 138.837 79.4405 129.534 79.334C129.074 79.334 128.604 79.334 128.134 79.334C125.936 79.3433 123.745 79.5745 121.594 80.024C119.034 80.704 118.374 82.684 120.094 84.674C120.844 85.5259 121.705 86.2726 122.654 86.894C124.544 88.124 126.484 89.304 128.474 90.374C134.418 93.5121 140.557 96.2644 146.854 98.614C153.854 101.314 160.934 103.904 167.764 107.074C168.604 107.464 169.494 107.764 170.374 108.074C170.869 108.262 171.377 108.416 171.894 108.534C172.346 108.64 172.809 108.697 173.274 108.704C173.592 108.735 173.912 108.692 174.211 108.579C174.509 108.465 174.778 108.284 174.995 108.05C175.211 107.816 175.371 107.534 175.461 107.228C175.551 106.922 175.569 106.599 175.514 106.284ZM173.514 106.714C173.132 106.764 172.746 106.764 172.364 106.714C171.397 106.453 170.45 106.119 169.534 105.714C160.934 101.784 152.004 98.644 143.234 95.114C138.217 93.1403 133.327 90.8559 128.594 88.274C126.594 87.174 124.724 85.914 122.854 84.654C122.44 84.4403 122.074 84.1435 121.78 83.7822C121.486 83.4209 121.269 83.0028 121.144 82.554C121.393 82.2323 121.718 81.9778 122.09 81.8136C122.462 81.6495 122.869 81.5808 123.274 81.614C124.993 81.3943 126.722 81.2641 128.454 81.224C135.602 81.1376 142.689 82.5549 149.254 85.384C156.318 88.3995 162.743 92.7334 168.184 98.154C169.957 99.8722 171.487 101.823 172.734 103.954C173.311 104.753 173.58 105.733 173.494 106.714H173.514Z" fill="#B5A08B"/>
<path d="M147.303 51.9441C146.286 51.0788 145.214 50.2805 144.093 49.5541C141.587 48.0303 138.9 46.8275 136.093 45.9741C128.969 43.778 121.549 42.6886 114.093 42.7441C109.494 42.712 104.902 43.1273 100.383 43.9841C98.9635 44.3041 97.5635 44.7341 96.1735 45.1941C95.5426 45.4297 94.9547 45.7676 94.4335 46.1941C92.9235 47.3241 93.0035 48.9841 94.6235 49.8941C95.3227 50.2841 96.0734 50.5736 96.8535 50.7541C98.7935 51.2041 100.743 51.6241 102.723 51.9341C110.33 53.0741 117.883 54.5941 125.383 56.4941C129.443 57.4941 133.533 58.4941 137.633 59.3241C139.648 59.7898 141.718 59.9782 143.783 59.8841C144.797 59.8471 145.802 59.6995 146.783 59.4441C149.703 58.6241 150.583 56.2541 148.933 53.7341C148.479 53.0619 147.93 52.459 147.303 51.9441ZM145.853 57.7141C144.022 58.0923 142.137 58.1262 140.293 57.8141C136.337 57.2608 132.422 56.4457 128.573 55.3741C122.063 53.7041 115.573 52.1141 108.893 50.9841C105.413 50.3941 101.893 49.8141 98.4735 49.1741C97.3584 49.056 96.2934 48.6493 95.3835 47.9941C95.9305 47.3258 96.6888 46.8638 97.5335 46.6841C99.878 45.9216 102.299 45.4186 104.753 45.1841C109.322 44.6429 113.93 44.5057 118.523 44.7741C124.787 45.0454 130.978 46.2244 136.903 48.2741C139.421 49.1513 141.825 50.3263 144.063 51.7741C145.205 52.4791 146.219 53.3717 147.063 54.4141C148.323 56.1341 147.963 57.1641 145.853 57.7141Z" fill="#B5A08B"/>
<path d="M154.383 122.214C152.964 121.858 151.52 121.608 150.063 121.464C149.395 121.399 148.721 121.436 148.063 121.574C147.726 121.597 147.398 121.699 147.108 121.873C146.817 122.047 146.572 122.287 146.392 122.574C146.213 122.861 146.104 123.186 146.074 123.524C146.045 123.861 146.096 124.2 146.223 124.514C146.435 125.281 146.773 126.008 147.223 126.664C148.103 127.918 149.054 129.12 150.073 130.264C151.933 132.354 153.853 134.384 155.773 136.424C158.375 139.185 160.787 142.118 162.993 145.204C164.433 147.204 165.933 149.204 167.463 151.084C168.219 152.016 169.056 152.88 169.963 153.664C170.557 154.182 171.233 154.598 171.963 154.894C172.459 155.11 173.016 155.139 173.531 154.975C174.046 154.812 174.484 154.467 174.763 154.004C175.062 153.566 175.273 153.073 175.383 152.554C175.593 151.554 175.693 150.464 175.843 149.414C175.723 147.476 175.419 145.554 174.933 143.674C172.163 132.614 165.433 125.304 154.383 122.214ZM173.883 150.484C173.906 150.974 173.828 151.462 173.657 151.921C173.485 152.38 173.222 152.8 172.883 153.154C172 152.942 171.209 152.447 170.633 151.744C169.633 150.674 168.633 149.584 167.743 148.434C166.433 146.764 165.163 145.044 163.943 143.304C162.127 140.755 160.139 138.333 157.993 136.054C155.913 133.814 153.803 131.594 151.753 129.314C150.753 128.184 149.753 126.964 148.873 125.744C148.617 125.48 148.417 125.166 148.285 124.822C148.153 124.479 148.091 124.112 148.103 123.744C148.321 123.537 148.586 123.387 148.876 123.308C149.166 123.229 149.471 123.225 149.763 123.294C150.772 123.386 151.774 123.539 152.763 123.754C163.543 126.344 170.263 133.094 173.073 143.754C173.679 145.944 173.943 148.214 173.853 150.484H173.883Z" fill="#B5A08B"/>
<path d="M111.204 60.1841C109.761 59.4958 108.219 59.0369 106.634 58.8241C102.622 58.1946 98.5465 58.0736 94.5041 58.4641C92.3889 58.5888 90.3145 59.1006 88.3841 59.9741C87.595 60.3229 86.8607 60.7844 86.2041 61.3441C84.6741 62.7641 84.8441 64.5141 86.5541 65.7241C86.9305 65.999 87.3448 66.2179 87.7841 66.3741C88.6626 66.6742 89.5574 66.9245 90.4641 67.1241C92.8309 67.5108 95.2259 67.6981 97.6241 67.6841C100.414 67.4841 103.204 67.3641 105.974 67.0441C107.686 66.8073 109.378 66.4395 111.034 65.9441C111.794 65.7074 112.503 65.331 113.124 64.8341C113.369 64.6574 113.573 64.4288 113.72 64.1647C113.867 63.9006 113.954 63.6073 113.975 63.3057C113.996 63.0041 113.95 62.7016 113.841 62.4196C113.732 62.1376 113.563 61.8831 113.344 61.6741C112.715 61.0663 111.992 60.5633 111.204 60.1841ZM109.964 64.3141C108.754 64.6614 107.521 64.9254 106.274 65.1041C101.86 65.6936 97.398 65.8443 92.9541 65.5541C91.5684 65.4117 90.197 65.1541 88.8541 64.7841C88.4745 64.7269 88.1147 64.5776 87.8061 64.3492C87.4976 64.1209 87.2497 63.8204 87.0841 63.4741C87.1657 63.1294 87.3374 62.8127 87.5817 62.5562C87.8259 62.2996 88.1338 62.1126 88.4741 62.0141C89.7708 61.4753 91.1083 61.0406 92.4741 60.7141C95.0803 60.2234 97.735 60.0388 100.384 60.1641C103.043 60.1554 105.692 60.4916 108.264 61.1641C109.156 61.4274 110.026 61.7618 110.864 62.1641C111.268 62.4195 111.641 62.7216 111.974 63.0641C111.749 63.4047 111.452 63.6927 111.105 63.9085C110.759 64.1242 110.369 64.2625 109.964 64.3141Z" fill="#B5A08B"/>
<path d="M102.383 19.954C98.1841 20.0091 94.0005 20.4781 89.8933 21.354C85.1467 22.4143 80.5606 24.0955 76.2533 26.354C76.1096 26.4506 75.9786 26.5648 75.8633 26.694C76.6329 26.6797 77.3902 26.4989 78.0833 26.164C80.0833 25.554 82.1333 24.824 84.1833 24.284C89.9446 22.8243 95.8306 21.9103 101.763 21.554C107.213 21.144 112.673 20.944 118.123 20.654L119.753 20.574C118.937 20.2672 118.075 20.1015 117.203 20.084C112.273 20.044 107.383 19.964 102.383 19.954Z" fill="#B5A08B"/>
<path d="M149.384 104.554C146.184 103.074 143.014 101.554 139.744 100.184C135.27 98.2484 130.564 96.9038 125.744 96.184C124.818 96.0025 123.868 95.9755 122.934 96.104L150.504 105.494C150.215 105.091 149.83 104.768 149.384 104.554Z" fill="#B5A08B"/>
<path d="M156.053 144.554C154.481 142.818 152.59 141.399 150.483 140.374L164.383 155.784C164.435 155.824 164.498 155.846 164.563 155.844C164.613 155.844 164.663 155.764 164.733 155.704C164.543 155.364 164.353 155.014 164.133 154.704C161.705 151.118 159.004 147.724 156.053 144.554Z" fill="#B5A08B"/>
<path d="M121.874 77.7541C121.135 77.5444 120.383 77.3808 119.624 77.2641C116.524 76.9441 113.424 76.5841 110.314 76.3441C108.854 76.2541 107.39 76.2742 105.934 76.4041C104.417 76.5251 102.926 76.8618 101.504 77.4041C103.264 77.5541 120.384 77.9441 121.874 77.7541Z" fill="#B5A08B"/>
<path d="M144.083 115.724C141.083 114.494 138.193 113.254 135.213 112.124C133.269 111.402 131.225 110.987 129.153 110.894C129.833 111.254 130.153 111.434 130.393 111.554C131.453 111.954 132.513 112.334 133.583 112.704C136.783 113.811 139.99 114.914 143.203 116.014C143.758 116.18 144.322 116.311 144.893 116.404C144.843 115.934 144.383 115.854 144.083 115.724Z" fill="#B5A08B"/>
<path d="M120.584 23.8741C122.174 24.2641 123.744 24.7041 125.344 25.0241C126.964 25.5214 128.649 25.7775 130.344 25.7841C127.247 24.516 123.931 23.8671 120.584 23.8741Z" fill="#B5A08B"/>
<path d="M136.063 118.664C137.713 119.324 139.373 119.984 141.063 120.604C141.389 120.692 141.726 120.733 142.063 120.724C139.958 119.307 137.569 118.365 135.063 117.964C135.376 118.225 135.711 118.459 136.063 118.664Z" fill="#B5A08B"/>
<path d="M145.313 44.4341H145.243H145.433C145.433 44.4341 145.383 44.4241 145.313 44.4341Z" fill="#B5A08B"/>
<path d="M75.8641 26.764V26.7141L75.6641 26.9941C75.735 26.9212 75.8017 26.8444 75.8641 26.764Z" fill="#B5A08B"/>
<path d="M144.934 116.424C144.934 116.424 144.934 116.424 144.934 116.484H145.294H144.974L144.934 116.424Z" fill="#B5A08B"/>
<path d="M142.153 120.774L142.493 120.884L142.203 120.724L142.153 120.774Z" fill="#B5A08B"/>
<path d="M84.264 104.854C84.044 101.934 83.994 99.0041 83.744 96.0841C83.4859 92.9671 82.9403 89.8806 82.114 86.8641C81.6641 85.1187 80.9919 83.4383 80.114 81.8641C79.5115 80.7467 78.6881 79.7635 77.694 78.9741C75.554 77.3541 73.304 77.7141 71.904 79.9741C71.3598 80.8877 70.9395 81.8696 70.654 82.8941C69.7531 86.3357 69.3457 89.8878 69.444 93.4441C69.4867 97.2884 70.1624 101.099 71.444 104.724C73.5206 110.624 76.107 116.333 79.174 121.784C79.6311 122.596 80.1599 123.366 80.754 124.084C81.1443 124.533 81.6117 124.909 82.134 125.194C82.4501 125.396 82.83 125.473 83.1996 125.41C83.5693 125.347 83.9024 125.149 84.134 124.854C84.5151 124.398 84.7947 123.866 84.954 123.294C85.1902 122.464 85.3179 121.607 85.334 120.744C85.334 119.014 85.334 117.284 85.174 115.564C84.894 112.004 84.524 108.434 84.264 104.854ZM83.264 122.454C83.173 122.728 83.0558 122.993 82.914 123.244C82.2297 122.94 81.6839 122.39 81.384 121.704C77.6625 115.463 74.7174 108.79 72.614 101.834C71.0906 96.2139 70.9568 90.3075 72.224 84.6241C72.4294 83.7167 72.7069 82.8272 73.054 81.9641C73.2506 81.4687 73.5277 81.0092 73.874 80.6041C73.9961 80.4211 74.155 80.2657 74.3405 80.1477C74.5261 80.0296 74.7343 79.9517 74.9517 79.9187C75.1691 79.8858 75.3911 79.8986 75.6033 79.9563C75.8155 80.0141 76.0133 80.1155 76.184 80.2541C76.8031 80.6421 77.3427 81.1444 77.774 81.7341C78.4668 82.788 79.0625 83.9026 79.554 85.0641C80.4763 87.5567 81.0908 90.1525 81.384 92.7941C81.8791 96.355 82.1796 99.9404 82.284 103.534C82.434 107.464 82.914 111.364 83.204 115.284C83.334 117.144 83.354 119.014 83.384 120.874C83.3821 121.405 83.3251 121.935 83.214 122.454H83.264Z" fill="#B5A08B"/>
<path d="M104.003 124.694C103.204 121.256 102.663 117.763 102.383 114.244C102.273 112.054 101.993 109.864 101.743 107.684C101.588 106.16 101.196 104.668 100.583 103.264C100.267 102.469 99.7377 101.777 99.0535 101.264C98.6825 100.968 98.2183 100.813 97.7438 100.828C97.2693 100.843 96.8155 101.025 96.4635 101.344C96.0578 101.689 95.7189 102.106 95.4635 102.574C95.1102 103.288 94.8288 104.035 94.6235 104.804C94.1025 107.149 93.904 109.555 94.0335 111.954C94.1771 116.189 94.6789 120.404 95.5335 124.554C96.2565 128.823 97.4297 133.003 99.0335 137.024C99.7033 138.545 100.465 140.025 101.313 141.454C101.804 142.326 102.519 143.051 103.383 143.554C103.654 143.757 103.969 143.891 104.303 143.944C104.637 143.997 104.978 143.969 105.298 143.86C105.618 143.752 105.907 143.567 106.14 143.322C106.372 143.077 106.542 142.779 106.633 142.454C106.86 141.611 107.021 140.752 107.113 139.884C106.863 138.384 106.663 136.884 106.343 135.374C105.593 131.834 104.733 128.274 104.003 124.694ZM104.813 142.014C104.357 141.871 103.936 141.634 103.576 141.319C103.216 141.004 102.926 140.617 102.723 140.184C101.933 138.8 101.225 137.371 100.603 135.904C99.1603 132.174 98.0819 128.312 97.3835 124.374C96.675 120.715 96.2007 117.014 95.9635 113.294C95.8366 111.103 95.9002 108.904 96.1535 106.724C96.2242 105.276 96.7688 103.892 97.7035 102.784C97.9835 103.014 98.4135 103.184 98.5335 103.484C99.0013 104.579 99.3825 105.709 99.6735 106.864C99.9515 108.1 100.115 109.358 100.163 110.624C100.453 116.074 101.223 121.489 102.463 126.804C103.243 130.384 104.063 133.944 104.783 137.534C104.954 138.649 105.035 139.776 105.023 140.904C104.995 141.281 104.924 141.653 104.813 142.014Z" fill="#B5A08B"/>
<path d="M53.8934 52.764C53.1193 51.8674 52.0236 51.3113 50.8429 51.2159C49.6622 51.1205 48.4914 51.4934 47.5834 52.254C46.7616 52.9313 46.041 53.7226 45.4434 54.604C44.5267 55.9944 43.8506 57.5292 43.4434 59.144C42.498 62.4775 42.1095 65.9441 42.2934 69.404C42.2934 70.604 42.2234 71.804 42.2934 73.004C42.4103 75.5347 42.8575 78.0392 43.6234 80.454C43.9434 81.4653 44.401 82.4276 44.9834 83.314C45.177 83.6711 45.4541 83.976 45.791 84.2029C46.1279 84.4298 46.5147 84.5719 46.9183 84.617C47.322 84.6622 47.7306 84.6092 48.1093 84.4624C48.488 84.3156 48.8256 84.0794 49.0934 83.774C49.8167 83.0909 50.4275 82.2978 50.9034 81.424C51.4135 80.4155 51.8448 79.3691 52.1934 78.294C53.7791 74.1944 55.0462 69.9786 55.9834 65.684C56.6045 63.0161 56.6725 60.2493 56.1834 57.554C55.8978 55.77 55.1026 54.1065 53.8934 52.764ZM54.0334 65.764C53.2007 69.4631 52.108 73.0988 50.7634 76.644C50.4734 77.464 50.1834 78.274 49.9034 79.094C49.5531 80.1739 48.9809 81.1685 48.2234 82.014C47.9134 82.2849 47.5786 82.526 47.2234 82.734C46.7926 82.4768 46.4205 82.132 46.1311 81.7221C45.8418 81.3122 45.6416 80.8461 45.5434 80.354C44.8369 78.3409 44.4031 76.2423 44.2534 74.114C43.8588 70.2631 43.9664 66.3772 44.5734 62.554C44.8489 60.6424 45.4154 58.7842 46.2534 57.044C46.7506 56.0313 47.3904 55.0951 48.1534 54.264C49.7834 52.574 51.6634 52.794 53.0434 54.714C53.6381 55.6013 54.0527 56.5969 54.2634 57.644C54.781 60.3283 54.7025 63.0935 54.0334 65.744V65.764Z" fill="#B5A08B"/>
<path d="M130.384 131.554C130.314 131.096 130.186 130.65 130.004 130.224C129.942 130.085 129.85 129.962 129.733 129.865C129.617 129.767 129.479 129.697 129.332 129.661C129.184 129.624 129.03 129.622 128.882 129.653C128.733 129.685 128.594 129.75 128.474 129.844C127.718 130.398 127.132 131.153 126.784 132.024C126.222 133.311 125.884 134.684 125.784 136.084C125.403 141.351 126.164 146.638 128.014 151.584C128.391 152.579 128.86 153.536 129.414 154.444C129.763 155.009 130.218 155.502 130.754 155.894C130.914 156.016 131.098 156.103 131.293 156.151C131.489 156.198 131.692 156.205 131.89 156.17C132.088 156.135 132.277 156.06 132.444 155.949C132.612 155.838 132.755 155.693 132.864 155.524C133.096 155.201 133.26 154.833 133.344 154.444C133.504 153.664 133.564 152.864 133.644 152.294C133.504 150.934 133.454 149.804 133.274 148.684C132.334 142.977 131.371 137.267 130.384 131.554ZM131.474 153.634C130.785 153.133 130.29 152.409 130.074 151.584C128.416 147.451 127.567 143.037 127.574 138.584C127.434 136.77 127.732 134.949 128.444 133.274C128.629 133.755 128.789 134.246 128.924 134.744C129.714 139.194 130.514 143.634 131.264 148.084C131.494 149.454 131.614 150.854 131.724 152.244C131.695 152.716 131.611 153.182 131.474 153.634Z" fill="#B5A08B"/>
<path d="M117.643 113.414C117.401 113.181 117.084 113.039 116.749 113.014C116.413 112.988 116.079 113.08 115.803 113.274C115.453 113.474 115.147 113.743 114.903 114.064C114.659 114.386 114.482 114.753 114.383 115.144C114.102 116.098 113.934 117.081 113.883 118.074C113.796 122.607 114.751 127.099 116.673 131.204C117.048 131.982 117.497 132.722 118.013 133.414C118.367 133.899 118.796 134.325 119.283 134.674C119.527 134.879 119.812 135.029 120.119 135.114C120.426 135.199 120.748 135.216 121.062 135.164C121.377 135.113 121.676 134.995 121.941 134.817C122.205 134.639 122.428 134.406 122.593 134.134C122.955 133.663 123.223 133.126 123.383 132.554C123.643 131.324 123.773 130.074 123.883 129.404C123.828 123.978 121.975 118.724 118.613 114.464C118.33 114.079 118.004 113.727 117.643 113.414ZM121.863 130.014C121.787 130.806 121.636 131.59 121.413 132.354C121.258 132.679 121.06 132.982 120.823 133.254C120.458 133.092 120.12 132.873 119.823 132.604C119.267 131.87 118.784 131.083 118.383 130.254C116.653 126.493 115.779 122.394 115.823 118.254C115.749 117.168 116.045 116.09 116.663 115.194C117.041 115.558 117.395 115.945 117.723 116.354C120.626 120.299 122.087 125.121 121.863 130.014Z" fill="#B5A08B"/>
<path d="M106.943 124.474C106.92 124.415 106.878 124.366 106.823 124.334C106.823 124.334 106.753 124.334 106.653 124.404C107.18 131.757 108.521 139.028 110.653 146.084C112.733 152.984 115.903 161.614 117.173 163.574C117.173 163.514 117.263 163.444 117.253 163.394C113.663 150.804 109.883 138.264 107.153 125.394C107.133 125.114 107.033 124.794 106.943 124.474Z" fill="#B5A08B"/>
<path d="M66.0539 120.824C64.249 117.415 62.6234 113.913 61.1839 110.334C61.0039 109.874 60.7539 109.454 60.5439 109.014C61.1397 112.896 62.3197 116.665 64.0439 120.194C66.2744 124.732 68.8241 129.107 71.6739 133.284C71.9786 133.729 72.3126 134.154 72.6739 134.554C72.7539 134.644 72.9639 134.634 73.1339 134.644C73.0039 134.354 72.8939 134.054 72.7439 133.774C70.4939 129.454 68.2939 125.124 66.0539 120.824Z" fill="#B5A08B"/>
<path d="M73.1637 134.644H73.0938C73.098 134.628 73.098 134.61 73.0938 134.594L73.1637 134.644Z" fill="#B5A08B"/>
<path d="M62.4441 104.554C64.0141 109.294 65.9341 113.894 67.9141 118.474C68.0302 118.71 68.1639 118.938 68.3141 119.154L68.5441 119.084C68.5062 118.834 68.4528 118.587 68.3841 118.344C66.8041 113.404 65.2041 108.474 63.6341 103.534C62.9841 101.534 62.3741 99.4741 61.7641 97.4341C61.6008 96.7436 61.3628 96.073 61.0541 95.4341C61.0041 96.1241 60.9541 96.4341 60.9541 96.7341C61.0667 99.3995 61.5687 102.034 62.4441 104.554Z" fill="#B5A08B"/>
<path d="M50.5637 93.554C50.4337 93.054 50.2637 92.554 50.1137 92.074C49.9122 92.4935 49.8391 92.9632 49.9037 93.424C50.0142 94.1443 50.1746 94.856 50.3837 95.554C51.2137 98.294 52.0837 101.014 52.9337 103.754C53.0537 104.144 53.2237 104.484 53.7337 104.434C53.6061 104.212 53.5022 103.978 53.4237 103.734C52.4337 100.354 51.5037 96.944 50.5637 93.554Z" fill="#B5A08B"/>
<path d="M53.6834 105.794V104.464C53.5457 104.658 53.4717 104.891 53.4717 105.129C53.4717 105.367 53.5457 105.6 53.6834 105.794Z" fill="#B5A08B"/>
<path d="M73.0237 134.954C73.0237 135.014 73.1637 135.064 73.2437 135.124C73.3237 135.184 73.3137 135.014 73.2437 134.974C73.1943 134.88 73.1374 134.789 73.0737 134.704C73.0383 134.783 73.0212 134.868 73.0237 134.954Z" fill="#B5A08B"/>
<path d="M53.6334 122.554L53.4834 122.744C53.7734 122.804 53.7034 122.674 53.6334 122.554Z" fill="#B5A08B"/>
</svg>
