<svg width="211" height="210" viewBox="0 0 211 210" fill="none" xmlns="http://www.w3.org/2000/svg">
<path d="M165.701 147.333C165.46 141.929 164.244 136.614 162.111 131.643C161.361 129.933 160.581 128.243 159.821 126.533C158.372 123.386 157.475 120.014 157.171 116.563C157.011 114.233 156.941 111.903 156.841 109.563C156.741 107.223 156.691 104.763 156.531 102.373C156.178 96.4906 154.333 90.7951 151.171 85.8229C149.541 83.2329 147.751 80.7429 145.941 78.2629C144.131 75.7829 142.371 73.6129 140.601 71.2629C137.847 67.665 135.363 63.8679 133.171 59.9029C130.185 54.6873 127.994 49.0552 126.671 43.1929C126.196 41.105 125.898 38.9808 125.781 36.8429C125.957 36.7385 126.145 36.6547 126.341 36.5929C131.181 36.0368 135.916 34.7874 140.401 32.8829C144.491 31.2829 148.611 29.7629 152.721 28.1929C153.781 27.7929 154.841 27.3929 155.861 26.8929C156.518 26.5743 157.122 26.156 157.651 25.6529C158.116 25.2593 158.419 24.7077 158.502 24.1041C158.585 23.5005 158.442 22.8875 158.101 22.3829C157.817 21.8638 157.482 21.3747 157.101 20.9229C154.311 17.7029 151.521 14.4729 148.691 11.2829C146.942 9.26503 144.95 7.47139 142.761 5.94287C139.525 3.62712 135.618 2.43947 131.641 2.56287C128.431 2.6675 125.277 3.42633 122.371 4.79287C119.333 6.16959 116.502 7.96356 113.961 10.1229C112.281 11.5629 110.661 13.0429 109.061 14.5629C103.671 19.6129 98.3207 24.7229 92.9307 29.7829C88.0132 34.3864 82.7142 38.5647 77.0907 42.2729C76.0407 42.9729 75.0007 43.7029 73.9507 44.4129C68.507 48.1225 64.2582 53.3337 61.7207 59.4129C60.9307 61.2429 60.2207 63.1129 59.5607 64.9929C58.249 68.7053 56.5742 72.2793 54.5607 75.6629C53.2274 77.9562 51.9507 80.2895 50.7307 82.6629C48.8719 86.4232 47.5619 90.4307 46.8407 94.5629C46.1537 98.7046 45.7992 102.895 45.7807 107.093C45.7207 111.033 45.7807 114.963 45.7807 118.893C45.7807 123.093 45.7107 127.293 45.6207 131.493C45.5207 136.153 45.3207 140.813 45.2307 145.493C45.104 149.559 45.3989 153.627 46.1107 157.633C48.8107 171.703 55.7107 183.123 67.7507 191.083C81.0007 199.833 95.3207 205.833 111.361 207.083C117.211 207.549 123.088 207.566 128.941 207.133C133.791 206.783 138.621 206.243 143.461 205.693C145.701 205.433 147.931 205.023 150.151 204.573C151.231 204.347 152.244 203.875 153.111 203.193C153.978 202.512 154.676 201.639 155.151 200.643C155.657 199.703 156.101 198.731 156.481 197.733C157.481 195.043 158.481 192.353 159.301 189.623C161.615 182.096 163.37 174.408 164.551 166.623C165.611 160.251 165.996 153.785 165.701 147.333ZM110.261 16.0429C112.997 13.2121 116.046 10.7025 119.351 8.56287C122.206 6.70128 125.395 5.4108 128.741 4.76287C130.937 4.32217 133.2 4.32881 135.395 4.78241C137.589 5.23601 139.669 6.12724 141.511 7.40287C143.541 8.80509 145.391 10.4507 147.021 12.3029C149.761 15.4029 152.461 18.5329 155.171 21.6529C155.337 21.8786 155.481 22.1197 155.601 22.3729C155.016 22.5881 154.377 22.6056 153.781 22.4229C150.823 21.9754 147.931 21.166 145.171 20.0129C143.071 19.1529 140.981 18.2829 138.861 17.4929C133.323 15.302 127.392 14.2806 121.441 14.4929C118.113 14.6986 114.822 15.3064 111.641 16.3029L109.721 16.8529C109.878 16.5687 110.059 16.2978 110.261 16.0429ZM148.911 202.923C147.141 203.253 145.361 203.563 143.581 203.753C138.811 204.283 134.041 204.843 129.261 205.213C123.208 205.668 117.13 205.648 111.081 205.153C99.0807 204.153 88.0807 200.353 77.5407 194.743C74.2895 193.046 71.1407 191.159 68.1107 189.093C57.1107 181.423 50.6407 170.833 48.0107 157.783C47.1735 153.459 46.8379 149.053 47.0107 144.653C47.4007 132.723 47.6907 120.793 47.6207 108.863C47.5878 104.851 47.8317 100.841 48.3507 96.8629C48.9511 92.3026 50.292 87.8709 52.3207 83.7429C53.4107 81.5329 54.5707 79.3529 55.8307 77.2429C58.1926 73.2915 60.146 69.11 61.6607 64.7629C62.429 62.563 63.3238 60.4094 64.3407 58.3129C66.6255 53.5336 70.1085 49.4271 74.4507 46.3929C75.8641 45.3929 77.2907 44.4129 78.7307 43.4529C83.8901 40.0096 88.7747 36.1714 93.3407 31.9729C96.8807 28.7262 100.397 25.4595 103.891 22.1729C104.657 21.4348 105.566 20.8599 106.561 20.4829C109.958 19.1063 113.477 18.0516 117.071 17.3329C122.806 16.3005 128.706 16.664 134.271 18.3929C136.821 19.1629 139.271 20.1229 141.801 21.0729C144.834 22.2946 148.009 23.1311 151.251 23.5629C152.311 23.6829 153.381 23.7029 154.441 23.7729L156.151 23.8629C156.198 23.9406 156.227 24.0277 156.237 24.118C156.246 24.2082 156.236 24.2995 156.206 24.3854C156.177 24.4712 156.129 24.5495 156.065 24.6148C156.002 24.68 155.926 24.7306 155.841 24.7629C154.771 25.2929 153.701 25.8429 152.591 26.2729C148.791 27.7329 144.991 29.1529 141.181 30.5829L139.061 31.3429C136.382 28.5262 133.302 26.1203 129.921 24.2029C127.161 22.7176 124.285 21.4601 121.321 20.4429C119.637 19.8183 117.917 19.2941 116.171 18.8729C116.446 19.1906 116.751 19.4819 117.081 19.7429C118.631 20.6429 120.181 21.5529 121.771 22.3929C125.251 24.2229 128.771 25.9829 132.241 27.8329C133.881 28.7129 135.461 29.7229 137.051 30.6929C137.425 30.9502 137.786 31.2273 138.131 31.5229C137.601 31.8029 137.241 32.0329 136.841 32.1929C132.082 33.9565 127.056 34.8901 121.981 34.9529C116.451 35.118 110.948 35.7875 105.541 36.9529C100.048 38.1209 94.7234 39.972 89.6907 42.4629C82.9414 45.9891 76.9298 50.7753 71.9807 56.5629C68.2957 60.7032 65.1753 65.3132 62.7007 70.2729C62.4064 70.8685 62.1525 71.4832 61.9407 72.1129C61.8828 72.3046 61.8953 72.5108 61.9759 72.6942C62.0566 72.8775 62.2002 73.026 62.3807 73.1129C62.5572 73.212 62.7642 73.2423 62.9617 73.198C63.1593 73.1537 63.3335 73.0379 63.4507 72.8729C63.717 72.4962 63.9575 72.102 64.1707 71.6929C68.2409 63.4282 74.0383 56.1338 81.1707 50.3029C81.5874 49.8356 82.1399 49.5104 82.7507 49.3729C82.9555 50.0184 83.0269 50.6989 82.9607 51.3729C83.1707 54.9629 83.2707 58.5729 83.6107 62.1529C84.4119 69.7789 86.1206 77.282 88.7007 84.5029C91.4341 92.0919 94.6164 99.5117 98.2307 106.723C98.8407 107.983 99.4807 109.223 100.091 110.483C100.25 110.859 100.391 111.243 100.511 111.633C100.021 111.383 99.7907 111.303 99.6007 111.173C97.4307 109.723 95.2707 108.283 93.1207 106.823C90.6407 105.143 88.1207 103.533 85.7007 101.753C77.954 96.0265 71.4779 88.757 66.6807 80.4029C66.3356 79.7517 65.8747 79.1689 65.3207 78.6829C65.3512 78.9987 65.4149 79.3104 65.5107 79.6129C66.1507 81.1529 66.7407 82.7229 67.5107 84.1829C71.1912 91.2448 76.3723 97.4158 82.6907 102.263C87.3852 105.781 92.2692 109.04 97.3207 112.023C98.8007 112.923 100.251 113.873 101.721 114.783C102.397 115.221 102.94 115.837 103.291 116.563C108.784 126.703 114.277 136.836 119.771 146.963C119.991 147.363 120.161 147.783 120.421 148.323C120.081 148.323 119.881 148.323 119.741 148.253C116.961 146.8 114.072 145.566 111.101 144.563C105.661 142.563 100.201 140.623 94.7907 138.563C90.5032 136.906 86.3592 134.899 82.4007 132.563C73.1363 127.074 65.0752 119.772 58.7007 111.093C58.0207 110.183 57.3707 109.253 56.7007 108.333C56.6242 108.191 56.4997 108.081 56.3495 108.022C56.1993 107.964 56.0332 107.96 55.8807 108.013C57.18 110.552 58.6536 112.998 60.2907 115.333C66.8486 124.561 75.6067 132.006 85.7707 136.993C91.352 139.688 97.0812 142.065 102.931 144.113C105.251 144.953 107.601 145.693 109.931 146.593C113.831 148.123 117.701 149.753 121.591 151.323C122.09 151.502 122.506 151.858 122.761 152.323C122.911 152.623 123.081 152.903 123.251 153.193L138.921 180.843C139.36 181.356 139.632 181.991 139.701 182.663C139.483 182.656 139.268 182.619 139.061 182.553C135.17 180.794 131.054 179.582 126.831 178.953C122.501 178.213 118.151 177.583 113.831 176.953C108.143 176.273 102.495 175.292 96.9107 174.013C86.6307 171.492 77.0569 166.671 68.9107 159.913C65.3707 156.993 62.0307 153.823 58.6107 150.753C56.6107 148.963 54.6807 147.143 52.7107 145.353C52.3607 145.043 51.9907 144.763 51.6007 144.443C51.5407 144.613 51.4507 144.753 51.4807 144.803C56.078 150.861 61.3038 156.415 67.0707 161.373C76.8334 169.528 88.5511 175.001 101.071 177.253C106.311 178.253 111.591 178.923 116.881 179.603C123.697 180.409 130.427 181.825 136.991 183.833C138.131 184.193 139.281 184.526 140.441 184.833C140.702 184.884 140.949 184.989 141.168 185.14C141.386 185.292 141.571 185.487 141.711 185.713L146.971 195.133C146.971 195.223 146.971 195.373 146.971 195.543C146.785 195.568 146.597 195.568 146.411 195.543C142.687 194.491 138.848 193.904 134.981 193.793C131.131 193.583 127.261 193.483 123.401 193.313C117.804 193.17 112.221 192.696 106.681 191.893C98.5701 190.563 90.667 188.183 83.1707 184.813C79.3193 183.138 75.5666 181.245 71.9307 179.143C71.4755 178.915 71.0043 178.721 70.5207 178.563C70.5207 179.103 71.0107 179.303 71.3507 179.563C73.7107 181.193 76.0107 182.923 78.4707 184.373C87.9505 189.88 98.4744 193.351 109.371 194.563C115.198 195.222 121.056 195.583 126.921 195.643C133.051 195.794 139.167 196.291 145.241 197.133C145.971 197.233 146.701 197.293 147.431 197.363C147.699 197.368 147.962 197.443 148.193 197.58C148.424 197.716 148.616 197.91 148.751 198.143C149.471 199.403 150.191 200.673 150.921 201.933C150.674 202.229 150.367 202.47 150.021 202.641C149.674 202.812 149.296 202.908 148.911 202.923ZM93.6007 43.9229C92.429 47.945 91.7935 52.1043 91.7107 56.2929C91.6407 57.7529 91.5407 59.2129 91.4307 60.6729C91.3853 60.9805 91.3185 61.2846 91.2307 61.5829C90.5407 61.5829 90.3907 61.0929 90.1807 60.7129C89.223 58.8854 88.5486 56.923 88.1807 54.8929C87.6246 51.9504 87.4832 48.9445 87.7607 45.9629C89.4885 44.5845 91.4739 43.5646 93.6007 42.9629C93.6441 43.268 93.6441 43.5777 93.6007 43.8829V43.9229ZM163.921 152.983C163.206 167.639 160.255 182.099 155.171 195.863C154.781 196.925 154.338 197.966 153.841 198.983C153.539 199.597 153.205 200.194 152.841 200.773C152.121 200.773 152.061 200.333 151.901 200.003C150.371 197.003 148.901 194.053 147.331 191.123C146.774 190.06 146.544 188.856 146.671 187.663C147.05 182.811 147.86 178.002 149.091 173.293C150.951 165.793 152.841 158.293 154.291 150.703C154.831 147.823 155.221 144.913 155.641 142.013C155.694 141.207 155.694 140.399 155.641 139.593C155.401 140.263 155.281 140.533 155.201 140.813C153.301 147.893 151.351 154.953 149.511 162.043C148.171 167.203 146.841 172.363 145.981 177.633C145.5 180.188 145.272 182.783 145.301 185.383C145.301 185.753 145.301 186.133 145.301 186.493C144.741 186.493 144.651 186.163 144.491 185.903L130.711 161.963C130.292 161.36 130.124 160.618 130.241 159.893C130.86 155.872 131.171 151.811 131.171 147.743C131.463 137.277 132.776 126.864 135.091 116.653C136.091 112.173 137.211 107.713 138.261 103.283C137.841 103.343 137.801 103.793 137.641 104.143C135.73 108.482 134.179 112.97 133.001 117.563C130.928 125.295 129.661 133.22 129.221 141.213C128.875 146.79 128.859 152.383 129.171 157.963C129.171 158.023 129.171 158.083 129.091 158.153C128.651 158.333 128.531 157.973 128.381 157.703L123.911 149.703C122.651 147.423 121.421 145.143 120.141 142.883C119.922 142.548 119.774 142.173 119.705 141.779C119.636 141.385 119.648 140.982 119.741 140.593C120.572 136.805 121.051 132.949 121.171 129.073C122.016 116.171 124.39 103.415 128.241 91.0729C129.681 86.4429 131.161 81.8329 132.621 77.2129C131.841 77.3829 131.701 78.1229 131.451 78.6729C130.051 81.6729 128.611 84.6729 127.391 87.7929C124.037 96.493 121.708 105.554 120.451 114.793C119.611 120.603 119.091 126.443 118.661 132.283C118.531 134.143 118.661 136.013 118.581 137.883C118.581 138.263 118.581 138.643 118.521 139.003C117.961 139.103 117.871 138.723 117.721 138.463C116.561 136.363 115.401 134.263 114.261 132.153C109.041 122.563 103.801 112.973 99.0907 103.153C98.1707 101.233 97.3007 99.2829 96.3807 97.3629C96.2305 97.0686 96.1472 96.7448 96.1368 96.4146C96.1265 96.0844 96.1893 95.756 96.3207 95.4529C97.2962 92.6836 97.8851 89.793 98.0707 86.8629C98.4707 81.7295 98.8374 76.5995 99.1707 71.4729C99.5919 66.1599 100.37 60.8813 101.501 55.6729C102.109 52.1977 102.971 48.7719 104.081 45.4229C104.261 44.9329 104.521 44.4229 104.741 43.9929C104.121 43.8729 103.961 44.3729 103.741 44.7629C102.476 47.0354 101.437 49.4269 100.641 51.9029C98.6151 58.1891 97.3756 64.702 96.9507 71.2929C96.5407 76.5629 96.1707 81.8229 95.7407 87.0729C95.6007 88.9329 95.4007 90.7929 95.2107 92.6529C95.1333 92.9754 95.0261 93.2901 94.8907 93.5929C94.6735 93.2702 94.4732 92.9364 94.2907 92.5929C90.1923 83.2458 87.3963 73.3804 85.9807 63.2729C85.3328 58.7183 84.9389 54.1312 84.8007 49.5329C84.7822 49.0016 84.8089 48.4696 84.8807 47.9429C84.8807 47.7529 85.1707 47.5829 85.3907 47.3429C85.7363 47.9486 85.8601 48.6558 85.7407 49.3429C85.7388 52.2123 86.16 55.0663 86.9907 57.8129C87.4701 59.2648 88.0723 60.6732 88.7907 62.0229C89.1843 62.7166 89.7233 63.317 90.3707 63.7829C90.5503 63.9368 90.7637 64.0461 90.9935 64.1018C91.2234 64.1575 91.4631 64.1581 91.6932 64.1035C91.9233 64.0489 92.1373 63.9406 92.3176 63.7876C92.4979 63.6345 92.6395 63.441 92.7307 63.2229C93.0218 62.6236 93.2014 61.9764 93.2607 61.3129C93.4307 59.5929 93.5507 57.8629 93.6107 56.1329C93.6993 52.8651 94.1215 49.6149 94.8707 46.4329C95.1807 45.2129 95.6607 44.0329 96.0507 42.8329C96.1747 42.4196 96.4039 42.0456 96.716 41.7475C97.028 41.4495 97.4122 41.2377 97.8307 41.1329C100.865 40.0961 103.957 39.238 107.091 38.5629C112.061 37.5749 117.105 36.9996 122.171 36.8429H123.631C123.8 37.4377 123.934 38.0421 124.031 38.6529C124.751 44.7555 126.488 50.6945 129.171 56.2229C131.626 61.4062 134.584 66.3365 138.001 70.9429C139.731 73.3129 141.571 75.6029 143.321 77.9429C145.071 80.2829 146.871 82.7729 148.581 85.2429C152.666 91.2337 154.86 98.3119 154.881 105.563C154.934 107.563 154.957 109.563 154.951 111.563C154.878 117.588 156.206 123.549 158.831 128.973C160.403 132.062 161.64 135.31 162.521 138.663C163.664 143.332 164.135 148.141 163.921 152.943V152.983Z" fill="#B5A08B"/>
<path d="M57.1712 142.263C59.1255 144.274 61.2914 146.067 63.6312 147.613C66.1212 149.283 68.6312 150.923 71.2012 152.473C76.2752 155.548 81.1852 158.886 85.9112 162.473C87.2912 163.473 88.7012 164.543 90.1412 165.473C91.4715 166.36 92.8467 167.178 94.2612 167.923C97.8175 169.806 101.798 170.743 105.821 170.643C111.228 170.446 116.551 169.249 121.521 167.113C121.948 166.927 122.36 166.706 122.751 166.453C123.09 166.244 123.405 165.999 123.691 165.723C123.935 165.516 124.132 165.259 124.266 164.969C124.401 164.679 124.471 164.363 124.471 164.043C124.471 163.723 124.401 163.407 124.266 163.117C124.132 162.827 123.935 162.569 123.691 162.363C123.116 161.806 122.458 161.341 121.741 160.983C120.489 160.366 119.2 159.828 117.881 159.373C113.287 157.763 108.558 156.565 103.751 155.793C98.5715 154.938 93.6146 153.058 89.1712 150.263C86.2812 148.483 83.4912 146.543 80.7312 144.553C77.7312 142.413 74.9312 140.073 71.9612 137.923C69.4812 136.133 66.9612 134.423 64.3412 132.793C63.0173 132.029 61.6404 131.361 60.2212 130.793C59.1781 130.337 58.0496 130.108 56.9112 130.123C56.3776 130.081 55.8414 130.157 55.3399 130.344C54.8385 130.531 54.3839 130.825 54.0078 131.206C53.6318 131.587 53.3433 132.045 53.1625 132.549C52.9818 133.053 52.9131 133.59 52.9612 134.123C52.9916 135.454 53.3341 136.759 53.9612 137.933C54.8063 139.53 55.8886 140.99 57.1712 142.263ZM54.8312 133.903C54.8095 133.65 54.8437 133.396 54.9313 133.158C55.0189 132.919 55.1577 132.704 55.3381 132.525C55.5184 132.347 55.7358 132.21 55.9749 132.125C56.2139 132.04 56.4687 132.008 56.7212 132.033C57.517 132.037 58.307 132.169 59.0612 132.423C60.2615 132.819 61.4203 133.332 62.5212 133.953C64.6912 135.253 66.8412 136.593 68.9012 138.063C71.7112 140.063 74.4112 142.253 77.2012 144.303C79.9912 146.353 82.6712 148.303 85.4812 150.233C88.7417 152.429 92.2283 154.27 95.8812 155.723C98.4591 156.638 101.118 157.307 103.821 157.723C108.138 158.533 112.399 159.612 116.581 160.953C118.031 161.433 119.451 162.033 120.841 162.653C121.209 162.764 121.548 162.954 121.835 163.21C122.121 163.465 122.349 163.78 122.501 164.133C122.317 164.382 122.102 164.607 121.861 164.803C121.3 165.159 120.707 165.464 120.091 165.713C116.06 167.299 111.825 168.309 107.511 168.713C102.967 169.119 98.4073 168.139 94.4312 165.903C92.9212 165.063 91.4312 164.113 90.0412 163.143C88.6512 162.173 87.4412 161.273 86.1712 160.313C81.9712 157.133 77.6012 154.213 73.1712 151.453C70.2712 149.673 67.4112 147.84 64.5912 145.953C62.3652 144.481 60.3093 142.768 58.4612 140.843C57.2835 139.676 56.304 138.325 55.5612 136.843C55.0757 135.941 54.8344 134.927 54.8612 133.903H54.8312Z" fill="#B5A08B"/>
<path d="M70.7006 108.933C72.0193 111.257 73.747 113.323 75.8006 115.033C80.1591 118.779 85.2759 121.539 90.8006 123.123C91.8806 123.443 93.0006 123.583 93.8006 123.743C94.4906 123.743 94.8006 123.743 95.1606 123.653C95.5813 123.637 95.9919 123.519 96.3573 123.31C96.7227 123.101 97.0321 122.806 97.259 122.452C97.4859 122.097 97.6237 121.693 97.6605 121.273C97.6974 120.854 97.6322 120.432 97.4706 120.043C97.1406 119.105 96.683 118.216 96.1106 117.403C95.1771 116.096 93.9774 115.002 92.5906 114.193C91.1644 113.318 89.6886 112.527 88.1706 111.823C84.8436 110.276 81.7582 108.255 79.0106 105.823C77.9006 104.823 76.8406 103.823 75.7106 102.923C75.0104 102.311 74.2498 101.771 73.4406 101.313C71.3506 100.213 69.5206 101.253 69.3106 103.593C69.2806 103.989 69.2806 104.387 69.3106 104.783C69.4618 106.252 69.9365 107.669 70.7006 108.933ZM72.7006 103.083C73.2106 103.376 73.6956 103.71 74.1506 104.083C74.9206 104.723 75.6306 105.423 76.4006 106.083C78.1006 107.473 79.7906 108.883 81.5406 110.193C83.2595 111.459 85.1143 112.529 87.0706 113.383C88.1606 113.873 89.2306 114.383 90.2806 114.993C91.5857 115.668 92.766 116.561 93.7706 117.633C94.3566 118.267 94.8605 118.973 95.2706 119.733C96.0506 121.203 95.6206 121.803 93.4706 121.733C92.6384 121.592 91.814 121.408 91.0006 121.183C85.9445 119.67 81.2515 117.138 77.2106 113.743C75.7492 112.512 74.4429 111.109 73.3206 109.563C72.5072 108.503 71.8939 107.303 71.5106 106.023C71.3224 105.322 71.2282 104.599 71.2306 103.873C71.2306 102.933 71.8906 102.563 72.7406 103.083H72.7006Z" fill="#B5A08B"/>
<path d="M70.0108 168.223C70.4371 168.641 70.8952 169.025 71.3808 169.373C75.3238 172.22 79.5374 174.672 83.9608 176.693C93.7618 181.42 104.375 184.234 115.231 184.983C118.277 185.216 121.331 185.413 124.391 185.573C126.011 185.643 127.641 185.573 129.261 185.573C128.74 185.289 128.17 185.109 127.581 185.043C124.141 184.613 120.701 184.263 117.271 183.783C110.741 182.905 104.282 181.569 97.9408 179.783C88.7192 177.134 79.8465 173.394 71.5108 168.643C70.9608 168.323 70.2708 168.163 69.9708 167.503C69.9708 167.753 69.8808 168.093 70.0108 168.223Z" fill="#B5A08B"/>
<path d="M69.9705 167.503C69.8647 167.519 69.7608 167.546 69.6605 167.583C69.6092 167.613 69.5621 167.65 69.5205 167.693C69.5755 167.677 69.629 167.657 69.6805 167.633C69.7796 167.599 69.8764 167.559 69.9705 167.513V167.503Z" fill="#B5A08B"/>
<path d="M74.6112 135.223C78.9999 138.811 83.8373 141.813 89.0012 144.153C95.7801 147.096 102.737 149.611 109.831 151.683C110.261 151.823 110.711 151.893 111.151 152.003C108.893 150.773 106.555 149.697 104.151 148.783C101.771 147.783 99.3812 146.723 97.0212 145.653C94.6612 144.583 92.2912 143.493 90.0212 142.323C87.7512 141.153 85.4212 139.923 83.1612 138.643C80.9012 137.363 78.6912 135.993 76.5112 134.593C74.3312 133.193 72.2412 131.743 70.1112 130.313L69.9512 130.473C70.0909 130.737 70.2586 130.985 70.4512 131.213C71.8212 132.563 73.1712 134.013 74.6112 135.223Z" fill="#B5A08B"/>
<path d="M111.44 20.6628C116.68 25.5428 122.78 28.2428 129.25 30.2628C126.55 27.8028 114.92 21.5628 111.44 20.6628Z" fill="#B5A08B"/>
<path d="M99.521 136.693C106.921 140.033 108.891 140.813 110.751 141.053C103.641 137.513 96.661 133.703 88.751 130.903C90.371 132.243 94.511 134.433 99.521 136.693Z" fill="#B5A08B"/>
<path d="M77.8903 76.1129C78.659 77.9641 79.7605 79.6588 81.1403 81.1129C81.3503 81.3329 81.6003 81.5029 81.8403 81.7129C82.1503 81.2429 81.8403 80.9929 81.7003 80.7129C80.9003 79.1029 80.0503 77.5229 79.2903 75.8929C77.6803 72.4629 76.1703 69.0129 74.5403 65.5629C74.301 64.8075 73.8824 64.1213 73.3203 63.5629C73.3507 63.9009 73.4109 64.2355 73.5003 64.5629C74.9503 68.4129 76.3703 72.2829 77.8903 76.1129Z" fill="#B5A08B"/>
<path d="M108.63 34.2228C106.52 33.9728 104.42 33.6728 102.31 33.4528C100.269 33.1596 98.1996 33.126 96.1503 33.3528C95.2475 33.4479 94.3715 33.7161 93.5703 34.1428C99.4003 34.2728 104.8 34.9628 110.68 34.8828C110.044 34.5379 109.349 34.3141 108.63 34.2228Z" fill="#B5A08B"/>
<path d="M124.051 174.773C125.907 175.638 127.862 176.276 129.871 176.673C128.016 175.597 125.984 174.859 123.871 174.493C123.931 174.563 123.971 174.733 124.051 174.773Z" fill="#B5A08B"/>
<path d="M70.471 178.563L69.791 177.933C69.941 178.453 70.171 178.563 70.471 178.563Z" fill="#B5A08B"/>
<path d="M55.8809 107.963C55.9609 107.733 55.9209 107.833 55.8809 107.963Z" fill="#B5A08B"/>
<path d="M122.791 55.7228C122.518 54.0154 122.144 52.3257 121.671 50.6628C121.441 49.8993 121.068 49.1865 120.571 48.5628C120.404 48.3343 120.193 48.1418 119.951 47.9968C119.708 47.8519 119.438 47.7574 119.158 47.7191C118.878 47.6808 118.593 47.6995 118.32 47.774C118.048 47.8486 117.793 47.9774 117.571 48.1528C116.975 48.5748 116.463 49.1038 116.061 49.7128C115.457 50.667 114.935 51.6706 114.501 52.7128C113.604 54.9399 112.934 57.2515 112.501 59.6128C111.475 65.0498 110.807 70.5483 110.501 76.0728C110.171 80.6528 109.801 85.2328 109.441 89.8128C108.97 94.5875 108.783 99.386 108.881 104.183C109.001 107.569 109.535 110.927 110.471 114.183C110.732 115.014 111.067 115.821 111.471 116.593C111.531 116.752 111.625 116.895 111.747 117.013C111.869 117.131 112.016 117.219 112.177 117.273C112.338 117.327 112.509 117.344 112.678 117.323C112.846 117.302 113.008 117.244 113.151 117.153C113.573 116.959 113.948 116.675 114.251 116.323C114.719 115.76 115.1 115.129 115.381 114.453C115.952 113.033 116.44 111.58 116.841 110.103C118.721 102.77 120.578 95.4128 122.411 88.0328C123.686 83.1348 124.331 78.0941 124.331 73.0328C124.081 69.5128 123.861 66.0328 123.571 62.4728C123.351 60.2128 123.171 57.9628 122.791 55.7228ZM120.701 86.8728C119.411 92.0328 118.071 97.1828 116.761 102.353C116.131 104.863 115.561 107.353 114.911 109.913C114.591 111.133 114.151 112.323 113.731 113.513C113.497 114.008 113.223 114.483 112.911 114.933C112.274 113.791 111.86 112.539 111.691 111.243C110.971 107.988 110.662 104.655 110.771 101.323C110.901 97.3928 111.131 93.4728 111.391 89.5528C111.711 84.8328 112.121 80.1228 112.471 75.4028C112.786 69.4841 113.586 63.6011 114.861 57.8128C115.289 55.7925 115.961 53.8315 116.861 51.9728C117.201 51.0469 117.837 50.2594 118.671 49.7328C119.311 49.7928 119.491 50.2528 119.671 50.6728C120.296 52.2774 120.699 53.9595 120.871 55.6728C121.647 61.4148 122.134 67.192 122.331 72.9828C122.438 77.6662 121.889 82.3414 120.701 86.8728Z" fill="#B5A08B"/>
<path d="M151.281 113.663C151.203 113.005 150.996 112.37 150.671 111.793C150.559 111.585 150.405 111.404 150.218 111.259C150.032 111.115 149.817 111.011 149.588 110.955C149.36 110.898 149.121 110.89 148.889 110.931C148.657 110.972 148.436 111.061 148.241 111.193C147.636 111.6 147.105 112.107 146.671 112.693C145.926 113.713 145.236 114.771 144.601 115.863C141.018 122.194 138.683 129.153 137.721 136.363C136.951 141.423 136.181 146.493 135.451 151.553C134.994 154.194 134.813 156.875 134.911 159.553C134.954 160.547 135.125 161.532 135.421 162.483C136.131 164.533 137.961 164.873 139.421 163.263C139.966 162.665 140.42 161.992 140.771 161.263C141.387 160.014 141.934 158.732 142.411 157.423C144.411 151.913 146.411 146.423 148.341 140.893C149.69 137.199 150.521 133.335 150.811 129.413C151.011 126.493 151.181 123.573 151.361 120.653H151.301C151.301 119.923 151.451 119.193 151.441 118.463C151.441 116.853 151.411 115.253 151.281 113.663ZM149.631 116.663C149.471 120.183 149.321 123.713 149.081 127.233C148.941 129.413 148.711 131.603 148.371 133.773C147.911 136.259 147.218 138.697 146.301 141.053C144.491 146.053 142.731 151.053 140.911 156.053C140.391 157.483 139.801 158.903 139.181 160.293C138.933 161.032 138.439 161.664 137.781 162.083C137.599 162.086 137.424 162.017 137.293 161.891C137.162 161.766 137.086 161.594 137.081 161.413C136.937 160.63 136.844 159.838 136.801 159.043C136.764 156.314 136.988 153.589 137.471 150.903C137.901 148.143 138.381 145.393 138.801 142.623C139.221 139.853 139.571 136.823 140.081 133.943C141.175 127.427 143.521 121.186 146.991 115.563C147.411 114.893 147.881 114.243 148.361 113.563C148.587 113.344 148.839 113.153 149.111 112.993C149.555 114.152 149.733 115.396 149.631 116.633V116.663Z" fill="#B5A08B"/>
<path d="M136.24 95.0728C133.87 100.863 131.67 106.723 129.77 112.693C128.363 116.856 127.207 121.101 126.31 125.403C125.76 128.263 125.489 131.17 125.5 134.083C125.743 133.47 125.934 132.838 126.07 132.193C126.43 130.643 126.74 129.073 127.13 127.523C129.13 119.703 131.46 112.003 133.86 104.313C135.02 100.563 136.17 96.8828 137.37 93.1628C136.62 93.5628 136.51 94.3928 136.24 95.0728Z" fill="#B5A08B"/>
<path d="M104.411 67.5029C102.941 75.6129 101.841 83.7629 101.171 91.9629C101.341 91.8929 101.551 91.8329 101.601 91.7129C101.788 91.216 101.945 90.7084 102.071 90.1929C103.305 85.2913 104.236 80.3186 104.861 75.3029C105.401 71.0162 105.884 66.7195 106.311 62.4129C106.571 59.9029 106.681 57.4129 106.861 54.8629C106.434 55.5263 106.179 56.286 106.121 57.0729C105.561 60.5629 105.041 64.0429 104.411 67.5029Z" fill="#B5A08B"/>
<path d="M156.821 161.263C154.339 168.842 152.663 176.662 151.821 184.593C151.801 184.989 151.801 185.386 151.821 185.783C152.1 185.464 152.299 185.084 152.401 184.673C152.831 183.003 153.311 181.343 153.671 179.673C154.671 175.193 155.511 170.673 156.451 166.213C156.911 164.023 157.451 161.843 157.921 159.653C157.731 159.653 157.451 159.653 157.391 159.803C157.169 160.277 156.979 160.764 156.821 161.263Z" fill="#B5A08B"/>
<path d="M101.17 92.1029C101.166 92.0764 101.166 92.0494 101.17 92.0229V91.9629V92.1029Z" fill="#B5A08B"/>
<path d="M101.271 92.6428L101.171 92.1028L101.051 92.6428H101.271Z" fill="#B5A08B"/>
<path d="M132.581 76.9729C132.577 77.0261 132.577 77.0796 132.581 77.1329C132.586 77.0429 132.586 76.9528 132.581 76.8629C132.581 76.8629 132.581 76.9329 132.581 76.9729Z" fill="#B5A08B"/>
<path d="M104.571 43.8929C104.594 43.9237 104.625 43.9478 104.661 43.9629C104.661 43.8929 104.661 43.8229 104.611 43.7529C104.561 43.6829 104.561 43.8629 104.571 43.8929Z" fill="#B5A08B"/>
<path d="M157.9 159.563C157.88 159.413 157.85 159.313 157.9 159.563Z" fill="#B5A08B"/>
<path d="M137.431 92.6628V92.9628C137.462 92.8946 137.488 92.8244 137.511 92.7528C137.511 92.7528 137.461 92.6928 137.431 92.6628Z" fill="#B5A08B"/>
<path d="M137.391 93.0829V93.1629H137.451V92.9629C137.445 92.9993 137.445 93.0364 137.451 93.0729L137.391 93.0829Z" fill="#B5A08B"/>
<path d="M120.961 13.6929C125.491 12.2629 129.901 10.5629 134.611 8.78286C132.897 8.53629 131.149 8.72898 129.531 9.34286C126.295 10.3324 123.215 11.7732 120.381 13.6229C120.611 13.6529 120.801 13.7429 120.961 13.6929Z" fill="#B5A08B"/>
</svg>
