<svg width="48" height="48" viewBox="0 0 48 48" fill="none" xmlns="http://www.w3.org/2000/svg">
<circle cx="24" cy="24" r="23.5" fill="#FEF4EC" stroke="#FBD3B1"/>
<path d="M24 16.25C23.0605 16.25 22.1422 16.5286 21.361 17.0505C20.5799 17.5725 19.9711 18.3143 19.6116 19.1823C19.2521 20.0502 19.158 21.0053 19.3413 21.9267C19.5245 22.8481 19.9769 23.6945 20.6412 24.3588C21.3055 25.0231 22.1519 25.4754 23.0733 25.6587C23.9947 25.842 24.9498 25.7479 25.8177 25.3884C26.6857 25.0289 27.4275 24.4201 27.9495 23.639C28.4714 22.8578 28.75 21.9395 28.75 21C28.75 19.7402 28.2496 18.532 27.3588 17.6412C26.468 16.7504 25.2598 16.25 24 16.25ZM24 24.25C23.3572 24.25 22.7289 24.0594 22.1944 23.7023C21.6599 23.3452 21.2434 22.8376 20.9974 22.2437C20.7514 21.6499 20.687 20.9964 20.8124 20.366C20.9378 19.7355 21.2474 19.1564 21.7019 18.7019C22.1564 18.2474 22.7355 17.9378 23.366 17.8124C23.9964 17.687 24.6499 17.7514 25.2437 17.9974C25.8376 18.2434 26.3452 18.6599 26.7023 19.1944C27.0594 19.7289 27.25 20.3572 27.25 21C27.25 21.862 26.9076 22.6886 26.2981 23.2981C25.6886 23.9076 24.862 24.25 24 24.25ZM24 10.25C21.1499 10.2533 18.4176 11.387 16.4023 13.4023C14.387 15.4176 13.2533 18.1499 13.25 21C13.25 24.8637 15.0425 28.9675 18.4338 32.8675C19.9644 34.6364 21.6871 36.2295 23.57 37.6175C23.696 37.7057 23.8462 37.753 24 37.753C24.1538 37.753 24.304 37.7057 24.43 37.6175C26.3129 36.2295 28.0356 34.6364 29.5662 32.8675C32.9575 28.9675 34.75 24.8675 34.75 21C34.7467 18.1499 33.613 15.4176 31.5977 13.4023C29.5824 11.387 26.8501 10.2533 24 10.25ZM24 36.0637C22.125 34.6162 14.75 28.4525 14.75 21C14.75 18.5467 15.7246 16.194 17.4593 14.4593C19.194 12.7246 21.5467 11.75 24 11.75C26.4533 11.75 28.806 12.7246 30.5407 14.4593C32.2754 16.194 33.25 18.5467 33.25 21C33.25 28.4525 25.875 34.6162 24 36.0637Z" fill="#522714"/>
</svg>
