<svg width="187" height="21" viewBox="0 0 187 21" fill="none" xmlns="http://www.w3.org/2000/svg">
<path d="M17.696 20H0.924V17.396L12.012 4.32H1.232V0.848H17.64V3.564L6.636 16.528H17.696V20ZM35.9251 20H20.2731V0.848H35.8131V4.292H24.8931V8.632H35.1131V11.936H24.8931V16.528H35.9251V20ZM43.2128 20H38.6208V0.848H42.4568L52.2848 13.084V0.848H56.8488V20H52.8448L43.2128 8.24V20ZM82.0214 20H66.5934V0.848H71.2134V16.528H82.0214V20ZM92.3276 20.224C90.3956 20.224 88.6876 19.888 87.2036 19.216C84.2076 17.844 82.1636 14.736 82.1636 10.452C82.1636 7.288 83.1156 4.852 85.0196 3.116C86.9236 1.38 89.3596 0.511999 92.3276 0.511999C95.3236 0.511999 97.7596 1.38 99.6636 3.116C101.596 4.824 102.548 7.26 102.548 10.424C102.548 13.616 101.596 16.052 99.6636 17.732C97.7316 19.384 95.2956 20.224 92.3276 20.224ZM92.3276 16.696C95.6596 16.696 97.8156 14.708 97.8156 10.424C97.8156 6.056 95.6036 4.04 92.3276 4.04C89.1076 4.04 86.8956 6.056 86.8956 10.424C86.8956 14.764 89.0796 16.696 92.3276 16.696ZM105.035 12.132V0.848H109.655V12.272C109.655 15.212 111.447 16.696 114.471 16.696C117.495 16.696 119.287 15.212 119.287 12.272V0.848H123.907V12.132C123.907 17.284 120.491 20.252 114.471 20.252C108.451 20.252 105.035 17.284 105.035 12.132ZM131.67 20H127.078V0.848H130.914L140.742 13.084V0.848H145.306V20H141.302L131.67 8.24V20ZM158.285 12.58V9.724H167.693V11.628C167.693 14.204 166.853 16.276 165.145 17.872C163.437 19.468 161.085 20.252 158.033 20.252C155.037 20.252 152.629 19.384 150.753 17.648C148.877 15.912 147.953 13.476 147.953 10.368C147.953 7.26 148.905 4.852 150.837 3.144C152.769 1.436 155.205 0.568 158.173 0.568C160.945 0.568 163.157 1.212 164.837 2.528C166.517 3.816 167.413 5.44 167.553 7.428H163.045C162.793 5.384 160.973 4.096 158.201 4.096C154.869 4.096 152.629 6.028 152.629 10.368C152.629 14.568 154.477 16.668 158.173 16.668C161.337 16.668 163.017 15.128 163.101 12.58H158.285ZM186.206 20H170.554V0.848H186.094V4.292H175.174V8.632H185.394V11.936H175.174V16.528H186.206V20Z" fill="#FBD3B1"/>
</svg>
