<svg width="218" height="37" viewBox="0 0 218 37" fill="none" xmlns="http://www.w3.org/2000/svg">
<path d="M18.3796 29.32C2.3029 29.32 11.6995 8.55829 18.3796 1C25.0597 8.55829 34.7331 29.32 18.3796 29.32ZM18.3796 29.32C10.1753 26.9867 14.9612 17.8101 18.3796 13.5135M18.3796 29.32C26.584 26.9867 21.7981 17.8101 18.3796 13.5135M18.3796 13.5135C17.1879 11.9768 12.7344 8.50813 4.45488 6.92748C-0.155376 14.6112 -3.7135 36.0002 18.3796 36.0002C40.4728 36.0002 36.9147 14.6112 32.3044 6.92748C24.0248 8.50813 19.5714 11.9768 18.3796 13.5135Z" stroke="#FBD3B1" stroke-width="1.17685"/>
<path d="M64.3673 28.216H50.7593V27.012L62.9113 9.568H50.8153V8.336H64.5073V9.54L52.3553 26.984H64.3673V28.216Z" fill="#FBD3B1"/>
<path d="M79.8561 28.216H68.1521V8.336H79.8281V9.568H69.4961V17.632H78.9041V18.864H69.4961V26.984H79.8561V28.216Z" fill="#FBD3B1"/>
<path d="M85.4102 28.216H84.0662V8.336H85.4382L97.0862 25.948V8.336H98.4302V28.216H97.0862L85.4102 10.548V28.216Z" fill="#FBD3B1"/>
<path d="M112.672 8.336V26.984H122.136V28.216H111.328V8.336H112.672Z" fill="#FBD3B1"/>
<path d="M141.762 18.276C141.762 24.296 137.87 28.552 132.354 28.552C126.838 28.552 122.974 24.296 122.974 18.276C122.974 12.256 126.866 8 132.354 8C137.87 8 141.762 12.256 141.762 18.276ZM140.39 18.276C140.39 12.984 137.086 9.288 132.354 9.288C127.65 9.288 124.346 12.984 124.346 18.276C124.346 23.568 127.65 27.264 132.354 27.264C137.086 27.264 140.39 23.568 140.39 18.276Z" fill="#FBD3B1"/>
<path d="M145.395 21.468V8.336H146.739V21.44C146.739 25.192 148.783 27.236 152.535 27.236C156.203 27.236 158.247 25.164 158.247 21.44V8.336H159.591V21.468C159.591 25.892 156.959 28.552 152.535 28.552C148.055 28.552 145.395 25.92 145.395 21.468Z" fill="#FBD3B1"/>
<path d="M165.828 28.216H164.484V8.336H165.856L177.504 25.948V8.336H178.848V28.216H177.504L165.828 10.548V28.216Z" fill="#FBD3B1"/>
<path d="M192.046 9.288C187.202 9.288 184.01 12.928 184.01 18.332C184.01 23.82 187.286 27.264 192.13 27.264C195.378 27.264 199.158 25.808 199.158 20.32V18.892H191.43V17.66H200.446V28.244H199.438L199.27 24.66C198.234 26.844 195.63 28.552 192.186 28.552C186.502 28.552 182.638 24.52 182.638 18.36C182.638 12.256 186.474 8 192.046 8C196.078 8 199.214 10.268 200.082 13.684H198.598C197.674 10.8 195.182 9.288 192.046 9.288Z" fill="#FBD3B1"/>
<path d="M217.067 28.216H205.363V8.336H217.039V9.568H206.707V17.632H216.115V18.864H206.707V26.984H217.067V28.216Z" fill="#FBD3B1"/>
</svg>
