<svg width="217" height="37" viewBox="0 0 217 37" fill="none" xmlns="http://www.w3.org/2000/svg">
<path d="M18.1243 29.32C2.04753 29.32 11.4442 8.55829 18.1243 1C24.8044 8.55829 34.4778 29.32 18.1243 29.32ZM18.1243 29.32C9.91997 26.9867 14.7059 17.8101 18.1243 13.5135M18.1243 29.32C26.3287 26.9867 21.5428 17.8101 18.1243 13.5135M18.1243 13.5135C16.9326 11.9768 12.4791 8.50813 4.19951 6.92748C-0.410748 14.6112 -3.96887 36.0002 18.1243 36.0002C40.2175 36.0002 36.6594 14.6112 32.0491 6.92748C23.7695 8.50813 19.3161 11.9768 18.1243 13.5135Z" stroke="black" stroke-width="1.17685"/>
<path d="M64.1119 28.216H50.5039V27.012L62.6559 9.568H50.5599V8.336H64.2519V9.54L52.0999 26.984H64.1119V28.216Z" fill="black"/>
<path d="M79.6007 28.216H67.8967V8.336H79.5727V9.568H69.2407V17.632H78.6487V18.864H69.2407V26.984H79.6007V28.216Z" fill="black"/>
<path d="M85.1548 28.216H83.8108V8.336H85.1828L96.8308 25.948V8.336H98.1748V28.216H96.8308L85.1548 10.548V28.216Z" fill="black"/>
<path d="M112.417 8.336V26.984H121.881V28.216H111.072V8.336H112.417Z" fill="black"/>
<path d="M141.507 18.276C141.507 24.296 137.615 28.552 132.099 28.552C126.583 28.552 122.719 24.296 122.719 18.276C122.719 12.256 126.611 8 132.099 8C137.615 8 141.507 12.256 141.507 18.276ZM140.135 18.276C140.135 12.984 136.831 9.288 132.099 9.288C127.395 9.288 124.091 12.984 124.091 18.276C124.091 23.568 127.395 27.264 132.099 27.264C136.831 27.264 140.135 23.568 140.135 18.276Z" fill="black"/>
<path d="M145.14 21.468V8.336H146.484V21.44C146.484 25.192 148.528 27.236 152.28 27.236C155.948 27.236 157.992 25.164 157.992 21.44V8.336H159.336V21.468C159.336 25.892 156.704 28.552 152.28 28.552C147.8 28.552 145.14 25.92 145.14 21.468Z" fill="black"/>
<path d="M165.573 28.216H164.229V8.336H165.601L177.249 25.948V8.336H178.593V28.216H177.249L165.573 10.548V28.216Z" fill="black"/>
<path d="M191.791 9.288C186.947 9.288 183.755 12.928 183.755 18.332C183.755 23.82 187.031 27.264 191.875 27.264C195.123 27.264 198.903 25.808 198.903 20.32V18.892H191.175V17.66H200.191V28.244H199.183L199.015 24.66C197.979 26.844 195.375 28.552 191.931 28.552C186.247 28.552 182.383 24.52 182.383 18.36C182.383 12.256 186.219 8 191.791 8C195.823 8 198.959 10.268 199.827 13.684H198.343C197.419 10.8 194.927 9.288 191.791 9.288Z" fill="black"/>
<path d="M216.812 28.216H205.108V8.336H216.784V9.568H206.452V17.632H215.86V18.864H206.452V26.984H216.812V28.216Z" fill="black"/>
</svg>
