<svg width="193" height="45" viewBox="0 0 193 45" fill="none" xmlns="http://www.w3.org/2000/svg">
<path d="M17.864 23.92V27H1.148V24.564L12.684 10.48H1.344V7.4H17.5V9.836L5.964 23.92H17.864ZM35.8984 23.948V27H21.1984V7.4H35.5064V10.452H24.8384V15.548H34.3024V18.544H24.8384V23.948H35.8984ZM57.3722 7.4V27H54.3762L43.5682 13.728V27H39.9562V7.4H42.9522L53.7602 20.672V7.4H57.3722ZM70.3625 7.4H74.0025V23.92H84.2505V27H70.3625V7.4ZM95.9247 27.28C93.9274 27.28 92.1261 26.8507 90.5207 25.992C88.9154 25.1147 87.6554 23.9107 86.7407 22.38C85.8261 20.8307 85.3687 19.104 85.3687 17.2C85.3687 15.296 85.8261 13.5787 86.7407 12.048C87.6554 10.4987 88.9154 9.29467 90.5207 8.436C92.1261 7.55867 93.9274 7.12 95.9247 7.12C97.9221 7.12 99.7234 7.55867 101.329 8.436C102.934 9.29467 104.194 10.4893 105.109 12.02C106.023 13.5507 106.481 15.2773 106.481 17.2C106.481 19.1227 106.023 20.8493 105.109 22.38C104.194 23.9107 102.934 25.1147 101.329 25.992C99.7234 26.8507 97.9221 27.28 95.9247 27.28ZM95.9247 24.088C97.2314 24.088 98.4074 23.7987 99.4527 23.22C100.498 22.6227 101.319 21.8013 101.917 20.756C102.514 19.692 102.813 18.5067 102.813 17.2C102.813 15.8933 102.514 14.7173 101.917 13.672C101.319 12.608 100.498 11.7867 99.4527 11.208C98.4074 10.6107 97.2314 10.312 95.9247 10.312C94.6181 10.312 93.4421 10.6107 92.3967 11.208C91.3514 11.7867 90.5301 12.608 89.9327 13.672C89.3354 14.7173 89.0367 15.8933 89.0367 17.2C89.0367 18.5067 89.3354 19.692 89.9327 20.756C90.5301 21.8013 91.3514 22.6227 92.3967 23.22C93.4421 23.7987 94.6181 24.088 95.9247 24.088ZM118.767 27.28C116.06 27.28 113.951 26.524 112.439 25.012C110.927 23.4813 110.171 21.2973 110.171 18.46V7.4H113.811V18.32C113.811 22.1653 115.472 24.088 118.795 24.088C122.099 24.088 123.751 22.1653 123.751 18.32V7.4H127.335V18.46C127.335 21.2973 126.579 23.4813 125.067 25.012C123.574 26.524 121.474 27.28 118.767 27.28ZM149.849 7.4V27H146.853L136.045 13.728V27H132.433V7.4H135.429L146.237 20.672V7.4H149.849ZM168.485 16.976H171.929V24.788C170.921 25.5907 169.745 26.2067 168.401 26.636C167.057 27.0653 165.675 27.28 164.257 27.28C162.259 27.28 160.458 26.8507 158.853 25.992C157.247 25.1147 155.987 23.9107 155.073 22.38C154.158 20.8493 153.701 19.1227 153.701 17.2C153.701 15.2773 154.158 13.5507 155.073 12.02C155.987 10.4893 157.247 9.29467 158.853 8.436C160.477 7.55867 162.297 7.12 164.313 7.12C165.955 7.12 167.449 7.39067 168.793 7.932C170.137 8.47333 171.266 9.26667 172.181 10.312L169.885 12.552C168.391 11.0587 166.59 10.312 164.481 10.312C163.099 10.312 161.867 10.6013 160.785 11.18C159.721 11.7587 158.881 12.5707 158.265 13.616C157.667 14.6613 157.369 15.856 157.369 17.2C157.369 18.5067 157.667 19.6827 158.265 20.728C158.881 21.7733 159.721 22.5947 160.785 23.192C161.867 23.7893 163.09 24.088 164.453 24.088C165.983 24.088 167.327 23.752 168.485 23.08V16.976ZM191.43 23.948V27H176.73V7.4H191.038V10.452H180.37V15.548H189.834V18.544H180.37V23.948H191.43Z" fill="#241E19"/>
<path d="M9.048 42L9.036 35.88L6 40.98H5.448L2.412 35.916V42H1.26V33.6H2.244L5.748 39.504L9.204 33.6H10.188L10.2 42H9.048ZM22.9929 39.9H18.5289L17.6049 42H16.3689L20.1729 33.6H21.3609L25.1769 42H23.9169L22.9929 39.9ZM22.5729 38.94L20.7609 34.824L18.9489 38.94H22.5729ZM33.798 42.096C33.166 42.096 32.554 42 31.962 41.808C31.378 41.608 30.918 41.352 30.582 41.04L31.026 40.104C31.346 40.392 31.754 40.628 32.25 40.812C32.754 40.988 33.27 41.076 33.798 41.076C34.494 41.076 35.014 40.96 35.358 40.728C35.702 40.488 35.874 40.172 35.874 39.78C35.874 39.492 35.778 39.26 35.586 39.084C35.402 38.9 35.17 38.76 34.89 38.664C34.618 38.568 34.23 38.46 33.726 38.34C33.094 38.188 32.582 38.036 32.19 37.884C31.806 37.732 31.474 37.5 31.194 37.188C30.922 36.868 30.786 36.44 30.786 35.904C30.786 35.456 30.902 35.052 31.134 34.692C31.374 34.332 31.734 34.044 32.214 33.828C32.694 33.612 33.29 33.504 34.002 33.504C34.498 33.504 34.986 33.568 35.466 33.696C35.946 33.824 36.358 34.008 36.702 34.248L36.306 35.208C35.954 34.984 35.578 34.816 35.178 34.704C34.778 34.584 34.386 34.524 34.002 34.524C33.322 34.524 32.81 34.648 32.466 34.896C32.13 35.144 31.962 35.464 31.962 35.856C31.962 36.144 32.058 36.38 32.25 36.564C32.442 36.74 32.678 36.88 32.958 36.984C33.246 37.08 33.634 37.184 34.122 37.296C34.754 37.448 35.262 37.6 35.646 37.752C36.03 37.904 36.358 38.136 36.63 38.448C36.91 38.76 37.05 39.18 37.05 39.708C37.05 40.148 36.93 40.552 36.69 40.92C36.45 41.28 36.086 41.568 35.598 41.784C35.11 41.992 34.51 42.096 33.798 42.096ZM46.1711 42.096C45.5391 42.096 44.9271 42 44.3351 41.808C43.7511 41.608 43.2911 41.352 42.9551 41.04L43.3991 40.104C43.7191 40.392 44.1271 40.628 44.6231 40.812C45.1271 40.988 45.6431 41.076 46.1711 41.076C46.8671 41.076 47.3871 40.96 47.7311 40.728C48.0751 40.488 48.2471 40.172 48.2471 39.78C48.2471 39.492 48.1511 39.26 47.9591 39.084C47.7751 38.9 47.5431 38.76 47.2631 38.664C46.9911 38.568 46.6031 38.46 46.0991 38.34C45.4671 38.188 44.9551 38.036 44.5631 37.884C44.1791 37.732 43.8471 37.5 43.5671 37.188C43.2951 36.868 43.1591 36.44 43.1591 35.904C43.1591 35.456 43.2751 35.052 43.5071 34.692C43.7471 34.332 44.1071 34.044 44.5871 33.828C45.0671 33.612 45.6631 33.504 46.3751 33.504C46.8711 33.504 47.3591 33.568 47.8391 33.696C48.3191 33.824 48.7311 34.008 49.0751 34.248L48.6791 35.208C48.3271 34.984 47.9511 34.816 47.5511 34.704C47.1511 34.584 46.7591 34.524 46.3751 34.524C45.6951 34.524 45.1831 34.648 44.8391 34.896C44.5031 35.144 44.3351 35.464 44.3351 35.856C44.3351 36.144 44.4311 36.38 44.6231 36.564C44.8151 36.74 45.0511 36.88 45.3311 36.984C45.6191 37.08 46.0071 37.184 46.4951 37.296C47.1271 37.448 47.6351 37.6 48.0191 37.752C48.4031 37.904 48.7311 38.136 49.0031 38.448C49.2831 38.76 49.4231 39.18 49.4231 39.708C49.4231 40.148 49.3031 40.552 49.0631 40.92C48.8231 41.28 48.4591 41.568 47.9711 41.784C47.4831 41.992 46.8831 42.096 46.1711 42.096ZM61.4483 39.9H56.9843L56.0603 42H54.8243L58.6283 33.6H59.8163L63.6323 42H62.3723L61.4483 39.9ZM61.0283 38.94L59.2163 34.824L57.4043 38.94H61.0283ZM75.5081 37.752H76.6601V41.028C76.2441 41.372 75.7601 41.636 75.2081 41.82C74.6561 42.004 74.0801 42.096 73.4801 42.096C72.6321 42.096 71.8681 41.912 71.1881 41.544C70.5081 41.168 69.9721 40.656 69.5801 40.008C69.1961 39.352 69.0041 38.616 69.0041 37.8C69.0041 36.984 69.1961 36.248 69.5801 35.592C69.9721 34.936 70.5081 34.424 71.1881 34.056C71.8761 33.688 72.6481 33.504 73.5041 33.504C74.1761 33.504 74.7841 33.616 75.3281 33.84C75.8801 34.056 76.3481 34.376 76.7321 34.8L75.9881 35.544C75.3161 34.896 74.5041 34.572 73.5521 34.572C72.9121 34.572 72.3361 34.712 71.8241 34.992C71.3201 35.264 70.9241 35.648 70.6361 36.144C70.3481 36.632 70.2041 37.184 70.2041 37.8C70.2041 38.408 70.3481 38.96 70.6361 39.456C70.9241 39.944 71.3201 40.328 71.8241 40.608C72.3361 40.888 72.9081 41.028 73.5401 41.028C74.2921 41.028 74.9481 40.848 75.5081 40.488V37.752ZM89.9737 40.956V42H83.8777V33.6H89.8057V34.644H85.0777V37.224H89.2897V38.244H85.0777V40.956H89.9737ZM106.647 34.644H103.767V33.6H110.715V34.644H107.835V42H106.647V34.644ZM124.166 33.6V42H122.966V38.256H118.142V42H116.942V33.6H118.142V37.212H122.966V33.6H124.166ZM137.697 40.956V42H131.601V33.6H137.529V34.644H132.801V37.224H137.013V38.244H132.801V40.956H137.697ZM150.176 42L148.364 39.42C148.14 39.436 147.964 39.444 147.836 39.444H145.76V42H144.56V33.6H147.836C148.924 33.6 149.78 33.86 150.404 34.38C151.028 34.9 151.34 35.616 151.34 36.528C151.34 37.176 151.18 37.728 150.86 38.184C150.54 38.64 150.084 38.972 149.492 39.18L151.484 42H150.176ZM147.8 38.424C148.56 38.424 149.14 38.26 149.54 37.932C149.94 37.604 150.14 37.136 150.14 36.528C150.14 35.92 149.94 35.456 149.54 35.136C149.14 34.808 148.56 34.644 147.8 34.644H145.76V38.424H147.8ZM163.55 39.9H159.086L158.162 42H156.926L160.73 33.6H161.918L165.734 42H164.474L163.55 39.9ZM163.13 38.94L161.318 34.824L159.506 38.94H163.13ZM175.184 33.6C176.272 33.6 177.128 33.86 177.752 34.38C178.376 34.9 178.688 35.616 178.688 36.528C178.688 37.44 178.376 38.156 177.752 38.676C177.128 39.196 176.272 39.456 175.184 39.456H173.108V42H171.908V33.6H175.184ZM175.148 38.412C175.908 38.412 176.488 38.252 176.888 37.932C177.288 37.604 177.488 37.136 177.488 36.528C177.488 35.92 177.288 35.456 176.888 35.136C176.488 34.808 175.908 34.644 175.148 34.644H173.108V38.412H175.148ZM188.586 39.096V42H187.398V39.072L184.062 33.6H185.346L188.034 38.028L190.734 33.6H191.922L188.586 39.096Z" fill="#241E19"/>
</svg>
