<svg width="48" height="48" viewBox="0 0 48 48" fill="none" xmlns="http://www.w3.org/2000/svg">
<circle cx="24" cy="24" r="23.5" fill="#FEF4EC" stroke="#FBD3B1"/>
<path d="M38.5123 23.3288C38.4011 23.1332 38.2521 22.9618 38.0739 22.8245C37.8958 22.6871 37.6921 22.5866 37.4748 22.5288C36.4888 22.2767 35.4675 22.1921 34.4535 22.2788C35.0373 19.7 34.656 17.665 34.2723 16.4788C34.1383 16.0597 33.8532 15.7055 33.4723 15.4853C33.0915 15.2651 32.6423 15.1945 32.2123 15.2875C30.8776 15.5869 29.614 16.1435 28.4923 16.9263C27.7116 15.228 26.5313 13.744 25.0523 12.6013C24.7488 12.3726 24.3791 12.2489 23.9991 12.2489C23.6192 12.2489 23.2495 12.3726 22.946 12.6013C21.4678 13.7445 20.288 15.2284 19.5073 16.9263C18.3852 16.1432 17.1212 15.5866 15.786 15.2875C15.356 15.1947 14.9068 15.2654 14.5262 15.4859C14.1455 15.7064 13.8607 16.0608 13.7273 16.48C13.3435 17.6662 12.9623 19.7013 13.546 22.28C12.532 22.1934 11.5107 22.2779 10.5248 22.53C10.3074 22.5878 10.1037 22.6884 9.9256 22.8257C9.74747 22.9631 9.59847 23.1345 9.48726 23.33C9.37039 23.5309 9.29473 23.7531 9.26468 23.9836C9.23463 24.2141 9.25081 24.4483 9.31226 24.6725C9.72601 26.2075 10.9998 29.125 14.8648 31.4387C18.7298 33.7525 22.161 33.75 23.9998 33.75C25.8385 33.75 29.2648 33.75 33.1323 31.4387C36.9998 29.1275 38.271 26.2075 38.6848 24.6712C38.7466 24.4472 38.7632 24.2131 38.7336 23.9826C38.7039 23.7522 38.6287 23.5299 38.5123 23.3288ZM29.0598 18.3625C30.0889 17.5864 31.2706 17.0369 32.5273 16.75C32.594 16.7364 32.6634 16.748 32.7221 16.7827C32.7808 16.8173 32.8245 16.8725 32.8448 16.9375C33.3373 18.465 33.821 21.625 31.521 25.625C30.5978 27.2027 29.4144 28.613 28.021 29.7962C28.981 28.125 29.7498 25.8662 29.7498 22.8962C29.7614 21.358 29.5285 19.8276 29.0598 18.3625ZM15.1548 16.9413C15.1743 16.8755 15.2177 16.8195 15.2765 16.7841C15.3352 16.7487 15.405 16.7366 15.4723 16.75C16.7289 17.0369 17.9106 17.5864 18.9398 18.3625C18.471 19.8276 18.2381 21.358 18.2498 22.8962C18.2498 25.8662 19.0185 28.1275 19.976 29.7925C18.5823 28.6095 17.3989 27.1992 16.476 25.6213C14.1785 21.625 14.6623 18.465 15.1548 16.9413ZM15.6348 30.15C12.2223 28.1112 11.116 25.5975 10.7598 24.275C10.7504 24.2414 10.7479 24.2063 10.7524 24.1717C10.757 24.1371 10.7684 24.1038 10.786 24.0737C10.8132 24.0255 10.858 23.9896 10.911 23.9738C11.9212 23.7227 12.9716 23.6772 13.9998 23.84C14.3169 24.7182 14.7114 25.5665 15.1785 26.375C16.461 28.5881 18.2098 30.4956 20.3035 31.965C18.6529 31.6383 17.0726 31.024 15.6348 30.15ZM23.9998 32.1075C22.9148 31.3325 19.7498 28.5825 19.7498 22.8962C19.7498 17.4762 22.6173 14.7288 23.8498 13.7988C23.893 13.7663 23.9457 13.7488 23.9998 13.7488C24.0539 13.7488 24.1065 13.7663 24.1498 13.7988C25.3823 14.7288 28.2498 17.4762 28.2498 22.8962C28.2498 28.6175 25.101 31.3338 23.9998 32.1075ZM37.2373 24.28C36.881 25.5975 35.7748 28.1113 32.3623 30.155C30.9228 31.0272 29.3413 31.6394 27.6898 31.9638C29.7835 30.4944 31.5323 28.5869 32.8148 26.3738C33.284 25.5659 33.6805 24.718 33.9998 23.84C35.0291 23.6785 36.0803 23.7257 37.091 23.9788C37.1441 23.9946 37.1889 24.0305 37.216 24.0788C37.2332 24.109 37.2442 24.1424 37.2483 24.177C37.2524 24.2115 37.2495 24.2466 37.2398 24.28H37.2373Z" fill="#522714"/>
</svg>
