<svg width="61" height="61" viewBox="0 0 61 61" fill="none" xmlns="http://www.w3.org/2000/svg">
<path d="M48.9677 29.0112C47.8552 29.0112 46.7677 29.3411 45.8427 29.9592C44.9176 30.5773 44.1967 31.4558 43.7709 32.4836C43.3452 33.5115 43.2338 34.6425 43.4508 35.7336C43.6679 36.8248 44.2036 37.827 44.9903 38.6137C45.7769 39.4004 46.7792 39.9361 47.8703 40.1531C48.9615 40.3702 50.0925 40.2588 51.1203 39.8331C52.1482 39.4073 53.0267 38.6863 53.6447 37.7613C54.2628 36.8363 54.5927 35.7487 54.5927 34.6362C54.5912 33.1448 53.9981 31.715 52.9436 30.6604C51.889 29.6058 50.4591 29.0127 48.9677 29.0112ZM48.9677 38.3862C48.2261 38.3862 47.501 38.1663 46.8843 37.7542C46.2677 37.3422 45.787 36.7565 45.5032 36.0713C45.2194 35.3861 45.1451 34.6321 45.2898 33.9046C45.4345 33.1772 45.7916 32.509 46.3161 31.9846C46.8405 31.4601 47.5087 31.103 48.2361 30.9583C48.9636 30.8136 49.7176 30.8879 50.4028 31.1717C51.088 31.4555 51.6737 31.9362 52.0857 32.5528C52.4978 33.1695 52.7177 33.8946 52.7177 34.6362C52.7177 35.6308 52.3226 36.5846 51.6194 37.2879C50.9161 37.9911 49.9623 38.3862 48.9677 38.3862Z" fill="#522714"/>
<path d="M26.4673 14.0112C27.5798 14.0112 28.6674 13.6813 29.5924 13.0632C30.5174 12.4452 31.2384 11.5667 31.6642 10.5388C32.0899 9.51099 32.2013 8.37999 31.9842 7.28885C31.7672 6.19771 31.2315 5.19543 30.4448 4.40876C29.6581 3.62209 28.6559 3.08636 27.5647 2.86932C26.4736 2.65227 25.3426 2.76367 24.3147 3.18941C23.2869 3.61515 22.4084 4.33612 21.7903 5.26115C21.1722 6.18618 20.8423 7.27371 20.8423 8.38623C20.8438 9.87762 21.4369 11.3075 22.4915 12.3621C23.5461 13.4166 24.9759 14.0097 26.4673 14.0112ZM26.4673 4.63623C27.209 4.63623 27.934 4.85617 28.5507 5.26822C29.1674 5.68028 29.648 6.26595 29.9319 6.95117C30.2157 7.63639 30.29 8.39039 30.1453 9.11782C30.0006 9.84525 29.6434 10.5134 29.119 11.0379C28.5945 11.5623 27.9263 11.9195 27.1989 12.0642C26.4715 12.2089 25.7175 12.1346 25.0323 11.8508C24.347 11.567 23.7614 11.0863 23.3493 10.4696C22.9373 9.85294 22.7173 9.12791 22.7173 8.38623C22.7173 7.39167 23.1124 6.43784 23.8157 5.73458C24.5189 5.03132 25.4728 4.63623 26.4673 4.63623Z" fill="#522714"/>
<path d="M57.4052 42.1362H42.2955L41.4677 35.51C41.4511 34.7752 41.1474 34.0761 40.6218 33.5623C40.0961 33.0486 39.3902 32.761 38.6552 32.7612L21.6865 32.7659L2.93652 34.6409C2.70527 34.6642 2.4909 34.7725 2.335 34.9448C2.17909 35.1172 2.09277 35.3413 2.09277 35.5737V39.3237C2.09277 39.5724 2.19154 39.8108 2.36736 39.9866C2.54317 40.1625 2.78163 40.2612 3.03027 40.2612H35.9562L36.198 42.1362H3.03027C2.78163 42.1362 2.54317 42.235 2.36736 42.4108C2.19154 42.5866 2.09277 42.8251 2.09277 43.0737V50.5737C2.09277 50.8224 2.19154 51.0608 2.36736 51.2366C2.54317 51.4125 2.78163 51.5112 3.03027 51.5112H7.71777V58.0737C7.71777 58.3224 7.81654 58.5608 7.99236 58.7366C8.16817 58.9125 8.40663 59.0112 8.65527 59.0112H19.9052C20.1539 59.0112 20.3923 58.9125 20.5681 58.7366C20.744 58.5608 20.8427 58.3224 20.8427 58.0737V51.5112H39.5927V58.0737C39.5927 58.3224 39.6915 58.5608 39.8673 58.7366C40.0431 58.9125 40.2816 59.0112 40.5302 59.0112H51.7802C52.0289 59.0112 52.2673 58.9125 52.4431 58.7366C52.619 58.5608 52.7177 58.3224 52.7177 58.0737V51.5112H57.4052C57.6539 51.5112 57.8923 51.4125 58.0681 51.2366C58.244 51.0608 58.3427 50.8224 58.3427 50.5737V43.0737C58.3427 42.8251 58.244 42.5866 58.0681 42.4108C57.8923 42.235 57.6539 42.1362 57.4052 42.1362ZM3.96777 38.3862V36.4175L21.7802 34.6362H38.6552C38.9039 34.6362 39.1423 34.735 39.3181 34.9108C39.494 35.0866 39.5927 35.3251 39.5927 35.5737C39.5929 35.6126 39.5954 35.6514 39.6002 35.69L40.5377 43.19C40.5661 43.4167 40.6762 43.6252 40.8474 43.7765C41.0187 43.9277 41.2393 44.0112 41.4677 44.0112H51.7802C52.0289 44.0112 52.2673 44.11 52.4431 44.2858C52.619 44.4616 52.7177 44.7001 52.7177 44.9487C52.7177 45.1974 52.619 45.4358 52.4431 45.6116C52.2673 45.7875 52.0289 45.8862 51.7802 45.8862H39.3959C39.1624 45.8861 38.9374 45.7988 38.7649 45.6416C38.5924 45.4843 38.4847 45.2683 38.463 45.0359L37.713 39.2037C37.6838 38.9772 37.5729 38.7692 37.4012 38.6187C37.2294 38.4681 37.0086 38.3855 36.7802 38.3862H3.96777ZM18.9677 57.1362H17.0927V55.2612H15.2177V57.1362H13.3427V54.3237H11.4677V57.1362H9.59277V51.5112H18.9677V57.1362ZM50.8427 57.1362H48.9677V54.3237H47.0927V57.1362H45.2177V53.3862H43.3427V57.1362H41.4677V51.5112H50.8427V57.1362ZM56.4677 49.6362H3.96777V47.7612H18.9677V45.8862H3.96777V44.0112H36.4399L36.6012 45.259C36.6775 45.9469 37.0048 46.5824 37.5204 47.0441C38.036 47.5057 38.7038 47.7611 39.3959 47.7612H51.7802C52.5262 47.7612 53.2415 47.4649 53.769 46.9375C54.2964 46.41 54.5927 45.6947 54.5927 44.9487C54.5896 44.6286 54.5313 44.3115 54.4202 44.0112H56.4677V49.6362Z" fill="#522714"/>
<path d="M19.9463 17.4856L16.1963 29.6731C16.1531 29.8133 16.1435 29.9617 16.1682 30.1064C16.1929 30.251 16.2511 30.3878 16.3383 30.5058C16.4255 30.6238 16.5392 30.7197 16.6701 30.7858C16.8011 30.8519 16.9458 30.8863 17.0925 30.8862H26.4675C26.681 30.8864 26.8881 30.8138 27.0546 30.6803C27.2211 30.5468 27.3372 30.3605 27.3835 30.1522L28.7485 24.0087L30.3516 26.6815C30.457 26.8572 30.617 26.9936 30.8072 27.0697L37.6885 29.8212C38.3374 30.0795 39.0601 30.0821 39.7108 29.8286C40.3616 29.5751 40.8921 29.0843 41.1953 28.4551C41.4985 27.826 41.5519 27.1052 41.3448 26.4383C41.1377 25.7713 40.6854 25.2076 40.0791 24.8609C40.0426 24.8402 40.0047 24.822 39.9657 24.8065L34.6238 22.6362C30.735 15.8862 29.7544 15.8862 29.28 15.8862H21.78C21.3474 15.933 20.9396 16.1115 20.6116 16.3975C20.2837 16.6836 20.0514 17.0634 19.9463 17.4856ZM21.901 17.7612H29.085C30.6391 19.6532 32.002 21.6944 33.1538 23.855C33.2579 24.0376 33.4203 24.1799 33.615 24.259L39.1922 26.5194C39.3163 26.601 39.4179 26.7124 39.4879 26.8434C39.5578 26.9744 39.5938 27.1209 39.5925 27.2694C39.5924 27.4133 39.557 27.555 39.4895 27.6821C39.4219 27.8092 39.3243 27.9179 39.2051 27.9985C39.0858 28.0792 38.9487 28.1294 38.8056 28.1448C38.6625 28.1602 38.5177 28.1403 38.3841 28.0869L31.7972 25.4487L29.146 21.0322C29.0494 20.8713 28.9067 20.7431 28.7364 20.6642C28.5661 20.5852 28.3761 20.5593 28.1909 20.5896C28.0057 20.6199 27.8338 20.705 27.6975 20.8341C27.5613 20.9631 27.4669 21.1301 27.4266 21.3134L25.7175 29.0112H18.3619L21.7435 18.019C21.7775 17.9231 21.8311 17.8353 21.901 17.7612Z" fill="#522714"/>
<path d="M22.7173 45.8862H20.8423V47.7612H22.7173V45.8862Z" fill="#522714"/>
<path d="M33.9673 45.8862H24.5923V47.7612H33.9673V45.8862Z" fill="#522714"/>
</svg>
