<svg xmlns="http://www.w3.org/2000/svg" viewBox="0 0 189.58 27.07"><defs><style>.cls-1{fill:#b5a08b;}</style></defs><g id="Calque_2" data-name="Calque 2"><g id="OBJECTS"><path class="cls-1" d="M94.83,6.64c-.41-.25-.71-.12-1,.51-2.44,4.41-3.57,12.45,1,16,.26.2.74.26.91-.12a20.34,20.34,0,0,0,1.73-9.16C97.26,11.55,97,8,94.83,6.64ZM95,21.81c-3.24-3.4-2.28-10-.63-13.95,1.77,1.39,2,5.43,2,7.4A17.08,17.08,0,0,1,95,21.81Z"/><path class="cls-1" d="M90.78,9.12A.37.37,0,0,0,90.52,9c-2.3,0-4.63,2.05-5.91,3.8a9.77,9.77,0,0,0-1.83,7.85.44.44,0,0,0,.64.26c3.8-2.38,7.56-6.64,7.6-11.4A.45.45,0,0,0,90.78,9.12Zm-7.1,10.64a10.76,10.76,0,0,1,1.92-6.28c1.2-1.59,2.73-2.24,4.26-3.19C89,14.24,87.21,17.57,83.68,19.76Z"/><path class="cls-1" d="M189.53,16.4a11.9,11.9,0,0,0-1.44-4.62C184.89,3.29,174.24.32,165.91,0c-12.65-.41-24.79,3.56-36.74,7.1-7.5,2.21-14.83,3.59-22.61,2.12a.6.6,0,0,0-.23,0A21.31,21.31,0,0,1,95.39.76.84.84,0,0,0,94,.76,19.78,19.78,0,0,1,83.32,9.25a.46.46,0,0,0-.2,0c-13.75,2.6-26.25-4-39.39-6.87C33.18.1,21.35-1.7,11.08,2.66c-4.47,1.88-8.3,5.09-9.83,9.73-.17.34-.33.68-.48,1A9.49,9.49,0,0,0,3.51,24.62c3.11,2.51,8,3.39,11.48,1.21,3.28-2,4.7-7.36,1.43-10.09-2.66-2.24-7.36-1-7.8,2.65-.1.82,1.07.83,1.33.18a3.56,3.56,0,0,1,4.25-1.93c2.26.64,2.62,3.41,1.85,5.3-1.85,4.5-8.16,3.81-11.33,1.3-3.84-3-3.44-8.24-.56-11.8s7.43-4.71,11.69-5C25.33,5.62,34.74,8.07,44,9.9a120.42,120.42,0,0,0,28,2.45,43.55,43.55,0,0,0,7.66-.93,19.33,19.33,0,0,0,3.79-1,.77.77,0,0,0,.18-.1,20,20,0,0,0,11-8.84.19.19,0,0,0,0-.08c2.64,4.72,7.52,7.77,12.47,9.34l.38.12L108,11l.37.11a35.9,35.9,0,0,0,5.53,1c9.25,1,18.93.16,28.05-1.48,9.43-1.7,18.79-4.34,28.44-4.35,4.48,0,9.33.54,13,3.28,3.22,2.38,5.43,7,3.71,10.85-1.94,4.37-9.13,6.88-12.72,3-1.52-1.66-2-5.06.22-6.42a3.58,3.58,0,0,1,5,1.62c.26.64,1.43.64,1.33-.18-.39-3.2-4.14-4.62-6.9-3.24-3.3,1.64-3.38,6.24-1.4,8.93,2.4,3.24,7.13,3.59,10.63,2.16A9.6,9.6,0,0,0,189.53,16.4ZM61.92,10.81c-12-.67-23.43-4.58-35.31-6C19.76,4,10.4,3.67,4.67,8.2,9.94,2.4,20,1.2,27.34,1.69a103.71,103.71,0,0,1,17.77,2.9C51.4,6.14,57.48,8.43,63.76,10c1.59.4,3.24.77,4.91,1.07C66.33,11,64.06,10.92,61.92,10.81ZM167.38,4.43c-12,.65-23.4,4.78-35.29,6a110.44,110.44,0,0,1-11.57.66c.87-.15,1.73-.32,2.58-.5,6.44-1.35,12.59-3.68,18.92-5.4,10.41-2.83,22.4-5.32,33-2.41a20.92,20.92,0,0,1,9.58,5.25C180,4.76,172.87,4.12,167.38,4.43Z"/><path class="cls-1" d="M99,9a.37.37,0,0,0-.26.11.45.45,0,0,0-.24.4c0,4.76,3.8,9,7.6,11.4a.44.44,0,0,0,.64-.26,9.77,9.77,0,0,0-1.83-7.85C103.66,11.05,101.34,9,99,9Zm.66,1.28c1.53.94,3.07,1.6,4.26,3.19a10.76,10.76,0,0,1,1.92,6.28C102.34,17.57,100.57,14.24,99.69,10.29Z"/></g></g></svg>